<svg viewBox="0 0 88 47" xmlns="http://www.w3.org/2000/svg" xmlns:xlink="http://www.w3.org/1999/xlink" width="88.000000" height="47.000000" opacity="0.300000012" fill="none" customFrame="#000000">
	<rect id="shapes" width="88.000000" height="47.000000" x="0.000000" y="0.000000" />
	<path id="Vector" d="M33.1803 27.4978C25.6036 35.0745 13.2594 35.0745 5.68259 27.4978C-1.8942 19.921 -1.8942 7.57678 5.68259 0L33.1803 27.4978Z" fill="rgb(255,255,255)" fill-rule="nonzero" transform="matrix(-0.707366,0.706847,0.707366,0.706847,70.5059,0)" />
	<path id="Vector" d="M33.1803 27.4978C25.6036 35.0745 13.2594 35.0745 5.68259 27.4978C-1.8942 19.921 -1.8942 7.57678 5.68259 0L33.1803 27.4978Z" fill="rgb(255,255,255)" fill-rule="nonzero" transform="matrix(-0.707366,0.706847,0.707366,0.706847,40.1611,0)" />
	<path id="Vector" d="M33.1803 27.4978C25.6036 35.0745 13.2594 35.0745 5.68258 27.4978C-1.8942 19.921 -1.8942 7.57678 5.68258 0L33.1803 27.4978Z" fill="rgb(255,255,255)" fill-rule="nonzero" transform="matrix(-0.707366,0.706847,0.707366,0.706847,9.81641,0)" />
</svg>
