<svg viewBox="0 0 155.564 155.563" xmlns="http://www.w3.org/2000/svg" xmlns:xlink="http://www.w3.org/1999/xlink" width="155.563965" height="155.563477" fill="none" customFrame="#000000">
	<g id="shapes" opacity="0.300000012">
		<path id="Vector" d="M36.3218 22.6623L36.3218 36.3218L0 36.3218L0 0L13.556 0L13.556 22.6623L36.3218 22.6623Z" fill="rgb(255,255,255)" fill-rule="nonzero" transform="matrix(0.707107,-0.707107,0.707107,0.707107,52.0986,129.88)" />
		<path id="Vector" d="M36.3218 22.6623L36.3218 36.2183L0 36.2183L0 0L13.6595 0L13.6595 22.6623L36.3218 22.6623Z" fill="rgb(255,255,255)" fill-rule="nonzero" transform="matrix(0.707107,-0.707107,0.707107,0.707107,52.0977,95.1973)" />
		<path id="Vector" d="M36.2183 22.6623L36.2183 36.3218L0 36.3218L0 0L13.556 0L13.556 22.6623L36.2183 22.6623Z" fill="rgb(255,255,255)" fill-rule="nonzero" transform="matrix(0.707107,-0.707107,0.707107,0.707107,52.0981,60.3672)" />
		<path id="Vector" d="M36.3218 22.6623L36.3218 36.3218L0 36.3218L0 0L13.6595 0L13.6595 22.6623L36.3218 22.6623Z" fill="rgb(255,255,255)" fill-rule="nonzero" transform="matrix(0.707107,-0.707107,0.707107,0.707107,52.0981,25.6826)" />
	</g>
</svg>
