<svg viewBox="0 0 95.999 96" xmlns="http://www.w3.org/2000/svg" xmlns:xlink="http://www.w3.org/1999/xlink" width="95.999023" height="96.000000" fill="none" customFrame="#000000">
	<g id="shapes" opacity="0.300000012">
		<path id="Vector" d="M31.6988 19.7779L31.6988 31.6988L0 31.6988L0 0L11.8306 0L11.8306 19.7779L31.6988 19.7779Z" fill="rgb(255,255,255)" fill-rule="nonzero" transform="matrix(-1,8.74228e-08,-8.74228e-08,-1,95.999,31.6992)" />
		<path id="Vector" d="M31.6988 19.7779L31.6988 31.6085L0 31.6085L0 0L11.9209 0L11.9209 19.7779L31.6988 19.7779Z" fill="rgb(255,255,255)" fill-rule="nonzero" transform="matrix(-1,8.74228e-08,-8.74228e-08,-1,74.5972,53.1025)" />
		<path id="Vector" d="M31.6085 19.7779L31.6085 31.6988L0 31.6988L0 0L11.8306 0L11.8306 19.7779L31.6085 19.7779Z" fill="rgb(255,255,255)" fill-rule="nonzero" transform="matrix(-1,8.74228e-08,-8.74228e-08,-1,53.103,74.5967)" />
		<path id="Vector" d="M31.6988 19.7779L31.6988 31.6988L0 31.6988L0 0L11.9209 0L11.9209 19.7779L31.6988 19.7779Z" fill="rgb(255,255,255)" fill-rule="nonzero" transform="matrix(-1,8.74228e-08,-8.74228e-08,-1,31.6987,96)" />
	</g>
</svg>
