    <svg viewBox="0 0 116 159" xmlns="http://www.w3.org/2000/svg"
                xmlns:xlink="http://www.w3.org/1999/xlink" width="116.000000" height="159.000000" opacity="0.800000012"
                fill="none">
                <rect id="dots" width="159.000000" height="115.999992" x="0.000000" y="0.000000"
                    transform="matrix(-4.37114e-08,1,-1,-4.37114e-08,116,0)" />
                <g id="Group">
                    <path id="Vector"
                        d="M4.53668 2.25138C4.53668 3.53789 3.56454 4.50277 2.26834 4.50277C0.972147 4.50277 0 3.53789 0 2.25138C0 0.964877 0.972147 0 2.26834 0C3.56454 0 4.53668 1.07209 4.53668 2.25138Z"
                        fill="rgb(255,255,255)" fill-rule="nonzero"
                        transform="matrix(-4.37114e-08,1,-1,-4.37114e-08,84.1587,0)" />
                    <path id="Vector"
                        d="M4.53669 2.25138C4.53669 3.53789 3.56454 4.50277 2.26834 4.50277C0.972147 4.50277 0 3.53789 0 2.25138C0 0.964877 0.972147 0 2.26834 0C3.45652 3.80882e-15 4.53669 1.07209 4.53669 2.25138Z"
                        fill="rgb(255,255,255)" fill-rule="nonzero"
                        transform="matrix(-4.37114e-08,1,-1,-4.37114e-08,84.1587,19.3359)" />
                    <path id="Vector"
                        d="M4.53668 2.25138C4.53668 3.53789 3.56453 4.50277 2.26834 4.50277C0.972144 4.50277 0 3.53789 0 2.25138C0 0.964877 0.972144 0 2.26834 0C3.56453 3.80882e-15 4.53668 1.07209 4.53668 2.25138Z"
                        fill="rgb(255,255,255)" fill-rule="nonzero"
                        transform="matrix(-4.37114e-08,1,-1,-4.37114e-08,84.1587,38.5625)" />
                    <path id="Vector"
                        d="M4.5367 2.25138C4.5367 3.53789 3.56455 4.50277 2.26835 4.50277C0.972152 4.50277 0 3.53789 0 2.25138C0 0.964877 0.972152 0 2.26835 0C3.56455 0 4.5367 1.07209 4.5367 2.25138Z"
                        fill="rgb(255,255,255)" fill-rule="nonzero"
                        transform="matrix(-4.37114e-08,1,-1,-4.37114e-08,84.1587,57.8965)" />
                    <path id="Vector"
                        d="M4.53667 2.25138C4.53667 3.53789 3.56453 4.50277 2.26834 4.50277C0.972144 4.50277 0 3.53789 0 2.25138C0 0.964877 0.972144 0 2.26834 0C3.45651 3.80882e-15 4.53667 1.07209 4.53667 2.25138Z"
                        fill="rgb(255,255,255)" fill-rule="nonzero"
                        transform="matrix(-4.37114e-08,1,-1,-4.37114e-08,84.1587,77.2305)" />
                    <path id="Vector"
                        d="M4.53668 2.25138C4.53668 3.53789 3.56454 4.50277 2.26834 4.50277C0.972145 4.50277 0 3.53789 0 2.25138C0 0.964877 0.972145 0 2.26834 0C3.56454 0 4.53668 1.07209 4.53668 2.25138Z"
                        fill="rgb(255,255,255)" fill-rule="nonzero"
                        transform="matrix(-4.37114e-08,1,-1,-4.37114e-08,84.1587,96.5664)" />
                    <path id="Vector"
                        d="M4.53669 2.25138C4.53669 3.53789 3.56454 4.50277 2.26835 4.50277C0.972153 4.50277 0 3.53789 0 2.25138C0 0.964877 0.972153 0 2.26835 0C3.56454 0 4.53669 1.07209 4.53669 2.25138Z"
                        fill="rgb(255,255,255)" fill-rule="nonzero"
                        transform="matrix(-4.37114e-08,1,-1,-4.37114e-08,84.1587,115.793)" />
                    <path id="Vector"
                        d="M4.5367 2.25138C4.5367 3.53789 3.56454 4.50277 2.26834 4.50277C0.972147 4.50277 0 3.53789 0 2.25138C0 0.964877 0.972147 0 2.26834 0C3.56454 3.80882e-15 4.5367 1.07209 4.5367 2.25138Z"
                        fill="rgb(255,255,255)" fill-rule="nonzero"
                        transform="matrix(-4.37114e-08,1,-1,-4.37114e-08,84.1587,135.129)" />
                    <path id="Vector"
                        d="M4.53668 2.25138C4.53668 3.53789 3.56455 4.50277 2.26835 4.50277C0.972153 4.50277 0 3.53789 0 2.25138C0 0.964877 0.972153 0 2.26835 0C3.45653 3.80882e-15 4.53668 1.07209 4.53668 2.25138Z"
                        fill="rgb(255,255,255)" fill-rule="nonzero"
                        transform="matrix(-4.37114e-08,1,-1,-4.37114e-08,84.1587,154.463)" />
                    <path id="Vector"
                        d="M4.53668 2.25139C4.53668 3.5379 3.56454 4.50277 2.26834 4.50277C0.972147 4.50277 0 3.5379 0 2.25139C0 0.964882 0.972147 0 2.26834 0C3.56454 0 4.53668 0.964882 4.53668 2.25139Z"
                        fill="rgb(255,255,255)" fill-rule="nonzero"
                        transform="matrix(-4.37114e-08,1,-1,-4.37114e-08,68.1851,0)" />
                    <path id="Vector"
                        d="M4.53669 2.25139C4.53669 3.5379 3.56454 4.50277 2.26834 4.50277C0.972147 4.50277 0 3.5379 0 2.25139C0 0.964882 0.972147 0 2.26834 0C3.45652 0 4.53669 0.964882 4.53669 2.25139Z"
                        fill="rgb(255,255,255)" fill-rule="nonzero"
                        transform="matrix(-4.37114e-08,1,-1,-4.37114e-08,68.1851,19.3359)" />
                    <path id="Vector"
                        d="M4.53668 2.25139C4.53668 3.5379 3.56453 4.50277 2.26834 4.50277C0.972144 4.50277 0 3.5379 0 2.25139C0 0.964882 0.972144 0 2.26834 0C3.56453 0 4.53668 0.964882 4.53668 2.25139Z"
                        fill="rgb(255,255,255)" fill-rule="nonzero"
                        transform="matrix(-4.37114e-08,1,-1,-4.37114e-08,68.1851,38.5625)" />
                    <path id="Vector"
                        d="M4.5367 2.25139C4.5367 3.5379 3.56455 4.50277 2.26835 4.50277C0.972152 4.50277 0 3.5379 0 2.25139C0 0.964882 0.972152 0 2.26835 0C3.56455 0 4.5367 0.964882 4.5367 2.25139Z"
                        fill="rgb(255,255,255)" fill-rule="nonzero"
                        transform="matrix(-4.37114e-08,1,-1,-4.37114e-08,68.1851,57.8965)" />
                    <path id="Vector"
                        d="M4.53668 2.25139C4.53668 3.5379 3.56454 4.50277 2.26834 4.50277C0.972145 4.50277 0 3.5379 0 2.25139C0 0.964882 0.972145 0 2.26834 0C3.45652 0 4.53668 0.964882 4.53668 2.25139Z"
                        fill="rgb(255,255,255)" fill-rule="nonzero"
                        transform="matrix(-4.37114e-08,1,-1,-4.37114e-08,68.1851,77.2305)" />
                    <path id="Vector"
                        d="M4.53668 2.25139C4.53668 3.5379 3.56454 4.50277 2.26834 4.50277C0.972145 4.50277 0 3.5379 0 2.25139C0 0.964882 0.972145 0 2.26834 0C3.56454 0 4.53668 0.964882 4.53668 2.25139Z"
                        fill="rgb(255,255,255)" fill-rule="nonzero"
                        transform="matrix(-4.37114e-08,1,-1,-4.37114e-08,68.1851,96.5664)" />
                    <path id="Vector"
                        d="M4.5367 2.25139C4.5367 3.5379 3.56455 4.50277 2.26835 4.50277C0.972155 4.50277 0 3.5379 0 2.25139C0 0.964882 0.972155 0 2.26835 0C3.56455 0 4.5367 0.964882 4.5367 2.25139Z"
                        fill="rgb(255,255,255)" fill-rule="nonzero"
                        transform="matrix(-4.37114e-08,1,-1,-4.37114e-08,68.1851,115.793)" />
                    <path id="Vector"
                        d="M4.5367 2.25139C4.5367 3.5379 3.56454 4.50277 2.26834 4.50277C0.972147 4.50277 0 3.5379 0 2.25139C0 0.964882 0.972147 0 2.26834 0C3.56454 0 4.5367 0.964882 4.5367 2.25139Z"
                        fill="rgb(255,255,255)" fill-rule="nonzero"
                        transform="matrix(-4.37114e-08,1,-1,-4.37114e-08,68.1851,135.129)" />
                    <path id="Vector"
                        d="M4.53668 2.25139C4.53668 3.5379 3.56455 4.50277 2.26835 4.50277C0.972153 4.50277 0 3.5379 0 2.25139C0 0.964882 0.972153 0 2.26835 0C3.45653 0 4.53668 0.964882 4.53668 2.25139Z"
                        fill="rgb(255,255,255)" fill-rule="nonzero"
                        transform="matrix(-4.37114e-08,1,-1,-4.37114e-08,68.1851,154.463)" />
                    <path id="Vector"
                        d="M4.53668 2.25139C4.53668 3.53789 3.56454 4.50277 2.26834 4.50277C0.972147 4.50277 0 3.53789 0 2.25139C0 0.96488 0.972147 0 2.26834 0C3.56454 0 4.53668 0.96488 4.53668 2.25139Z"
                        fill="rgb(255,255,255)" fill-rule="nonzero"
                        transform="matrix(-4.37114e-08,1,-1,-4.37114e-08,116,0)" />
                    <path id="Vector"
                        d="M4.53668 2.25139C4.53668 3.53789 3.56454 4.50277 2.26834 4.50277C0.972147 4.50277 0 3.53789 0 2.25139C0 0.96488 0.972147 0 2.26834 0C3.45652 0 4.53668 0.96488 4.53668 2.25139Z"
                        fill="rgb(255,255,255)" fill-rule="nonzero"
                        transform="matrix(-4.37114e-08,1,-1,-4.37114e-08,116,19.3359)" />
                    <path id="Vector"
                        d="M4.53668 2.25139C4.53668 3.53789 3.56453 4.50277 2.26834 4.50277C0.972144 4.50277 0 3.53789 0 2.25139C0 0.96488 1.08016 0 2.26834 0C3.56453 0 4.53668 0.96488 4.53668 2.25139Z"
                        fill="rgb(255,255,255)" fill-rule="nonzero"
                        transform="matrix(-4.37114e-08,1,-1,-4.37114e-08,116,38.5625)" />
                    <path id="Vector"
                        d="M4.53669 2.25139C4.53669 3.53789 3.56454 4.50277 2.26835 4.50277C0.972149 4.50277 0 3.53789 0 2.25139C0 0.96488 1.08017 0 2.26835 0C3.45652 0 4.53669 0.96488 4.53669 2.25139Z"
                        fill="rgb(255,255,255)" fill-rule="nonzero"
                        transform="matrix(-4.37114e-08,1,-1,-4.37114e-08,116,57.8965)" />
                    <path id="Vector"
                        d="M4.53667 2.25139C4.53667 3.53789 3.56453 4.50277 2.26834 4.50277C0.972144 4.50277 0 3.53789 0 2.25139C0 0.96488 0.972144 0 2.26834 0C3.45651 0 4.53667 0.96488 4.53667 2.25139Z"
                        fill="rgb(255,255,255)" fill-rule="nonzero"
                        transform="matrix(-4.37114e-08,1,-1,-4.37114e-08,116,77.2305)" />
                    <path id="Vector"
                        d="M4.53668 2.25139C4.53668 3.53789 3.56454 4.50277 2.26834 4.50277C0.972145 4.50277 0 3.53789 0 2.25139C0 0.96488 0.972145 0 2.26834 0C3.56454 0 4.53668 0.96488 4.53668 2.25139Z"
                        fill="rgb(255,255,255)" fill-rule="nonzero"
                        transform="matrix(-4.37114e-08,1,-1,-4.37114e-08,116,96.5664)" />
                    <path id="Vector"
                        d="M4.53669 2.25139C4.53669 3.53789 3.56454 4.50277 2.26835 4.50277C0.972153 4.50277 0 3.53789 0 2.25139C0 0.96488 0.972153 0 2.26835 0C3.56454 0 4.53669 0.96488 4.53669 2.25139Z"
                        fill="rgb(255,255,255)" fill-rule="nonzero"
                        transform="matrix(-4.37114e-08,1,-1,-4.37114e-08,116,115.793)" />
                    <path id="Vector"
                        d="M4.5367 2.25139C4.5367 3.53789 3.56454 4.50277 2.26834 4.50277C0.972147 4.50277 0 3.53789 0 2.25139C0 0.96488 0.972147 0 2.26834 0C3.56454 0 4.5367 0.96488 4.5367 2.25139Z"
                        fill="rgb(255,255,255)" fill-rule="nonzero"
                        transform="matrix(-4.37114e-08,1,-1,-4.37114e-08,116,135.129)" />
                    <path id="Vector"
                        d="M4.53668 2.25139C4.53668 3.53789 3.56455 4.50277 2.26835 4.50277C0.972153 4.50277 0 3.53789 0 2.25139C0 0.96488 0.972153 0 2.26835 0C3.45653 0 4.53668 0.96488 4.53668 2.25139Z"
                        fill="rgb(255,255,255)" fill-rule="nonzero"
                        transform="matrix(-4.37114e-08,1,-1,-4.37114e-08,116,154.463)" />
                    <path id="Vector"
                        d="M4.53668 2.25139C4.53668 3.53789 3.56454 4.50277 2.26834 4.50277C0.972147 4.50277 0 3.43068 0 2.25139C0 0.96488 0.972147 0 2.26834 0C3.56454 0 4.53668 0.96488 4.53668 2.25139Z"
                        fill="rgb(255,255,255)" fill-rule="nonzero"
                        transform="matrix(-4.37114e-08,1,-1,-4.37114e-08,100.026,0)" />
                    <path id="Vector"
                        d="M4.53668 2.25139C4.53668 3.53789 3.56454 4.50277 2.26834 4.50277C0.972147 4.50277 0 3.53789 0 2.25139C0 0.96488 0.972147 0 2.26834 0C3.45652 0 4.53668 0.96488 4.53668 2.25139Z"
                        fill="rgb(255,255,255)" fill-rule="nonzero"
                        transform="matrix(-4.37114e-08,1,-1,-4.37114e-08,100.026,19.3359)" />
                    <path id="Vector"
                        d="M4.53668 2.25139C4.53668 3.53789 3.56453 4.50277 2.26834 4.50277C0.972144 4.50277 0 3.53789 0 2.25139C0 0.96488 0.972144 0 2.26834 0C3.56453 0 4.53668 0.96488 4.53668 2.25139Z"
                        fill="rgb(255,255,255)" fill-rule="nonzero"
                        transform="matrix(-4.37114e-08,1,-1,-4.37114e-08,100.026,38.5625)" />
                    <path id="Vector"
                        d="M4.53669 2.25139C4.53669 3.53789 3.56455 4.50277 2.26835 4.50277C0.972151 4.50277 0 3.53789 0 2.25139C0 0.96488 0.972151 0 2.26835 0C3.56455 0 4.53669 0.96488 4.53669 2.25139Z"
                        fill="rgb(255,255,255)" fill-rule="nonzero"
                        transform="matrix(-4.37114e-08,1,-1,-4.37114e-08,100.026,57.8965)" />
                    <path id="Vector"
                        d="M4.53667 2.25139C4.53667 3.53789 3.56453 4.50277 2.26834 4.50277C0.972144 4.50277 0 3.53789 0 2.25139C0 0.96488 0.972144 0 2.26834 0C3.45651 0 4.53667 0.96488 4.53667 2.25139Z"
                        fill="rgb(255,255,255)" fill-rule="nonzero"
                        transform="matrix(-4.37114e-08,1,-1,-4.37114e-08,100.026,77.2305)" />
                    <path id="Vector"
                        d="M4.53668 2.25139C4.53668 3.53789 3.56454 4.50277 2.26834 4.50277C0.972145 4.50277 0 3.53789 0 2.25139C0 0.96488 0.972145 0 2.26834 0C3.56454 0 4.53668 0.96488 4.53668 2.25139Z"
                        fill="rgb(255,255,255)" fill-rule="nonzero"
                        transform="matrix(-4.37114e-08,1,-1,-4.37114e-08,100.026,96.5664)" />
                    <path id="Vector"
                        d="M4.53669 2.25139C4.53669 3.53789 3.56454 4.50277 2.26835 4.50277C0.972153 4.50277 0 3.53789 0 2.25139C0 0.96488 0.972153 0 2.26835 0C3.56454 0 4.53669 0.96488 4.53669 2.25139Z"
                        fill="rgb(255,255,255)" fill-rule="nonzero"
                        transform="matrix(-4.37114e-08,1,-1,-4.37114e-08,100.026,115.793)" />
                    <path id="Vector"
                        d="M4.5367 2.25139C4.5367 3.53789 3.56454 4.50277 2.26834 4.50277C0.972147 4.50277 0 3.53789 0 2.25139C0 0.96488 0.972147 0 2.26834 0C3.56454 0 4.5367 0.96488 4.5367 2.25139Z"
                        fill="rgb(255,255,255)" fill-rule="nonzero"
                        transform="matrix(-4.37114e-08,1,-1,-4.37114e-08,100.026,135.129)" />
                    <path id="Vector"
                        d="M4.53668 2.25139C4.53668 3.53789 3.56455 4.50277 2.26835 4.50277C0.972153 4.50277 0 3.53789 0 2.25139C0 0.96488 0.972153 0 2.26835 0C3.45653 0 4.53668 0.96488 4.53668 2.25139Z"
                        fill="rgb(255,255,255)" fill-rule="nonzero"
                        transform="matrix(-4.37114e-08,1,-1,-4.37114e-08,100.026,154.463)" />
                    <path id="Vector"
                        d="M4.53668 2.25138C4.53668 3.53789 3.56454 4.50277 2.26834 4.50277C0.972147 4.50277 0 3.53789 0 2.25138C0 0.964878 0.972147 0 2.26834 0C3.56454 0 4.53668 1.07209 4.53668 2.25138Z"
                        fill="rgb(255,255,255)" fill-rule="nonzero"
                        transform="matrix(-4.37114e-08,1,-1,-4.37114e-08,52.3179,0)" />
                    <path id="Vector"
                        d="M4.53669 2.25138C4.53669 3.53789 3.56454 4.50277 2.26834 4.50277C0.972147 4.50277 0 3.53789 0 2.25138C0 0.964878 0.972147 0 2.26834 0C3.45652 0 4.53669 1.07209 4.53669 2.25138Z"
                        fill="rgb(255,255,255)" fill-rule="nonzero"
                        transform="matrix(-4.37114e-08,1,-1,-4.37114e-08,52.3179,19.3359)" />
                    <path id="Vector"
                        d="M4.53668 2.25138C4.53668 3.53789 3.56453 4.50277 2.26834 4.50277C0.972144 4.50277 0 3.53789 0 2.25138C0 0.964878 0.972144 0 2.26834 0C3.56453 0 4.53668 1.07209 4.53668 2.25138Z"
                        fill="rgb(255,255,255)" fill-rule="nonzero"
                        transform="matrix(-4.37114e-08,1,-1,-4.37114e-08,52.3179,38.5625)" />
                    <path id="Vector"
                        d="M4.5367 2.25138C4.5367 3.53789 3.56455 4.50277 2.26835 4.50277C0.972152 4.50277 0 3.53789 0 2.25138C0 0.964878 0.972152 0 2.26835 0C3.56455 0 4.5367 1.07209 4.5367 2.25138Z"
                        fill="rgb(255,255,255)" fill-rule="nonzero"
                        transform="matrix(-4.37114e-08,1,-1,-4.37114e-08,52.3179,57.8965)" />
                    <path id="Vector"
                        d="M4.53668 2.25138C4.53668 3.53789 3.56454 4.50277 2.26834 4.50277C0.972145 4.50277 0 3.53789 0 2.25138C0 0.964878 0.972145 0 2.26834 0C3.45652 0 4.53668 1.07209 4.53668 2.25138Z"
                        fill="rgb(255,255,255)" fill-rule="nonzero"
                        transform="matrix(-4.37114e-08,1,-1,-4.37114e-08,52.3179,77.2305)" />
                    <path id="Vector"
                        d="M4.53668 2.25138C4.53668 3.53789 3.56454 4.50277 2.26834 4.50277C0.972145 4.50277 0 3.53789 0 2.25138C0 0.964878 0.972145 0 2.26834 0C3.56454 0 4.53668 1.07209 4.53668 2.25138Z"
                        fill="rgb(255,255,255)" fill-rule="nonzero"
                        transform="matrix(-4.37114e-08,1,-1,-4.37114e-08,52.3179,96.5664)" />
                    <path id="Vector"
                        d="M4.53671 2.25138C4.53671 3.53789 3.56456 4.50277 2.26836 4.50277C0.972157 4.50277 0 3.53789 0 2.25138C0 0.964878 0.972157 0 2.26836 0C3.56456 0 4.53671 1.07209 4.53671 2.25138Z"
                        fill="rgb(255,255,255)" fill-rule="nonzero"
                        transform="matrix(-4.37114e-08,1,-1,-4.37114e-08,52.3179,115.793)" />
                    <path id="Vector"
                        d="M4.5367 2.25138C4.5367 3.53789 3.56454 4.50277 2.26834 4.50277C0.972147 4.50277 0 3.53789 0 2.25138C0 0.964878 0.972147 0 2.26834 0C3.56454 0 4.5367 1.07209 4.5367 2.25138Z"
                        fill="rgb(255,255,255)" fill-rule="nonzero"
                        transform="matrix(-4.37114e-08,1,-1,-4.37114e-08,52.3179,135.129)" />
                    <path id="Vector"
                        d="M4.53668 2.25138C4.53668 3.53789 3.56455 4.50277 2.26835 4.50277C0.972153 4.50277 0 3.53789 0 2.25138C0 0.964878 0.972153 0 2.26835 0C3.45653 0 4.53668 1.07209 4.53668 2.25138Z"
                        fill="rgb(255,255,255)" fill-rule="nonzero"
                        transform="matrix(-4.37114e-08,1,-1,-4.37114e-08,52.3179,154.463)" />
                    <path id="Vector"
                        d="M4.53668 2.25138C4.53668 3.53789 3.56454 4.50276 2.26834 4.50276C0.972147 4.50276 0 3.53789 0 2.25138C0 0.964877 0.972147 1.52353e-14 2.26834 1.52353e-14C3.56454 0 4.53668 0.964877 4.53668 2.25138Z"
                        fill="rgb(255,255,255)" fill-rule="nonzero"
                        transform="matrix(-4.37114e-08,1,-1,-4.37114e-08,36.3438,0)" />
                    <path id="Vector"
                        d="M4.53668 2.25138C4.53668 3.53789 3.56454 4.50276 2.26834 4.50276C0.972147 4.50276 0 3.53789 0 2.25138C0 0.964877 0.972147 1.52353e-14 2.26834 1.52353e-14C3.45652 0 4.53668 0.964877 4.53668 2.25138Z"
                        fill="rgb(255,255,255)" fill-rule="nonzero"
                        transform="matrix(-4.37114e-08,1,-1,-4.37114e-08,36.3438,19.3359)" />
                    <path id="Vector"
                        d="M4.53668 2.25138C4.53668 3.53789 3.56453 4.50276 2.26834 4.50276C0.972144 4.50276 0 3.53789 0 2.25138C0 0.964877 0.972144 1.52353e-14 2.26834 1.52353e-14C3.56453 0 4.53668 0.964877 4.53668 2.25138Z"
                        fill="rgb(255,255,255)" fill-rule="nonzero"
                        transform="matrix(-4.37114e-08,1,-1,-4.37114e-08,36.3438,38.5625)" />
                    <path id="Vector"
                        d="M2.26835 4.50276C3.52113 4.50276 4.5367 3.49479 4.5367 2.25138C4.5367 1.00798 3.52113 0 2.26835 0C1.01558 0 0 1.00798 0 2.25138C0 3.49479 1.01558 4.50276 2.26835 4.50276Z"
                        fill="rgb(255,255,255)" fill-rule="evenodd"
                        transform="matrix(-4.37114e-08,1,-1,-4.37114e-08,36.3438,57.8965)" />
                    <path id="Vector"
                        d="M4.53668 2.25138C4.53668 3.53789 3.56454 4.50276 2.26834 4.50276C0.972145 4.50276 0 3.53789 0 2.25138C0 0.964877 0.972145 1.52353e-14 2.26834 1.52353e-14C3.45652 0 4.53668 0.964877 4.53668 2.25138Z"
                        fill="rgb(255,255,255)" fill-rule="nonzero"
                        transform="matrix(-4.37114e-08,1,-1,-4.37114e-08,36.3438,77.2305)" />
                    <path id="Vector"
                        d="M4.53667 2.25138C4.53667 3.53789 3.56453 4.50276 2.26834 4.50276C0.972144 4.50276 0 3.53789 0 2.25138C0 0.964877 0.972144 0 2.26834 0C3.56453 0 4.53667 0.964877 4.53667 2.25138Z"
                        fill="rgb(255,255,255)" fill-rule="nonzero"
                        transform="matrix(-4.37114e-08,1,-1,-4.37114e-08,36.3438,96.5664)" />
                    <path id="Vector"
                        d="M4.53671 2.25138C4.53671 3.53789 3.56456 4.50276 2.26836 4.50276C0.972157 4.50276 0 3.53789 0 2.25138C0 0.964877 0.972157 0 2.26836 0C3.56456 0 4.53671 0.964877 4.53671 2.25138Z"
                        fill="rgb(255,255,255)" fill-rule="nonzero"
                        transform="matrix(-4.37114e-08,1,-1,-4.37114e-08,36.3438,115.793)" />
                    <path id="Vector"
                        d="M2.26834 4.50276C3.52112 4.50276 4.5367 3.49479 4.5367 2.25138C4.5367 1.00798 3.52112 0 2.26834 0C1.01557 0 0 1.00798 0 2.25138C0 3.49479 1.01557 4.50276 2.26834 4.50276Z"
                        fill="rgb(255,255,255)" fill-rule="evenodd"
                        transform="matrix(-4.37114e-08,1,-1,-4.37114e-08,36.3438,135.129)" />
                    <path id="Vector"
                        d="M4.53668 2.25138C4.53668 3.53789 3.56455 4.50276 2.26835 4.50276C0.972153 4.50276 0 3.53789 0 2.25138C0 0.964877 0.972153 1.52353e-14 2.26835 1.52353e-14C3.45653 0 4.53668 0.964877 4.53668 2.25138Z"
                        fill="rgb(255,255,255)" fill-rule="nonzero"
                        transform="matrix(-4.37114e-08,1,-1,-4.37114e-08,36.3438,154.463)" />
                    <path id="Vector"
                        d="M4.53668 2.25139C4.53668 3.5379 3.56454 4.50278 2.26834 4.50278C0.972147 4.50278 0 3.5379 0 2.25139C0 0.964886 0.972147 0 2.26834 0C3.56454 0 4.53668 0.964886 4.53668 2.25139Z"
                        fill="rgb(255,255,255)" fill-rule="nonzero"
                        transform="matrix(-4.37114e-08,1,-1,-4.37114e-08,20.3696,0)" />
                    <path id="Vector"
                        d="M4.53669 2.25139C4.53669 3.5379 3.56454 4.50278 2.26834 4.50278C0.972147 4.50278 0 3.5379 0 2.25139C0 0.964886 0.972147 0 2.26834 0C3.45652 0 4.53669 0.964886 4.53669 2.25139Z"
                        fill="rgb(255,255,255)" fill-rule="nonzero"
                        transform="matrix(-4.37114e-08,1,-1,-4.37114e-08,20.3696,19.3359)" />
                    <path id="Vector"
                        d="M4.53668 2.25139C4.53668 3.5379 3.56453 4.50278 2.26834 4.50278C0.972144 4.50278 0 3.5379 0 2.25139C0 0.964886 0.972144 0 2.26834 0C3.56453 0 4.53668 0.964886 4.53668 2.25139Z"
                        fill="rgb(255,255,255)" fill-rule="nonzero"
                        transform="matrix(-4.37114e-08,1,-1,-4.37114e-08,20.3696,38.5625)" />
                    <path id="Vector"
                        d="M4.5367 2.25139C4.5367 3.5379 3.56455 4.50278 2.26835 4.50278C0.972152 4.50278 0 3.5379 0 2.25139C0 0.964886 0.972152 0 2.26835 0C3.56455 0 4.5367 0.964886 4.5367 2.25139Z"
                        fill="rgb(255,255,255)" fill-rule="nonzero"
                        transform="matrix(-4.37114e-08,1,-1,-4.37114e-08,20.3696,57.8965)" />
                    <path id="Vector"
                        d="M4.53668 2.25139C4.53668 3.5379 3.56454 4.50278 2.26834 4.50278C0.972145 4.50278 0 3.5379 0 2.25139C0 0.964886 0.972145 0 2.26834 0C3.45652 0 4.53668 0.964886 4.53668 2.25139Z"
                        fill="rgb(255,255,255)" fill-rule="nonzero"
                        transform="matrix(-4.37114e-08,1,-1,-4.37114e-08,20.3696,77.2305)" />
                    <path id="Vector"
                        d="M4.53667 2.25139C4.53667 3.5379 3.56453 4.50278 2.26834 4.50278C0.972144 4.50278 0 3.5379 0 2.25139C0 0.964886 0.972144 0 2.26834 0C3.56453 0 4.53667 0.964886 4.53667 2.25139Z"
                        fill="rgb(255,255,255)" fill-rule="nonzero"
                        transform="matrix(-4.37114e-08,1,-1,-4.37114e-08,20.3696,96.5664)" />
                    <path id="Vector"
                        d="M4.53671 2.25139C4.53671 3.5379 3.56456 4.50278 2.26836 4.50278C0.972157 4.50278 0 3.5379 0 2.25139C0 0.964886 0.972157 0 2.26836 0C3.56456 0 4.53671 0.964886 4.53671 2.25139Z"
                        fill="rgb(255,255,255)" fill-rule="nonzero"
                        transform="matrix(-4.37114e-08,1,-1,-4.37114e-08,20.3696,115.793)" />
                    <path id="Vector"
                        d="M4.5367 2.25139C4.5367 3.5379 3.56454 4.50278 2.26834 4.50278C0.972147 4.50278 0 3.5379 0 2.25139C0 0.964886 0.972147 0 2.26834 0C3.56454 0 4.5367 0.964886 4.5367 2.25139Z"
                        fill="rgb(255,255,255)" fill-rule="nonzero"
                        transform="matrix(-4.37114e-08,1,-1,-4.37114e-08,20.3696,135.129)" />
                    <path id="Vector"
                        d="M4.53668 2.25139C4.53668 3.5379 3.56455 4.50278 2.26835 4.50278C0.972153 4.50278 0 3.5379 0 2.25139C0 0.964886 0.972153 0 2.26835 0C3.45653 0 4.53668 0.964886 4.53668 2.25139Z"
                        fill="rgb(255,255,255)" fill-rule="nonzero"
                        transform="matrix(-4.37114e-08,1,-1,-4.37114e-08,20.3696,154.463)" />
                    <path id="Vector"
                        d="M4.53668 2.25139C4.53668 3.5379 3.56454 4.50278 2.26834 4.50278C0.972147 4.50278 0 3.5379 0 2.25139C0 0.96488 0.972147 0 2.26834 0C3.56454 0 4.53668 1.07209 4.53668 2.25139Z"
                        fill="rgb(255,255,255)" fill-rule="nonzero"
                        transform="matrix(-4.37114e-08,1,-1,-4.37114e-08,4.50293,0)" />
                    <path id="Vector"
                        d="M4.53669 2.25139C4.53669 3.5379 3.56454 4.50278 2.26834 4.50278C0.972147 4.50278 0 3.5379 0 2.25139C0 0.96488 0.972147 0 2.26834 0C3.45652 0 4.53669 1.07209 4.53669 2.25139Z"
                        fill="rgb(255,255,255)" fill-rule="nonzero"
                        transform="matrix(-4.37114e-08,1,-1,-4.37114e-08,4.50293,19.3359)" />
                    <path id="Vector"
                        d="M4.53668 2.25139C4.53668 3.5379 3.56453 4.50278 2.26834 4.50278C0.972144 4.50278 0 3.5379 0 2.25139C0 0.96488 0.972144 0 2.26834 0C3.56453 0 4.53668 1.07209 4.53668 2.25139Z"
                        fill="rgb(255,255,255)" fill-rule="nonzero"
                        transform="matrix(-4.37114e-08,1,-1,-4.37114e-08,4.50293,38.5625)" />
                    <path id="Vector"
                        d="M4.5367 2.25139C4.5367 3.5379 3.56455 4.50278 2.26835 4.50278C0.972152 4.50278 0 3.5379 0 2.25139C0 0.96488 0.972152 0 2.26835 0C3.56455 0 4.5367 1.07209 4.5367 2.25139Z"
                        fill="rgb(255,255,255)" fill-rule="nonzero"
                        transform="matrix(-4.37114e-08,1,-1,-4.37114e-08,4.50293,57.8965)" />
                    <path id="Vector"
                        d="M4.53668 2.25139C4.53668 3.5379 3.56454 4.50278 2.26834 4.50278C0.972145 4.50278 0 3.5379 0 2.25139C0 0.964881 0.972145 0 2.26834 0C3.45652 0 4.53668 1.07209 4.53668 2.25139Z"
                        fill="rgb(255,255,255)" fill-rule="nonzero"
                        transform="matrix(-4.37114e-08,1,-1,-4.37114e-08,4.50293,77.2305)" />
                    <path id="Vector"
                        d="M4.53667 2.25139C4.53667 3.5379 3.56453 4.50278 2.26834 4.50278C0.972144 4.50278 0 3.5379 0 2.25139C0 0.964881 0.972144 0 2.26834 0C3.56453 0 4.53667 1.07209 4.53667 2.25139Z"
                        fill="rgb(255,255,255)" fill-rule="nonzero"
                        transform="matrix(-4.37114e-08,1,-1,-4.37114e-08,4.50293,96.5664)" />
                    <path id="Vector"
                        d="M4.53671 2.25139C4.53671 3.5379 3.56456 4.50278 2.26836 4.50278C0.972157 4.50278 0 3.5379 0 2.25139C0 0.964881 0.972157 0 2.26836 0C3.56456 0 4.53671 1.07209 4.53671 2.25139Z"
                        fill="rgb(255,255,255)" fill-rule="nonzero"
                        transform="matrix(-4.37114e-08,1,-1,-4.37114e-08,4.50293,115.793)" />
                    <path id="Vector"
                        d="M4.5367 2.25139C4.5367 3.5379 3.56454 4.50278 2.26834 4.50278C0.972147 4.50278 0 3.5379 0 2.25139C0 0.964881 0.972147 0 2.26834 0C3.56454 0 4.5367 1.07209 4.5367 2.25139Z"
                        fill="rgb(255,255,255)" fill-rule="nonzero"
                        transform="matrix(-4.37114e-08,1,-1,-4.37114e-08,4.50293,135.129)" />
                    <path id="Vector"
                        d="M4.53668 2.25139C4.53668 3.5379 3.56455 4.50278 2.26835 4.50278C0.972153 4.50278 0 3.5379 0 2.25139C0 0.964881 0.972153 0 2.26835 0C3.45653 0 4.53668 1.07209 4.53668 2.25139Z"
                        fill="rgb(255,255,255)" fill-rule="nonzero"
                        transform="matrix(-4.37114e-08,1,-1,-4.37114e-08,4.50293,154.463)" />
                </g>
            </svg>