<svg viewBox="0 0 284.195 284.195" xmlns="http://www.w3.org/2000/svg" xmlns:xlink="http://www.w3.org/1999/xlink" width="284.194824" height="284.195312" fill="none" customFrame="#000000">
	<g id="Group">
		<path id="Vector" d="M142.097 0C63.5443 0 0 63.5443 0 142.097C0 220.456 63.5443 284.195 142.097 284.195C220.456 284.195 284.195 220.651 284.195 142.097C284 63.5443 220.456 0 142.097 0ZM142.097 275.034C68.6122 275.034 9.16129 215.583 9.16129 142.097C9.16129 68.6122 68.6122 9.16129 142.097 9.16129C215.583 9.16129 275.034 68.6122 275.034 142.097C275.034 215.388 215.388 275.034 142.097 275.034Z" fill="rgb(255,255,255)" fill-rule="nonzero" />
		<path id="Vector" d="M142.099 30.6016C80.6986 30.6016 30.7988 80.5014 30.7988 141.901C30.7988 203.302 80.6986 253.201 142.099 253.201C203.499 253.201 253.399 203.497 253.399 142.096C253.399 80.5014 203.499 30.6016 142.099 30.6016ZM142.099 236.243C90.0548 236.243 47.757 193.945 47.757 141.901C47.757 89.8576 90.0548 47.5597 142.099 47.5597C194.143 47.5597 236.441 89.8576 236.441 141.901C236.441 193.945 194.143 236.243 142.099 236.243Z" fill="rgb(255,255,255)" fill-rule="nonzero" />
		<path id="Vector" d="M142.098 79.5273C107.597 79.5273 79.5283 107.596 79.5283 142.097C79.5283 176.598 107.402 204.667 142.098 204.667C176.599 204.667 204.668 176.598 204.668 142.097C204.473 107.596 176.599 79.5273 142.098 79.5273ZM142.098 175.623C123.58 175.623 108.572 160.614 108.572 142.097C108.572 123.579 123.58 108.571 142.098 108.571C160.616 108.571 175.624 123.579 175.624 142.097C175.624 160.614 160.616 175.623 142.098 175.623Z" fill="rgb(255,255,255)" fill-rule="nonzero" />
	</g>
</svg>
