<svg viewBox="0 0 600 440" xmlns="http://www.w3.org/2000/svg" xmlns:xlink="http://www.w3.org/1999/xlink" width="600.000000" height="440.000000" fill="none">
	<rect id="illustration" width="600.000000" height="440.000000" x="0.000000" y="0.000000" />
	<path id="FLOOR" d="M600 419.861L0 419.861L107.705 356.188L493.943 356.188L600 419.861Z" fill="rgb(208,240,228)" fill-rule="nonzero" />
	<g id="LAPTOP">
		<g id="Group">
			<path id="Vector" d="M344.008 108.578L236.062 108.578L236.062 46.0903C236.062 41.8594 239.488 38.4297 243.714 38.4297L336.355 38.4297C340.582 38.4297 344.008 41.8594 344.008 46.0903L344.008 108.578Z" fill="rgb(255,255,255)" fill-rule="nonzero" />
			<path id="Vector (Stroke)" d="M243.714 38.9108C239.753 38.9108 236.543 42.1252 236.543 46.0907L236.543 108.097L343.528 108.097L343.528 46.0907C343.528 42.1252 340.317 38.9108 336.356 38.9108L243.714 38.9108ZM344.008 108.578L344.488 108.578L344.488 46.0907C344.488 41.5941 340.847 37.9492 336.356 37.9492L243.714 37.9492C239.223 37.9492 235.582 41.5941 235.582 46.0907L235.582 109.059L344.008 109.059L344.008 108.578Z" fill="rgb(102,176,240)" fill-rule="evenodd" />
			<path id="Vector" d="M335.86 104.507L244.659 104.507C242.258 104.507 240.305 102.552 240.305 100.148L240.305 46.5877C240.305 44.1838 242.258 42.2285 244.659 42.2285L335.86 42.2285C338.261 42.2285 340.214 44.1838 340.214 46.5877L340.214 100.164C340.214 102.568 338.261 104.507 335.86 104.507Z" fill="rgb(102,176,240)" fill-rule="nonzero" />
			<path id="Vector" d="M362.931 123.242C367.061 125.934 366.1 131.207 361.218 131.207L214.163 131.207C210.049 131.207 208.64 125.646 212.675 123.098L362.931 123.242Z" fill="rgb(102,176,240)" fill-rule="nonzero" />
			<path id="Vector (Stroke)" d="M212.535 122.617L363.072 122.762L363.192 122.839C365.39 124.273 366.304 126.448 365.924 128.33C365.538 130.241 363.852 131.688 361.217 131.688L214.162 131.688C211.852 131.688 210.296 130.112 209.892 128.208C209.488 126.302 210.23 124.073 212.417 122.691L212.535 122.617ZM212.815 123.579C211.059 124.748 210.518 126.528 210.832 128.009C211.153 129.522 212.358 130.727 214.162 130.727L361.217 130.727C363.464 130.727 364.7 129.538 364.982 128.139C365.265 126.741 364.626 124.978 362.784 123.723L212.815 123.579Z" fill="rgb(102,176,240)" fill-rule="evenodd" />
			<path id="Vector" d="M361.216 127.537L214.162 127.537C211.536 127.537 210.496 124.444 212.673 123.098L236.094 108.578L343.703 108.578L362.913 123.242C364.834 124.701 363.714 127.537 361.216 127.537Z" fill="rgb(255,255,255)" fill-rule="nonzero" />
			<path id="Vector (Stroke)" d="M235.958 108.098L343.866 108.098L363.204 122.86C364.343 123.724 364.597 125.03 364.169 126.114C363.744 127.19 362.661 128.019 361.217 128.019L214.162 128.019C212.644 128.019 211.544 127.114 211.162 125.976C210.777 124.831 211.136 123.485 212.421 122.69L212.421 122.689M212.421 122.689L235.958 108.098M236.231 109.059L212.927 123.507L212.926 123.508C212.034 124.059 211.825 124.932 212.072 125.67C212.323 126.415 213.056 127.057 214.162 127.057L361.217 127.057C362.27 127.057 362.997 126.467 363.276 125.76C363.552 125.061 363.406 124.219 362.624 123.626L343.541 109.059L236.231 109.059Z" fill="rgb(102,176,240)" fill-rule="evenodd" />
			<g id="Group">
				<path id="Vector" d="M344.248 123.162L231.132 123.162C229.115 123.162 228.314 120.774 229.979 119.749L246.244 108.578L330.769 108.578L345.545 119.861C347.034 120.983 346.169 123.162 344.248 123.162Z" fill="rgb(255,255,255)" fill-rule="nonzero" />
				<path id="Vector (Stroke)" d="M246.095 108.098L330.931 108.098L345.833 119.477C345.834 119.477 345.834 119.478 345.835 119.478C346.757 120.174 346.968 121.23 346.622 122.109C346.278 122.98 345.403 123.643 344.248 123.643L231.132 123.643C229.916 123.643 229.029 122.914 228.719 121.994C228.408 121.07 228.693 119.983 229.717 119.346L246.095 108.098ZM246.393 109.059L230.241 120.152L230.231 120.158C229.598 120.548 229.453 121.164 229.63 121.687C229.808 122.217 230.33 122.682 231.132 122.682L344.248 122.682C345.014 122.682 345.531 122.255 345.728 121.756C345.922 121.265 345.821 120.672 345.256 120.245L345.254 120.244L345.253 120.243L330.606 109.059L246.393 109.059Z" fill="rgb(102,176,240)" fill-rule="evenodd" />
				<g id="Group">
					<path id="Vector (Stroke)" d="M337.908 123.506L323.116 108.921L323.79 108.236L338.582 122.82L337.908 123.506Z" fill="rgb(102,176,240)" fill-rule="evenodd" />
					<path id="Vector (Stroke)" d="M328.281 123.483L315.25 108.899L315.966 108.258L328.997 122.842L328.281 123.483Z" fill="rgb(102,176,240)" fill-rule="evenodd" />
					<path id="Vector (Stroke)" d="M319.2 123.457L307.897 108.873L308.656 108.283L319.958 122.867L319.2 123.457Z" fill="rgb(102,176,240)" fill-rule="evenodd" />
					<path id="Vector (Stroke)" d="M309.236 123.426L299.679 108.842L300.482 108.314L310.039 122.899L309.236 123.426Z" fill="rgb(102,176,240)" fill-rule="evenodd" />
					<path id="Vector (Stroke)" d="M297.478 123.309L292.819 108.725L293.734 108.432L298.393 123.016L297.478 123.309Z" fill="rgb(102,176,240)" fill-rule="evenodd" />
				</g>
				<g id="Group">
					<path id="Vector (Stroke)" d="M237.982 122.82L252.774 108.236L253.448 108.921L238.656 123.506L237.982 122.82Z" fill="rgb(102,176,240)" fill-rule="evenodd" />
					<path id="Vector (Stroke)" d="M247.567 122.842L260.598 108.258L261.314 108.899L248.283 123.483L247.567 122.842Z" fill="rgb(102,176,240)" fill-rule="evenodd" />
					<path id="Vector (Stroke)" d="M256.606 122.867L267.908 108.283L268.667 108.873L257.365 123.457L256.606 122.867Z" fill="rgb(102,176,240)" fill-rule="evenodd" />
					<path id="Vector (Stroke)" d="M266.525 122.899L276.082 108.314L276.885 108.842L267.328 123.426L266.525 122.899Z" fill="rgb(102,176,240)" fill-rule="evenodd" />
					<path id="Vector (Stroke)" d="M278.171 123.016L282.83 108.432L283.745 108.725L279.086 123.309L278.171 123.016Z" fill="rgb(102,176,240)" fill-rule="evenodd" />
				</g>
				<path id="Vector (Stroke)" d="M288.378 108.578L288.378 123.339L287.417 123.339L287.417 108.578L288.378 108.578Z" fill="rgb(102,176,240)" fill-rule="evenodd" />
				<path id="Vector (Stroke)" d="M337.924 114.508L238.319 114.508L238.319 113.547L337.924 113.547L337.924 114.508Z" fill="rgb(102,176,240)" fill-rule="evenodd" />
			</g>
		</g>
		<g id="Group">
			<g id="SHIRT">
				<path id="Vector" d="M328.271 104.507L247.284 104.507L248.741 94.1696C249.637 87.8071 254.2 82.5825 260.363 80.8196L280.102 76.7168L295.454 76.7168L315.192 80.8196C321.372 82.5665 325.934 87.8071 326.815 94.1696L328.271 104.507Z" fill="rgb(255,207,45)" fill-rule="nonzero" />
				<g id="Group">
					<g id="Group">
						<path id="Vector" d="M293.244 88.5289L287.401 82.6152C287.273 82.487 287.273 82.2786 287.401 82.1664C287.529 82.0382 287.737 82.0382 287.849 82.1664L293.212 87.5994L301.537 78.1598C301.649 78.0316 301.857 78.0156 301.985 78.1278C302.113 78.2399 302.129 78.4483 302.017 78.5765L293.244 88.5289Z" fill="rgb(255,255,255)" fill-rule="nonzero" />
					</g>
					<g id="Group">
						<path id="Vector" d="M282.39 88.5285L273.618 78.5761C273.505 78.4479 273.505 78.2396 273.65 78.1274C273.778 78.0152 273.986 78.0152 274.098 78.1594L282.422 87.599L287.785 82.1661C287.913 82.0378 288.105 82.0378 288.233 82.1661C288.361 82.2943 288.361 82.4866 288.233 82.6148L282.39 88.5285Z" fill="rgb(255,255,255)" fill-rule="nonzero" />
					</g>
					<g id="Group">
						<path id="Vector" d="M287.914 92.3902C287.145 92.3902 286.521 91.7651 286.521 90.9959C286.521 90.2266 287.145 89.6016 287.914 89.6016C288.682 89.6016 289.306 90.2266 289.306 90.9959C289.306 91.7651 288.682 92.3902 287.914 92.3902ZM287.914 90.2426C287.497 90.2426 287.161 90.5792 287.161 90.9959C287.161 91.4125 287.497 91.7491 287.914 91.7491C288.33 91.7491 288.666 91.4125 288.666 90.9959C288.666 90.5792 288.33 90.2426 287.914 90.2426Z" fill="rgb(255,255,255)" fill-rule="nonzero" />
					</g>
					<g id="Group">
						<path id="Vector" d="M287.914 100.244C287.145 100.244 286.521 99.6187 286.521 98.8494C286.521 98.0801 287.145 97.4551 287.914 97.4551C288.682 97.4551 289.306 98.0801 289.306 98.8494C289.306 99.6187 288.682 100.244 287.914 100.244ZM287.914 98.0961C287.497 98.0961 287.161 98.4327 287.161 98.8494C287.161 99.2661 287.497 99.6026 287.914 99.6026C288.33 99.6026 288.666 99.2661 288.666 98.8494C288.666 98.4327 288.33 98.0961 287.914 98.0961Z" fill="rgb(255,255,255)" fill-rule="nonzero" />
					</g>
				</g>
			</g>
			<g id="HAND 1">
				<path id="Vector" d="M280.006 104.17L253.848 104.17L246.869 83.432L273.027 75.9316L280.006 104.17Z" fill="rgb(255,255,255)" fill-rule="nonzero" />
				<path id="Vector (Stroke)" d="M273.256 75.5312L280.414 104.49L253.617 104.49L246.457 83.2156L273.256 75.5312ZM247.278 83.647L254.077 103.849L279.596 103.849L272.794 76.3306L247.278 83.647Z" fill="rgb(102,176,240)" fill-rule="evenodd" />
				<g id="Group">
					<path id="Vector" d="M255.208 86.1243L254.712 86.1243C253.447 86.1243 252.422 85.0986 252.422 83.8325L252.422 76.6366C252.422 76.1237 252.839 75.707 253.351 75.707L255.512 75.707C256.024 75.707 256.44 76.1237 256.44 76.6366L256.44 84.8742C256.456 85.5633 255.896 86.1243 255.208 86.1243Z" fill="rgb(255,255,255)" fill-rule="nonzero" />
					<path id="Vector (Stroke)" d="M253.351 76.0278C253.015 76.0278 252.742 76.301 252.742 76.6368L252.742 83.8327C252.742 84.9218 253.624 85.8039 254.711 85.8039L255.208 85.8039C255.721 85.8039 256.132 85.3867 256.12 84.8819L256.12 84.8781L256.12 76.6368C256.12 76.3009 255.847 76.0278 255.512 76.0278L253.351 76.0278ZM252.102 76.6368C252.102 75.9469 252.662 75.3867 253.351 75.3867L255.512 75.3867C256.201 75.3867 256.76 75.9469 256.76 76.6368L256.76 84.8709C256.779 85.7425 256.07 86.445 255.208 86.445L254.711 86.445C253.27 86.445 252.102 85.2758 252.102 83.8327L252.102 76.6368Z" fill="rgb(102,176,240)" fill-rule="evenodd" />
					<path id="Vector" d="M265.742 86.1243L266.238 86.1243C267.503 86.1243 268.527 85.0986 268.527 83.8325L268.527 76.6366C268.527 76.1237 268.111 75.707 267.599 75.707L265.422 75.707C264.909 75.707 264.493 76.1237 264.493 76.6366L264.493 84.8742C264.493 85.5633 265.053 86.1243 265.742 86.1243Z" fill="rgb(255,255,255)" fill-rule="nonzero" />
					<path id="Vector" d="M259.226 86.9572L258.073 86.9572C257.177 86.9572 256.457 86.2361 256.457 85.3386L256.457 76.6522C256.457 76.1393 256.873 75.7227 257.385 75.7227L259.546 75.7227C260.058 75.7227 260.475 76.1393 260.475 76.6522L260.475 85.7072C260.475 86.3963 259.914 86.9572 259.226 86.9572Z" fill="rgb(255,255,255)" fill-rule="nonzero" />
					<path id="Vector" d="M263.26 87.2782L262.3 87.2782C261.291 87.2782 260.475 86.4608 260.475 85.4511L260.475 76.6366C260.475 76.1237 260.891 75.707 261.403 75.707L263.564 75.707C264.076 75.707 264.493 76.1237 264.493 76.6366L264.493 86.0281C264.493 86.7172 263.932 87.2782 263.26 87.2782Z" fill="rgb(255,255,255)" fill-rule="nonzero" />
					<path id="Vector (Stroke)" d="M264.172 76.6368C264.172 75.9469 264.732 75.3867 265.421 75.3867L267.598 75.3867C268.287 75.3867 268.847 75.9469 268.847 76.6368L268.847 83.8327C268.847 85.2758 267.679 86.445 266.237 86.445L265.741 86.445C264.876 86.445 264.172 85.7406 264.172 84.8744L264.172 76.6368ZM265.421 76.0278C265.086 76.0278 264.813 76.301 264.813 76.6368L264.813 84.8744C264.813 85.3865 265.23 85.8039 265.741 85.8039L266.237 85.8039C267.325 85.8039 268.206 84.9218 268.206 83.8327L268.206 76.6368C268.206 76.3009 267.934 76.0278 267.598 76.0278L265.421 76.0278Z" fill="rgb(102,176,240)" fill-rule="evenodd" />
					<path id="Vector (Stroke)" d="M257.385 76.0434C257.049 76.0434 256.777 76.3166 256.777 76.6524L256.777 85.3388C256.777 86.0592 257.354 86.6369 258.073 86.6369L259.226 86.6369C259.737 86.6369 260.154 86.2195 260.154 85.7074L260.154 76.6524C260.154 76.3166 259.882 76.0434 259.546 76.0434L257.385 76.0434ZM256.136 76.6524C256.136 75.9625 256.696 75.4023 257.385 75.4023L259.546 75.4023C260.235 75.4023 260.795 75.9625 260.795 76.6524L260.795 85.7074C260.795 86.5736 260.091 87.278 259.226 87.278L258.073 87.278C257 87.278 256.136 86.4133 256.136 85.3388L256.136 76.6524Z" fill="rgb(102,176,240)" fill-rule="evenodd" />
					<path id="Vector (Stroke)" d="M261.404 76.0278C261.068 76.0278 260.796 76.3009 260.796 76.6368L260.796 85.4514C260.796 86.284 261.469 86.9578 262.3 86.9578L263.261 86.9578C263.754 86.9578 264.173 86.5431 264.173 86.0283L264.173 76.6368C264.173 76.301 263.901 76.0278 263.565 76.0278L261.404 76.0278ZM260.155 76.6368C260.155 75.9469 260.715 75.3867 261.404 75.3867L263.565 75.3867C264.254 75.3867 264.814 75.9469 264.814 76.6368L264.814 86.0283C264.814 86.8918 264.113 87.5989 263.261 87.5989L262.3 87.5989C261.115 87.5989 260.155 86.638 260.155 85.4514L260.155 76.6368Z" fill="rgb(102,176,240)" fill-rule="evenodd" />
				</g>
			</g>
			<g id="HEAD 5">
				<g id="NECK 2">
					<path id="Vector" d="M295.47 67.293L295.47 78.9923C295.47 81.0116 292.028 82.6624 287.786 82.6624C283.543 82.6624 280.102 81.0116 280.102 78.9923L280.102 67.293L295.47 67.293Z" fill="rgb(255,255,255)" fill-rule="nonzero" />
					<path id="Vector" d="M295.468 67.293C295.468 76.1236 289.817 78.7519 284.39 78.2872C284.374 78.2872 284.358 78.2872 284.342 78.2872C281.941 78.0628 280.116 76.0114 280.116 73.6074L280.116 67.309L295.468 67.309L295.468 67.293Z" fill="rgb(102,176,240)" fill-rule="nonzero" />
				</g>
				<path id="HEAD 4" d="M299.04 64.2805L299.04 64.8735C299.04 66.1876 297.983 67.2454 296.671 67.2454L295.454 67.2454L295.47 67.5178C295.47 71.3001 292.412 74.3612 288.634 74.3612L286.953 74.3612C283.175 74.3612 280.118 71.3001 280.118 67.5178L280.134 67.2454L278.917 67.2454C277.604 67.2454 276.548 66.1876 276.548 64.8735L276.548 64.2805C276.548 62.9663 277.604 61.9086 278.917 61.9086L280.47 61.9086L280.646 59.0078C280.646 58.559 280.71 58.1263 280.838 57.7257C285.417 58.8635 290.779 55.9147 292.22 55.0332C293.821 55.6422 294.958 57.1808 294.958 58.9917L295.134 61.8925L296.687 61.8925C297.983 61.9086 299.04 62.9663 299.04 64.2805Z" fill="rgb(255,255,255)" fill-rule="nonzero" />
				<path id="HAIR 2" d="M296.782 61.9082L295.117 61.9082L294.941 59.0074C294.941 57.1964 293.805 55.6579 292.204 55.0489C290.763 55.9143 285.4 58.8632 280.822 57.7413C280.694 58.142 280.63 58.5747 280.63 59.0234L280.453 61.9242L279.413 61.9242C279.413 61.9242 277.284 51.6032 279.381 49.712C280.934 48.3177 295.149 51.3628 296.718 53.5263C297.599 54.7604 296.782 61.9082 296.782 61.9082Z" fill="rgb(229,114,129)" fill-rule="nonzero" />
				<g id="FACE">
					<g id="Group">
						<path id="Vector" d="M292.78 61.2834C292.732 61.2834 292.668 61.2674 292.62 61.2193C292.604 61.2033 291.563 60.3538 289.898 60.3538C289.77 60.3538 289.658 60.2417 289.658 60.1134C289.658 59.9852 289.77 59.873 289.898 59.873C291.739 59.873 292.876 60.8026 292.924 60.8507C293.02 60.9308 293.036 61.0911 292.956 61.1872C292.924 61.2513 292.844 61.2834 292.78 61.2834Z" fill="rgb(102,176,240)" fill-rule="nonzero" />
					</g>
					<g id="Group">
						<path id="Vector" d="M286.697 66.2527C286.665 66.2527 286.633 66.2527 286.617 66.2367C286.489 66.1886 286.425 66.0444 286.473 65.9322C286.921 64.7462 286.809 63.2558 286.185 61.9416C285.816 61.1403 285.288 60.5633 284.824 60.4031C283.799 60.0505 282.359 60.5473 282.343 60.5473C282.214 60.5954 282.086 60.5313 282.038 60.4031C281.99 60.2749 282.054 60.1467 282.182 60.0986C282.246 60.0826 283.783 59.5537 284.968 59.9543C285.56 60.1627 286.169 60.8198 286.601 61.7493C287.273 63.1757 287.385 64.8104 286.905 66.1245C286.889 66.1886 286.793 66.2527 286.697 66.2527Z" fill="rgb(102,176,240)" fill-rule="nonzero" />
					</g>
					<g id="Group">
						<path id="Vector" d="M289.851 68.7998C289.867 68.9281 289.755 69.0402 289.627 69.0563L289.611 69.0563C289.483 69.0563 289.387 68.9601 289.371 68.8319C289.355 68.6716 289.323 68.5114 289.275 68.3671C288.586 68.7037 287.962 68.8159 287.45 68.8159C286.441 68.8159 285.833 68.3992 285.801 68.3671C285.689 68.287 285.673 68.1428 285.737 68.0306C285.817 67.9184 285.961 67.9024 286.073 67.9665C286.105 67.9825 286.617 68.3351 287.45 68.3351C287.898 68.3351 288.442 68.2389 289.066 67.9344C288.97 67.7741 288.874 67.678 288.874 67.678C288.778 67.5818 288.794 67.4216 288.89 67.3414C288.986 67.2613 289.147 67.2613 289.227 67.3575C289.259 67.4055 289.803 68.0145 289.851 68.7998Z" fill="rgb(102,176,240)" fill-rule="nonzero" />
					</g>
					<path id="Vector" d="M0.400215 1.60263C0.621248 1.60263 0.80043 1.24387 0.80043 0.801315C0.80043 0.358761 0.621248 0 0.400215 0C0.179182 0 0 0.358761 0 0.801315C0 1.24387 0.179182 1.60263 0.400215 1.60263Z" fill="rgb(102,176,240)" fill-rule="nonzero" transform="matrix(0.998096,-0.0622814,0.0621433,0.998104,290.216,62.6445)" />
					<path id="Vector" d="M0.368176 1.47446C0.57151 1.47446 0.736353 1.14439 0.736353 0.737234C0.736353 0.330074 0.57151 0 0.368176 0C0.164843 0 0 0.330074 0 0.737234C0 1.14439 0.164843 1.47446 0.368176 1.47446Z" fill="rgb(102,176,240)" fill-rule="nonzero" transform="matrix(0.998095,-0.0622878,0.0621369,0.998105,283.721,62.707)" />
					<path id="Vector" d="M279.701 65.0498C279.573 65.0498 279.461 64.9376 279.461 64.8094C279.461 64.1042 278.885 63.5433 278.197 63.5433C278.069 63.5433 277.957 63.4311 277.957 63.3029C277.957 63.1747 278.069 63.0625 278.197 63.0625C279.157 63.0625 279.942 63.8478 279.942 64.8094C279.942 64.9536 279.83 65.0498 279.701 65.0498Z" fill="rgb(102,176,240)" fill-rule="nonzero" />
					<path id="Vector" d="M295.806 65.0498C295.678 65.0498 295.566 64.9376 295.566 64.8094C295.566 63.8478 296.35 63.0625 297.311 63.0625C297.439 63.0625 297.551 63.1747 297.551 63.3029C297.551 63.4311 297.439 63.5433 297.311 63.5433C296.606 63.5433 296.046 64.1202 296.046 64.8094C296.046 64.9536 295.95 65.0498 295.806 65.0498Z" fill="rgb(102,176,240)" fill-rule="nonzero" />
				</g>
			</g>
		</g>
	</g>
	<g id="TABLE">
		<path id="Vector (Stroke)" d="M79.8698 192.905C81.2579 188.1 85.6399 184.801 90.6246 184.801L506.767 184.801C511.7 184.801 516.065 188.031 517.488 192.755L517.488 192.755M80.7925 193.172L15.3657 419.995L14.4429 419.728L79.8698 192.905L79.8698 192.905M80.7925 193.172C80.7925 193.172 80.7926 193.172 80.7926 193.172C82.062 188.778 86.0684 185.762 90.6246 185.762L506.767 185.762C511.279 185.762 515.269 188.718 516.568 193.033L516.568 193.033L585.133 420L586.052 419.722L517.488 192.755" fill="rgb(102,176,240)" fill-rule="evenodd" />
		<path id="Vector (Stroke)" d="M386.638 109.059L204.621 109.059L204.621 108.098L386.638 108.098L386.638 109.059Z" fill="rgb(102,176,240)" fill-rule="evenodd" />
	</g>
	<g id="BOY">
		<path id="PAPER 1" d="M267.791 143.068L310.79 143.068L310.79 180.041L267.791 180.041C267.791 180.041 267.791 141.674 267.791 143.068Z" fill="rgb(255,207,45)" fill-rule="nonzero" />
		<g id="BOY 1">
			<g id="LEGS 1">
				<g id="Group">
					<path id="Vector" d="M428.581 314.856L408.586 265.014L440.779 265.014L428.581 314.856Z" fill="rgb(154,59,130)" fill-rule="nonzero" />
					<path id="Vector" d="M373.719 198.487C378.01 190.362 386.446 185.281 395.619 185.281L420.384 185.281L437.209 198.487L373.719 198.487Z" fill="rgb(154,59,130)" fill-rule="nonzero" />
				</g>
				<g id="Group">
					<g id="Group">
						<path id="Vector" d="M467.609 256.841L405.224 256.841L428.709 313.911C427.076 311.251 417.294 314.023 406.937 320.386C396.708 326.668 389.792 334.233 391.201 336.989L340.582 248.811C327.455 226.567 343.463 198.488 369.269 198.488L509.071 198.488L509.375 199.45C518.5 227.817 497.369 256.841 467.609 256.841Z" fill="rgb(63,177,181)" fill-rule="nonzero" />
						<path id="Vector" d="M511.489 214.851C511.265 220.059 510.112 225.092 508.159 229.756L434.84 198.504L507.615 198.504L509.312 203.472C510.496 206.453 511.153 210.636 511.489 214.851Z" fill="rgb(230,230,230)" fill-rule="nonzero" />
						<path id="Vector" d="M428.725 313.91C430.358 316.57 423.218 323.83 412.876 330.193C402.519 336.555 392.897 339.745 391.265 337.084C389.632 334.424 396.595 326.908 406.953 320.545C417.295 314.183 427.076 311.25 428.725 313.91Z" fill="rgb(102,176,240)" fill-rule="nonzero" />
						<g id="Group">
							<path id="Vector (Stroke)" d="M475.53 202.553C475.79 202.499 476.044 202.665 476.099 202.925C478.627 214.923 469.483 226.214 457.235 226.214L368.564 226.214C361.617 226.214 357.252 233.702 360.642 239.761C360.642 239.761 360.642 239.762 360.643 239.762L406.17 320.341C406.301 320.573 406.219 320.866 405.988 320.997C405.758 321.127 405.464 321.046 405.334 320.815L359.806 240.234L359.805 240.232C356.056 233.534 360.88 225.253 368.564 225.253L457.235 225.253C468.873 225.253 477.562 214.524 475.159 203.123C475.105 202.863 475.271 202.608 475.53 202.553Z" fill="rgb(255,255,255)" fill-rule="evenodd" />
							<path id="Vector (Stroke)" d="M421.887 313.542C418.186 314.465 413.242 316.729 407.194 320.256C401.837 323.383 397.415 327.043 394.543 330.237C393.105 331.836 392.071 333.301 391.497 334.509C391.211 335.113 391.048 335.634 390.999 336.063C390.949 336.49 391.014 336.796 391.145 337.009C391.284 337.236 391.213 337.532 390.987 337.671C390.761 337.81 390.466 337.739 390.327 337.513C390.05 337.061 389.978 336.521 390.044 335.952C390.11 335.384 390.316 334.758 390.63 334.096C391.258 332.772 392.358 331.229 393.829 329.593C396.776 326.317 401.278 322.596 406.711 319.425L406.711 319.425C412.782 315.884 417.82 313.565 421.655 312.609C423.571 312.131 425.223 311.984 426.569 312.22C427.931 312.459 428.991 313.095 429.66 314.169C429.801 314.394 429.732 314.691 429.507 314.831C429.282 314.972 428.986 314.903 428.845 314.678C428.346 313.877 427.549 313.369 426.403 313.167C425.243 312.964 423.738 313.08 421.887 313.542Z" fill="rgb(255,255,255)" fill-rule="evenodd" />
							<path id="Vector (Stroke)" d="M399.675 243.334C399.92 243.232 400.202 243.347 400.304 243.592L430.048 314.589C430.151 314.834 430.036 315.116 429.791 315.219C429.546 315.321 429.265 315.206 429.162 314.961L399.418 243.964C399.316 243.719 399.431 243.437 399.675 243.334Z" fill="rgb(255,255,255)" fill-rule="evenodd" />
							<path id="Vector (Stroke)" d="M440.091 198.44L367.524 198.44L367.524 197.479L440.091 197.479L440.091 198.44Z" fill="rgb(255,255,255)" fill-rule="evenodd" />
						</g>
					</g>
					<g id="Group">
						<path id="Vector" d="M408.569 340.754L404.247 334.857L398.292 326.747C400.725 324.696 403.654 322.564 406.936 320.545C413.468 316.538 419.759 313.878 423.937 313.141L426.835 318.926L430.453 326.138C427.891 335.257 408.569 340.754 408.569 340.754Z" fill="rgb(229,114,129)" fill-rule="nonzero" />
						<path id="Vector" d="M426.85 318.926C424.16 322.212 419.102 326.362 412.874 330.193C409.881 332.036 406.951 333.606 404.262 334.856L398.307 326.747C400.74 324.696 403.669 322.564 406.951 320.545C413.483 316.538 419.774 313.878 423.952 313.141L426.85 318.926Z" fill="rgb(154,59,130)" fill-rule="nonzero" />
					</g>
					<g id="Group">
						<path id="Vector" d="M450.241 357.92L406.313 389.508C402.583 392.104 396.788 394.268 397.557 384.876C398.629 371.927 401.495 352.663 408.57 340.739C408.875 340.659 427.893 335.162 430.454 326.123L450.481 340.371C456.244 344.858 456.116 353.608 450.241 357.92Z" fill="rgb(255,255,255)" fill-rule="nonzero" />
						<path id="Vector (Stroke)" d="M430.177 325.336L450.766 339.984L450.775 339.99C456.789 344.674 456.656 353.807 450.524 358.307L450.522 358.308L406.589 389.9L406.586 389.902C405.635 390.564 404.54 391.207 403.44 391.646C402.348 392.082 401.201 392.336 400.167 392.161C399.096 391.979 398.196 391.344 397.638 390.127C397.095 388.941 396.882 387.219 397.077 384.836L397.077 384.836C397.614 378.347 398.601 370.272 400.342 362.319C402.082 354.374 404.58 346.519 408.156 340.493L408.257 340.324L408.447 340.274C408.447 340.274 408.449 340.273 408.452 340.272L408.467 340.268C408.479 340.265 408.496 340.26 408.518 340.253C408.562 340.241 408.622 340.223 408.7 340.2C408.854 340.154 409.072 340.087 409.347 340C409.896 339.826 410.668 339.571 411.595 339.239C413.449 338.576 415.918 337.605 418.453 336.358C420.991 335.11 423.581 333.593 425.689 331.838C427.802 330.079 429.388 328.118 429.991 325.991L430.177 325.336ZM430.707 326.893C429.918 329.025 428.289 330.925 426.303 332.578C424.115 334.399 421.451 335.955 418.876 337.222C414.252 339.496 409.858 340.86 408.886 341.148C405.437 347.024 402.995 354.694 401.28 362.525C399.551 370.423 398.569 378.454 398.034 384.915C397.845 387.228 398.068 388.758 398.512 389.726C398.941 390.663 399.579 391.086 400.327 391.213C401.111 391.346 402.065 391.16 403.085 390.753C404.095 390.35 405.122 389.75 406.035 389.115C406.036 389.114 406.037 389.113 406.038 389.112L449.956 357.531C449.956 357.531 449.957 357.53 449.958 357.53C455.571 353.409 455.696 345.049 450.193 340.756L430.707 326.893Z" fill="rgb(255,207,45)" fill-rule="evenodd" />
						<path id="Vector (Stroke)" d="M432.793 327.438C433.048 327.511 433.196 327.777 433.124 328.032C432.331 330.827 430.47 333.345 428.114 335.529C425.755 337.715 422.873 339.592 419.99 341.104C417.106 342.616 414.207 343.77 411.803 344.506C410.602 344.874 409.517 345.139 408.616 345.292C407.73 345.442 406.972 345.492 406.447 345.393C406.187 345.344 406.015 345.093 406.064 344.832C406.113 344.571 406.364 344.399 406.625 344.448C406.973 344.514 407.59 344.49 408.456 344.344C409.306 344.2 410.349 343.946 411.522 343.587C413.869 342.868 416.713 341.737 419.544 340.252C422.377 338.767 425.182 336.936 427.461 334.823C429.743 332.708 431.472 330.335 432.2 327.769C432.272 327.514 432.538 327.366 432.793 327.438Z" fill="rgb(255,207,45)" fill-rule="evenodd" />
						<path id="Vector" d="M401.814 386.255C401.814 386.255 430.485 346.381 450.88 348.624C473.084 351.044 383.66 409.509 401.814 386.255Z" fill="rgb(255,207,45)" fill-rule="nonzero" />
						<path id="Vector (Stroke)" d="M400.059 385.349C400.059 385.349 400.059 385.349 399.669 385.067L400.059 385.349L400.053 385.356L400.048 385.363C398.48 387.374 398.354 388.883 398.727 389.815C399.102 390.756 400.042 391.267 400.967 391.207C401.232 391.189 401.46 391.39 401.477 391.655C401.494 391.92 401.294 392.149 401.029 392.166C399.729 392.25 398.379 391.535 397.835 390.172C397.287 388.801 397.608 386.932 399.285 384.778L399.286 384.778L399.303 384.755C399.317 384.734 399.339 384.704 399.368 384.665C399.426 384.586 399.511 384.469 399.624 384.317C399.849 384.013 400.181 383.569 400.611 383.004C401.471 381.874 402.723 380.264 404.292 378.339C407.428 374.491 411.833 369.382 416.907 364.344C421.977 359.309 427.729 354.331 433.558 350.757C439.376 347.189 445.337 344.979 450.805 345.581C452.577 345.772 453.817 346.602 454.494 347.75C455.164 348.886 455.249 350.279 454.826 351.548C454.742 351.8 454.47 351.936 454.219 351.852C453.967 351.768 453.831 351.496 453.915 351.244C454.261 350.204 454.178 349.105 453.667 348.238C453.163 347.383 452.21 346.699 450.701 346.537L450.7 346.537C445.547 345.969 439.811 348.05 434.06 351.577C428.319 355.097 422.628 360.018 417.583 365.027C412.541 370.034 408.158 375.116 405.036 378.947C403.475 380.862 402.23 382.464 401.375 383.587C400.948 384.148 400.618 384.589 400.396 384.89C400.284 385.04 400.2 385.155 400.143 385.233C400.115 385.271 400.094 385.301 400.08 385.32L400.064 385.342L400.059 385.349Z" fill="rgb(255,207,45)" fill-rule="evenodd" />
					</g>
				</g>
			</g>
			<g id="T SHIRT">
				<path id="Vector" d="M511.649 218.105C501.5 215.701 476.239 209.37 447.423 202.703C433.88 199.578 422.546 190.347 416.703 177.718L390.465 120.888L406.345 95.6943C411.228 87.9374 419.552 83.0013 428.693 82.4404L444.318 81.4788C460.07 80.5172 472.717 90.3574 477.519 105.406L509.296 198.488C512.786 207.206 511.649 218.105 511.649 218.105Z" fill="rgb(255,255,255)" fill-rule="nonzero" />
				<path id="Vector (Stroke)" d="M444.346 81.9571C444.346 81.9571 444.345 81.9571 444.345 81.9571L428.721 82.9187C419.735 83.4701 411.55 88.3231 406.75 95.949L391.009 120.922L417.137 177.514C422.918 190.009 434.131 199.141 447.53 202.233L447.53 202.233C467.438 206.839 485.658 211.287 498.363 214.388C503.727 215.697 508.107 216.766 511.217 217.506C511.24 217.2 511.268 216.772 511.291 216.242C511.343 215.095 511.376 213.474 511.3 211.583C511.149 207.794 510.565 202.952 508.849 198.665L508.844 198.654L477.063 105.56L477.062 105.556L477.06 105.551C472.316 90.685 459.852 81.0106 444.346 81.9571ZM511.648 218.103L512.126 218.153L512.069 218.697L511.537 218.571C508.394 217.826 503.808 216.707 498.118 215.318C485.416 212.217 467.217 207.775 447.314 203.17C433.626 200.011 422.171 190.681 416.266 177.918L416.265 177.918L389.918 120.851L405.938 95.4363C410.903 87.5486 419.367 82.5293 428.662 81.9589L444.287 80.9973C460.284 80.0208 473.112 90.0246 477.974 105.253C477.974 105.255 477.975 105.257 477.975 105.258L509.745 198.319C511.516 202.748 512.107 207.709 512.26 211.545C512.337 213.468 512.303 215.117 512.251 216.285C512.225 216.87 512.193 217.335 512.169 217.655C512.157 217.814 512.146 217.938 512.138 218.022C512.136 218.043 512.135 218.061 512.133 218.077C512.132 218.093 512.13 218.107 512.129 218.118L512.127 218.143L512.126 218.15L512.126 218.152L512.126 218.153C512.126 218.153 512.126 218.153 511.648 218.103Z" fill="rgb(254,82,68)" fill-rule="evenodd" />
				<path id="Vector (Stroke)" d="M403.874 124.335C403.874 124.335 403.874 124.335 404.279 124.077C404.684 123.819 404.684 123.818 404.684 123.818L404.684 123.818L404.685 123.819L404.688 123.825C404.692 123.83 404.697 123.839 404.705 123.85C404.72 123.873 404.743 123.908 404.774 123.955C404.838 124.048 404.934 124.186 405.063 124.364C405.323 124.72 405.716 125.236 406.248 125.865C407.313 127.123 408.932 128.835 411.14 130.638C415.555 134.242 422.325 138.209 431.742 139.644L431.597 140.595C421.98 139.129 415.055 135.074 410.533 131.383C408.273 129.538 406.612 127.783 405.516 126.486C404.967 125.838 404.559 125.304 404.287 124.93C404.151 124.743 404.049 124.597 403.98 124.495C403.946 124.445 403.92 124.406 403.902 124.379C403.893 124.365 403.886 124.355 403.882 124.347L403.876 124.339L403.875 124.336L403.874 124.335Z" fill="rgb(254,82,68)" fill-rule="evenodd" />
				<g id="Group">
					<path id="Vector" d="M415.549 100.164C414.685 99.2344 413.164 99.4908 412.636 100.629C412.043 101.911 413.116 103.337 414.509 103.129C415.934 102.92 416.526 101.206 415.549 100.164Z" fill="rgb(255,207,45)" fill-rule="nonzero" />
					<path id="Vector (Stroke)" d="M412.2 100.427C412.87 98.9834 414.8 98.6546 415.9 99.8362C417.141 101.161 416.386 103.34 414.578 103.605C412.81 103.869 411.446 102.058 412.199 100.427L412.2 100.427L412.2 100.427ZM413.071 100.832C412.64 101.765 413.421 102.806 414.437 102.654L414.439 102.654L414.439 102.654C415.48 102.501 415.909 101.252 415.198 100.494L415.197 100.492L415.197 100.492C414.568 99.8156 413.457 99.9996 413.071 100.832Z" fill="rgb(254,82,68)" fill-rule="evenodd" />
					<path id="Vector" d="M455.427 127.555C454.562 126.625 453.042 126.881 452.513 128.019C451.921 129.301 452.993 130.728 454.386 130.519C455.811 130.311 456.403 128.596 455.427 127.555Z" fill="rgb(255,207,45)" fill-rule="nonzero" />
					<path id="Vector (Stroke)" d="M452.078 127.817C452.748 126.374 454.678 126.045 455.778 127.227C457.019 128.552 456.264 130.731 454.457 130.996C452.688 131.26 451.324 129.449 452.078 127.818L452.078 127.817L452.078 127.817ZM452.949 128.222C452.518 129.155 453.299 130.197 454.315 130.045L454.317 130.044L454.317 130.044C455.358 129.892 455.788 128.643 455.077 127.884L455.076 127.883L455.076 127.883C454.446 127.206 453.336 127.39 452.949 128.222Z" fill="rgb(254,82,68)" fill-rule="evenodd" />
					<path id="Vector" d="M468.058 138.773C467.193 137.844 465.672 138.1 465.144 139.238C464.552 140.52 465.624 141.947 467.017 141.738C468.426 141.546 469.018 139.831 468.058 138.773Z" fill="rgb(255,207,45)" fill-rule="nonzero" />
					<path id="Vector (Stroke)" d="M464.708 139.034C465.379 137.591 467.309 137.262 468.409 138.444L468.413 138.449C469.621 139.779 468.892 141.964 467.085 142.213C465.317 142.475 463.955 140.665 464.708 139.035L464.708 139.034L464.708 139.034ZM465.58 139.439C465.149 140.372 465.93 141.413 466.946 141.261L466.952 141.26C467.96 141.123 468.414 139.882 467.704 139.097C467.075 138.423 465.966 138.608 465.58 139.439Z" fill="rgb(254,82,68)" fill-rule="evenodd" />
					<path id="Vector" d="M492.278 202.254C491.413 201.324 489.892 201.581 489.364 202.719C488.772 204.001 489.844 205.427 491.237 205.219C492.646 205.01 493.238 203.312 492.278 202.254Z" fill="rgb(255,207,45)" fill-rule="nonzero" />
					<path id="Vector (Stroke)" d="M488.929 202.516C489.599 201.073 491.53 200.744 492.629 201.927L492.633 201.931C493.847 203.267 493.104 205.429 491.308 205.695C489.539 205.959 488.175 204.148 488.928 202.517L488.929 202.516L488.929 202.516ZM489.8 202.921C489.369 203.855 490.15 204.896 491.166 204.744L491.167 204.744C492.187 204.593 492.629 203.359 491.924 202.58C491.295 201.906 490.186 202.09 489.8 202.921Z" fill="rgb(254,82,68)" fill-rule="evenodd" />
					<path id="Vector" d="M478.719 171.916C477.855 170.986 476.334 171.243 475.806 172.381C475.213 173.663 476.286 175.089 477.679 174.881C479.103 174.672 479.696 172.958 478.719 171.916Z" fill="rgb(255,207,45)" fill-rule="nonzero" />
					<path id="Vector (Stroke)" d="M475.37 172.177C476.04 170.733 477.97 170.405 479.07 171.586C480.311 172.911 479.556 175.09 477.748 175.355C475.979 175.619 474.616 173.808 475.369 172.177L475.37 172.177L475.37 172.177ZM476.241 172.582C475.81 173.515 476.591 174.556 477.607 174.404L477.609 174.404L477.609 174.404C478.649 174.251 479.079 173.002 478.368 172.244L478.367 172.242L478.367 172.242C477.738 171.566 476.627 171.75 476.241 172.582Z" fill="rgb(254,82,68)" fill-rule="evenodd" />
					<path id="Vector" d="M484.338 150.087C483.089 150.248 482.401 151.642 483.025 152.732C483.729 153.966 485.506 153.918 486.147 152.652C486.803 151.369 485.747 149.895 484.338 150.087Z" fill="rgb(255,207,45)" fill-rule="nonzero" />
					<path id="Vector (Stroke)" d="M486.575 152.87C485.762 154.476 483.503 154.538 482.608 152.971C481.815 151.585 482.687 149.816 484.275 149.611C486.065 149.368 487.408 151.242 486.575 152.87ZM485.72 152.433C486.198 151.498 485.429 150.424 484.403 150.564L484.399 150.565C483.491 150.681 482.987 151.7 483.442 152.493L483.442 152.494C483.956 153.394 485.25 153.361 485.719 152.435L485.72 152.433Z" fill="rgb(254,82,68)" fill-rule="evenodd" />
					<path id="Vector" d="M494.567 182.46C493.319 182.621 492.63 184.015 493.255 185.105C493.959 186.339 495.736 186.291 496.376 185.025C497.033 183.742 495.992 182.268 494.567 182.46Z" fill="rgb(255,207,45)" fill-rule="nonzero" />
					<path id="Vector (Stroke)" d="M496.804 185.243C495.991 186.849 493.733 186.911 492.838 185.344C492.044 183.958 492.917 182.189 494.505 181.984C496.314 181.741 497.636 183.617 496.804 185.243ZM495.949 184.806C496.429 183.869 495.671 182.797 494.632 182.937L494.628 182.938C493.72 183.054 493.217 184.073 493.671 184.866L493.672 184.867C494.186 185.767 495.48 185.734 495.948 184.808L495.949 184.806Z" fill="rgb(254,82,68)" fill-rule="evenodd" />
					<path id="Vector" d="M452.145 147.539C451.28 146.609 449.759 146.866 449.231 148.004C448.639 149.286 449.711 150.712 451.104 150.504C452.513 150.295 453.105 148.597 452.145 147.539Z" fill="rgb(255,207,45)" fill-rule="nonzero" />
					<path id="Vector (Stroke)" d="M448.796 147.802C449.466 146.358 451.397 146.029 452.496 147.212L452.5 147.216C453.714 148.552 452.972 150.714 451.175 150.98C449.406 151.244 448.042 149.433 448.795 147.802L448.796 147.802L448.796 147.802ZM449.667 148.207C449.236 149.14 450.017 150.181 451.033 150.029L451.034 150.029C452.054 149.878 452.496 148.644 451.791 147.865C451.162 147.191 450.053 147.375 449.667 148.207Z" fill="rgb(254,82,68)" fill-rule="evenodd" />
					<path id="Vector" d="M443.324 165.697C442.459 164.768 440.939 165.024 440.41 166.162C439.818 167.444 440.89 168.87 442.283 168.662C443.708 168.454 444.3 166.739 443.324 165.697Z" fill="rgb(255,207,45)" fill-rule="nonzero" />
					<path id="Vector (Stroke)" d="M439.975 165.958C440.646 164.515 442.576 164.186 443.676 165.367C444.917 166.692 444.162 168.871 442.354 169.136C440.585 169.4 439.222 167.589 439.975 165.959L439.975 165.958L439.975 165.958ZM440.847 166.363C440.416 167.296 441.197 168.337 442.213 168.185L442.215 168.185L442.215 168.185C443.255 168.033 443.685 166.783 442.974 166.025L442.973 166.023L442.973 166.023C442.344 165.347 441.233 165.531 440.847 166.363Z" fill="rgb(254,82,68)" fill-rule="evenodd" />
					<path id="Vector" d="M427.54 159.351C428.468 158.486 428.212 156.963 427.076 156.434C425.795 155.841 424.37 156.915 424.578 158.309C424.787 159.72 426.483 160.313 427.54 159.351Z" fill="rgb(255,207,45)" fill-rule="nonzero" />
					<path id="Vector (Stroke)" d="M424.103 158.379C423.839 156.608 425.648 155.243 427.277 155.997L427.278 155.998C428.72 156.669 429.048 158.601 427.867 159.702L427.863 159.706C426.528 160.921 424.369 160.178 424.103 158.379ZM426.873 156.87C425.941 156.439 424.901 157.22 425.053 158.238L425.053 158.238C425.204 159.259 426.436 159.702 427.214 158.997C427.888 158.366 427.703 157.256 426.873 156.87Z" fill="rgb(254,82,68)" fill-rule="evenodd" />
					<path id="Vector" d="M441.547 190.603C442.475 189.738 442.219 188.215 441.083 187.686C439.802 187.093 438.377 188.167 438.585 189.561C438.793 190.988 440.506 191.581 441.547 190.603Z" fill="rgb(255,207,45)" fill-rule="nonzero" />
					<path id="Vector (Stroke)" d="M438.11 189.631C437.847 187.86 439.656 186.495 441.284 187.249L441.285 187.25C442.727 187.92 443.055 189.853 441.875 190.954C440.551 192.196 438.375 191.441 438.11 189.631ZM440.881 188.122C439.948 187.691 438.908 188.472 439.06 189.49L439.061 189.491L439.061 189.491C439.213 190.533 440.461 190.964 441.218 190.252L441.22 190.251L441.22 190.251C441.895 189.621 441.712 188.509 440.881 188.122Z" fill="rgb(254,82,68)" fill-rule="evenodd" />
					<path id="Vector" d="M465.128 163.791C466.056 162.925 465.8 161.403 464.663 160.874C463.383 160.281 461.958 161.355 462.166 162.749C462.374 164.159 464.087 164.768 465.128 163.791Z" fill="rgb(255,207,45)" fill-rule="nonzero" />
					<path id="Vector (Stroke)" d="M461.691 162.819C461.427 161.048 463.236 159.683 464.865 160.437L464.866 160.437C466.307 161.108 466.636 163.04 465.456 164.141C464.128 165.387 461.955 164.607 461.691 162.819ZM464.461 161.309C463.529 160.878 462.489 161.66 462.641 162.677L462.641 162.678C462.793 163.71 464.045 164.148 464.799 163.439L464.8 163.438L464.8 163.438C465.476 162.808 465.292 161.696 464.461 161.309Z" fill="rgb(254,82,68)" fill-rule="evenodd" />
					<path id="Vector" d="M473.18 197.349C474.109 196.484 473.853 194.961 472.716 194.432C471.435 193.839 470.01 194.913 470.219 196.307C470.411 197.734 472.124 198.327 473.18 197.349Z" fill="rgb(255,207,45)" fill-rule="nonzero" />
					<path id="Vector (Stroke)" d="M469.744 196.376C469.482 194.607 471.29 193.244 472.918 193.997L472.919 193.998C474.361 194.669 474.689 196.601 473.508 197.702L473.507 197.704L473.507 197.704C472.175 198.936 469.992 198.199 469.744 196.376ZM472.515 194.87C471.582 194.439 470.542 195.22 470.694 196.238C470.695 196.24 470.695 196.242 470.695 196.245C470.834 197.272 472.074 197.719 472.854 196.998C473.529 196.368 473.345 195.257 472.515 194.87Z" fill="rgb(254,82,68)" fill-rule="evenodd" />
					<path id="Vector" d="M424.898 129.381C424.033 128.451 422.513 128.708 421.984 129.846C421.392 131.128 422.465 132.554 423.857 132.346C425.282 132.137 425.874 130.422 424.898 129.381Z" fill="rgb(255,207,45)" fill-rule="nonzero" />
					<path id="Vector (Stroke)" d="M421.55 129.643C422.22 128.2 424.15 127.871 425.25 129.053C426.491 130.378 425.736 132.557 423.928 132.822C422.16 133.086 420.796 131.275 421.549 129.644L421.55 129.643L421.55 129.643ZM422.421 130.048C421.99 130.982 422.771 132.023 423.787 131.871L423.789 131.87L423.789 131.87C424.83 131.718 425.26 130.469 424.549 129.71L424.547 129.709L424.547 129.709C423.918 129.032 422.808 129.216 422.421 130.048Z" fill="rgb(254,82,68)" fill-rule="evenodd" />
					<path id="Vector" d="M427.764 87.8085C426.899 86.8789 425.378 87.1354 424.85 88.2732C424.258 89.5554 425.33 90.9817 426.723 90.7734C428.148 90.565 428.74 88.8502 427.764 87.8085Z" fill="rgb(255,207,45)" fill-rule="nonzero" />
					<path id="Vector (Stroke)" d="M424.414 88.0712C425.084 86.628 427.015 86.2991 428.114 87.4808C429.355 88.8057 428.601 90.9847 426.793 91.2496C425.024 91.5135 423.661 89.7026 424.414 88.072L424.414 88.0712L424.414 88.0712ZM425.286 88.476C424.855 89.4093 425.636 90.4504 426.652 90.2984L426.654 90.2982L426.654 90.2982C427.694 90.146 428.124 88.8965 427.413 88.1381L427.412 88.1367L427.412 88.1367C426.783 87.4602 425.672 87.6441 425.286 88.476Z" fill="rgb(254,82,68)" fill-rule="evenodd" />
					<path id="Vector" d="M455.427 87.8085C454.562 86.8789 453.042 87.1354 452.513 88.2732C451.921 89.5554 452.993 90.9817 454.386 90.7734C455.811 90.565 456.403 88.8502 455.427 87.8085Z" fill="rgb(255,207,45)" fill-rule="nonzero" />
					<path id="Vector (Stroke)" d="M452.078 88.0712C452.748 86.628 454.678 86.2991 455.778 87.4808C457.019 88.8057 456.264 90.9847 454.457 91.2496C452.688 91.5135 451.324 89.7026 452.078 88.072L452.078 88.0712L452.078 88.0712ZM452.949 88.4761C452.518 89.4093 453.299 90.4504 454.315 90.2984L454.317 90.2982L454.317 90.2982C455.358 90.146 455.788 88.8965 455.077 88.1381L455.076 88.1367L455.076 88.1367C454.446 87.4602 453.336 87.6441 452.949 88.4761Z" fill="rgb(254,82,68)" fill-rule="evenodd" />
					<path id="Vector" d="M455.474 105.757C454.306 106.222 453.969 107.729 454.85 108.642C455.826 109.652 457.539 109.187 457.859 107.809C458.18 106.415 456.803 105.229 455.474 105.757Z" fill="rgb(255,207,45)" fill-rule="nonzero" />
					<path id="Vector (Stroke)" d="M455.297 105.312C456.987 104.639 458.735 106.147 458.328 107.918L458.328 107.919C457.921 109.671 455.744 110.259 454.505 108.978L454.505 108.977C453.385 107.815 453.815 105.902 455.297 105.312M457.392 107.702C457.625 106.684 456.62 105.82 455.652 106.205L455.652 106.205C454.798 106.545 454.555 107.644 455.196 108.309C455.91 109.047 457.159 108.705 457.392 107.702Z" fill="rgb(254,82,68)" fill-rule="evenodd" />
					<path id="Vector" d="M439.754 95.5341C438.537 95.8866 438.073 97.3451 438.841 98.3387C439.722 99.4445 441.466 99.14 441.915 97.8098C442.379 96.4476 441.114 95.1334 439.754 95.5341Z" fill="rgb(255,207,45)" fill-rule="nonzero" />
					<path id="Vector (Stroke)" d="M439.619 95.0717C441.355 94.5614 442.958 96.2347 442.37 97.9635C441.798 99.6571 439.581 100.038 438.466 98.6375C438.465 98.6357 438.463 98.634 438.462 98.6322C437.488 97.3726 438.075 95.5199 439.619 95.0717ZM441.461 97.6537C441.8 96.6585 440.875 95.7044 439.889 95.9945L439.888 95.995L439.888 95.995C439 96.2522 438.66 97.3135 439.219 98.0408C439.866 98.8487 441.135 98.6203 441.46 97.6553L441.461 97.6537L441.461 97.6537Z" fill="rgb(254,82,68)" fill-rule="evenodd" />
					<path id="Vector" d="M437.433 139.926C436.184 140.07 435.48 141.448 436.088 142.554C436.777 143.788 438.554 143.772 439.21 142.522C439.882 141.256 438.858 139.766 437.433 139.926Z" fill="rgb(255,207,45)" fill-rule="nonzero" />
					<path id="Vector (Stroke)" d="M439.634 142.747C440.49 141.135 439.181 139.246 437.379 139.449L437.379 139.449L437.378 139.449C435.786 139.633 434.896 141.385 435.667 142.787L435.669 142.789C436.541 144.353 438.798 144.338 439.634 142.747ZM437.487 140.404C438.533 140.287 439.273 141.378 438.785 142.297L438.785 142.297L438.784 142.299C438.307 143.207 437.013 143.224 436.508 142.322C436.064 141.512 436.582 140.509 437.487 140.404Z" fill="rgb(254,82,68)" fill-rule="evenodd" />
					<path id="Vector" d="M423.714 173.311C422.465 173.455 421.761 174.833 422.369 175.939C423.057 177.173 424.834 177.157 425.491 175.907C426.163 174.641 425.139 173.15 423.714 173.311Z" fill="rgb(255,207,45)" fill-rule="nonzero" />
					<path id="Vector (Stroke)" d="M425.915 176.13C426.771 174.518 425.463 172.629 423.66 172.831L423.66 172.831L423.659 172.832C422.068 173.015 421.177 174.767 421.948 176.17L421.95 176.172C422.822 177.736 425.079 177.721 425.915 176.13ZM423.768 173.787C424.815 173.67 425.555 174.761 425.067 175.68L425.067 175.68L425.066 175.682C424.589 176.59 423.294 176.607 422.789 175.704C422.345 174.895 422.863 173.892 423.768 173.787Z" fill="rgb(254,82,68)" fill-rule="evenodd" />
					<path id="Vector" d="M428.324 108.771C427.107 109.124 426.643 110.582 427.411 111.576C428.292 112.682 430.037 112.377 430.485 111.047C430.949 109.701 429.701 108.386 428.324 108.771Z" fill="rgb(255,207,45)" fill-rule="nonzero" />
					<path id="Vector (Stroke)" d="M430.94 111.203C431.531 109.484 429.938 107.822 428.195 108.309L428.191 108.31C426.646 108.758 426.058 110.611 427.032 111.871C427.033 111.873 427.035 111.874 427.036 111.876C428.151 113.276 430.368 112.896 430.94 111.203ZM428.456 109.234C429.465 108.954 430.367 109.918 430.031 110.891L430.03 110.894C429.705 111.859 428.436 112.087 427.789 111.279C427.23 110.553 427.57 109.493 428.456 109.234Z" fill="rgb(254,82,68)" fill-rule="evenodd" />
					<path id="Vector" d="M441.579 117.745C440.362 118.098 439.898 119.556 440.666 120.55C441.547 121.655 443.292 121.351 443.74 120.021C444.204 118.659 442.956 117.344 441.579 117.745Z" fill="rgb(255,207,45)" fill-rule="nonzero" />
					<path id="Vector (Stroke)" d="M441.446 117.284C443.198 116.775 444.784 118.449 444.196 120.176C443.624 121.87 441.407 122.251 440.292 120.85C440.29 120.849 440.289 120.847 440.287 120.845C439.313 119.585 439.901 117.732 441.446 117.284ZM443.286 119.867C443.626 118.87 442.714 117.917 441.714 118.208L441.713 118.208C440.826 118.465 440.485 119.526 441.045 120.254C441.691 121.062 442.961 120.833 443.286 119.868L443.286 119.867L443.286 119.867Z" fill="rgb(254,82,68)" fill-rule="evenodd" />
					<path id="Vector" d="M412.877 117.361C413.678 116.384 413.245 114.909 412.029 114.54C410.684 114.124 409.403 115.374 409.803 116.72C410.204 118.098 411.965 118.467 412.877 117.361Z" fill="rgb(255,207,45)" fill-rule="nonzero" />
					<path id="Vector (Stroke)" d="M412.168 114.081C413.717 114.552 414.261 116.429 413.247 117.667L413.246 117.668L413.246 117.668C412.087 119.073 409.85 118.602 409.342 116.856C408.831 115.135 410.466 113.555 412.168 114.081ZM411.886 115C410.9 114.695 409.974 115.614 410.263 116.584L410.263 116.587C410.557 117.596 411.84 117.862 412.505 117.056C413.092 116.339 412.772 115.269 411.888 115.001L411.886 115Z" fill="rgb(254,82,68)" fill-rule="evenodd" />
					<path id="Vector" d="M473.564 117.41C474.365 116.432 473.932 114.958 472.716 114.589C471.371 114.173 470.09 115.423 470.49 116.769C470.875 118.147 472.652 118.516 473.564 117.41Z" fill="rgb(255,207,45)" fill-rule="nonzero" />
					<path id="Vector (Stroke)" d="M472.857 114.128C474.406 114.599 474.95 116.476 473.936 117.713L473.935 117.715L473.935 117.715C472.78 119.115 470.522 118.655 470.03 116.901C469.522 115.18 471.155 113.602 472.857 114.128ZM472.574 115.047C471.589 114.742 470.663 115.661 470.952 116.63C470.952 116.633 470.953 116.636 470.954 116.638C471.232 117.637 472.525 117.913 473.194 117.103C473.78 116.386 473.461 115.316 472.577 115.048L472.574 115.047Z" fill="rgb(254,82,68)" fill-rule="evenodd" />
					<path id="Vector" d="M458.164 182.381C458.964 181.403 458.532 179.929 457.315 179.56C455.971 179.143 454.69 180.393 455.09 181.74C455.474 183.102 457.251 183.47 458.164 182.381Z" fill="rgb(255,207,45)" fill-rule="nonzero" />
					<path id="Vector (Stroke)" d="M457.456 179.101C459.004 179.571 459.548 181.448 458.535 182.686L458.532 182.69C457.378 184.069 455.122 183.614 454.629 181.874C454.12 180.153 455.754 178.575 457.456 179.101ZM457.173 180.02C456.187 179.714 455.262 180.633 455.55 181.603L455.552 181.61C455.829 182.591 457.123 182.872 457.794 182.074C458.379 181.357 458.059 180.288 457.176 180.021L457.173 180.02Z" fill="rgb(254,82,68)" fill-rule="evenodd" />
				</g>
			</g>
			<g id="HEAD 2">
				<g id="NECK 1">
					<path id="Vector" d="M445.389 80.9481C445.037 80.9641 444.685 80.9801 444.317 80.9962L428.692 81.9577C424.706 82.1982 420.896 83.2719 417.438 85.0509L412.636 70.6591L434.039 54.9531L445.389 80.9481Z" fill="rgb(229,114,129)" fill-rule="nonzero" />
					<path id="Vector" d="M417.374 84.8269C421.825 82.8075 425.379 79.2176 427.396 74.7623L435.176 57.5338L434.039 54.9375L412.636 70.6434L417.374 84.8269Z" fill="rgb(154,59,130)" fill-rule="nonzero" />
				</g>
				<g id="HEAD 3">
					<path id="Vector" d="M435.415 56.3975C435.415 57.8879 434.807 59.2342 433.83 60.2118C432.854 61.1894 431.509 61.7984 430.02 61.7984L425.314 61.7984C423.457 69.0263 416.269 73.9785 408.537 72.6163L404.999 71.9912C401.125 71.3021 398.484 67.6801 399.028 63.7857L403.174 42.9993C403.895 38.56 408.457 35.8515 412.699 37.374L419.567 40.1306C423.281 41.4127 425.778 44.9065 425.778 48.833L425.778 50.8363L430.02 50.9965C432.998 50.9965 435.415 53.4165 435.415 56.3975Z" fill="rgb(229,114,129)" fill-rule="nonzero" />
					<g id="Group">
						<path id="Vector (Stroke)" d="M431.173 54.106C429.329 54.106 427.843 55.5934 427.843 57.4395C427.843 57.6608 427.664 57.8402 427.443 57.8402C427.222 57.8402 427.043 57.6608 427.043 57.4395C427.043 55.1508 428.887 53.3047 431.173 53.3047C431.394 53.3047 431.573 53.4841 431.573 53.7053C431.573 53.9266 431.394 54.106 431.173 54.106Z" fill="rgb(154,59,130)" fill-rule="evenodd" />
						<path id="Vector (Stroke)" d="M405.079 47.3733C405.079 47.152 405.258 46.9727 405.479 46.9727L405.479 47.3733C405.479 46.9727 405.48 46.9727 405.48 46.9727L405.48 46.9727L405.481 46.9727L405.485 46.9727L405.495 46.9728C405.504 46.9729 405.515 46.9732 405.53 46.9736C405.56 46.9746 405.601 46.9763 405.654 46.9798C405.76 46.9867 405.911 47.0003 406.099 47.027C406.473 47.0804 406.994 47.1866 407.593 47.3981C408.793 47.8217 410.306 48.6686 411.563 50.355C411.695 50.5324 411.659 50.7834 411.482 50.9157C411.305 51.0481 411.054 51.0116 410.922 50.8343C409.777 49.2994 408.409 48.5356 407.327 48.1538C406.786 47.9627 406.317 47.8676 405.986 47.8203C405.82 47.7967 405.69 47.7851 405.602 47.7794C405.559 47.7766 405.526 47.7752 405.505 47.7746C405.495 47.7742 405.487 47.7741 405.483 47.774L405.479 47.774C405.479 47.774 405.478 47.774 405.478 47.774L405.479 47.774" fill="rgb(154,59,130)" fill-rule="evenodd" />
						<path id="Vector" d="M1.71476 1.60085C2.6618 1.60085 3.42952 1.24249 3.42952 0.800426C3.42952 0.358363 2.6618 0 1.71476 0C0.767719 0 0 0.358363 0 0.800426C0 1.24249 0.767719 1.60085 1.71476 1.60085Z" fill="rgb(154,59,130)" fill-rule="nonzero" transform="matrix(0.1786,-0.983936,0.983864,0.179,405.833,54.7734)" />
					</g>
				</g>
				<g id="HAIR 1">
					<path id="Vector" d="M430.021 50.9958C432.999 50.9958 435.416 53.4158 435.416 56.3968C435.416 56.4128 435.416 56.4448 435.416 56.4769C437.817 52.7748 443.708 43.3512 443.708 40.1619C443.708 35.8829 438.378 31.6038 432.855 33.559C433.223 33.2866 433.607 32.9981 434.007 32.6936C436.136 31.0269 437.257 29.7768 437.433 28.8793C437.497 28.5588 437.449 28.2703 437.289 28.0459C436.649 27.1324 435.944 26.7318 435.192 26.86C434.087 27.0363 432.951 28.3985 431.814 30.8986C431.302 32.0365 430.902 33.1584 430.677 33.8475C430.229 31.1711 428.068 22.3085 418.783 23.6707C415.581 24.1355 414.077 25.4657 413.66 26.9241C411.003 24.8406 407.449 23.2059 404.503 24.7605C399.413 27.4369 400.037 31.8282 402.983 34.9373C400.197 34.8892 398.244 35.7066 398.244 38.0625C398.244 40.2261 400.469 41.2678 403.527 41.6845C406.585 42.1011 410.507 41.8768 413.9 41.4921C416.318 41.2197 418.495 40.8831 419.888 40.6427C418.959 42.5499 418.591 44.1846 418.671 45.5629C418.815 48.4156 420.88 50.0984 423.794 50.6913C424.418 50.8195 425.09 50.8997 425.779 50.9317L430.021 50.9958ZM435.288 27.501C435.336 27.485 435.384 27.485 435.448 27.485C435.896 27.485 436.328 27.8055 436.761 28.4145C436.793 28.4786 436.841 28.5748 436.809 28.7511C436.553 30.0492 433.271 32.5173 431.366 33.8155C432.118 31.6038 433.703 27.7735 435.288 27.501Z" fill="rgb(255,207,45)" fill-rule="nonzero" />
				</g>
			</g>
			<g id="HANDS">
				<g id="LEFT 1">
					<path id="Vector" d="M385.645 173.759L283.19 173.759C280.661 173.759 279.14 170.97 280.485 168.839L294.124 147.395C295.901 144.607 298.959 142.924 302.257 142.924L371.606 142.924L385.645 173.759Z" fill="rgb(229,114,129)" fill-rule="nonzero" />
					<path id="Vector" d="M304.514 142.94L312.678 129.478C313.158 128.676 314.039 128.18 314.967 128.18C317.064 128.18 318.345 130.471 317.257 132.266L310.773 142.94L304.514 142.94Z" fill="rgb(254,82,68)" fill-rule="nonzero" />
					<path id="Vector" d="M385.645 173.759L362.609 173.759C362.561 173.711 362.497 173.647 362.449 173.599C356.846 167.829 354.461 159.079 357.614 150.649L360.896 142.924L371.606 142.924L385.645 173.759Z" fill="rgb(154,59,130)" fill-rule="nonzero" />
					<path id="Vector" d="M297.662 159.367L284.823 159.367C283.958 159.367 283.158 159.832 282.726 160.585L281.365 162.957C280.452 164.56 281.605 166.563 283.462 166.563L293.788 166.563C295.58 166.563 297.245 165.634 298.19 164.095L299.294 162.284C300.063 161.002 299.15 159.367 297.662 159.367Z" fill="rgb(229,114,129)" fill-rule="nonzero" />
					<path id="Vector" d="M294.349 166.562L281.51 166.562C280.646 166.562 279.845 167.027 279.413 167.781L278.052 170.152C277.14 171.755 278.292 173.758 280.149 173.758L290.475 173.758C292.268 173.758 293.933 172.829 294.877 171.29L295.982 169.479C296.766 168.197 295.838 166.562 294.349 166.562Z" fill="rgb(229,114,129)" fill-rule="nonzero" />
					<path id="Vector" d="M301.329 152.074L288.49 152.074C287.625 152.074 286.825 152.539 286.393 153.292L285.032 155.664C284.119 157.267 285.272 159.27 287.129 159.27L297.455 159.27C299.247 159.27 300.912 158.341 301.857 156.802L302.961 154.991C303.746 153.709 302.817 152.074 301.329 152.074Z" fill="rgb(229,114,129)" fill-rule="nonzero" />
					<path id="Vector (Stroke)" d="M282.38 160.386C282.883 159.509 283.816 158.967 284.824 158.967L297.663 158.967C299.468 158.967 300.565 160.946 299.639 162.49L299.638 162.492L298.533 164.304L298.532 164.305C297.515 165.962 295.721 166.964 293.789 166.964L283.463 166.964C281.298 166.964 279.954 164.628 281.018 162.759L281.019 162.758L282.38 160.386ZM283.074 160.785L281.714 163.156C281.714 163.156 281.714 163.156 281.714 163.156C280.953 164.492 281.914 166.163 283.463 166.163L293.789 166.163C295.442 166.163 296.978 165.306 297.85 163.886C297.85 163.886 297.85 163.886 297.85 163.885L298.953 162.078C298.953 162.078 298.953 162.077 298.953 162.077C299.563 161.058 298.835 159.768 297.663 159.768L284.824 159.768C284.103 159.768 283.435 160.156 283.074 160.785Z" fill="rgb(154,59,130)" fill-rule="evenodd" />
					<path id="Vector (Stroke)" d="M279.065 167.581C279.569 166.704 280.501 166.162 281.51 166.162L294.348 166.162C296.147 166.162 297.272 168.137 296.323 169.689L295.218 171.499L295.218 171.5C294.2 173.157 292.406 174.159 290.474 174.159L280.149 174.159C277.984 174.159 276.64 171.823 277.704 169.954L277.705 169.953L279.065 167.581ZM279.759 167.98L278.399 170.351C278.399 170.351 278.399 170.351 278.399 170.352C277.639 171.688 278.6 173.358 280.149 173.358L290.474 173.358C292.128 173.358 293.664 172.501 294.535 171.081C294.536 171.081 294.536 171.081 294.536 171.081L295.64 169.27C296.26 168.257 295.527 166.963 294.348 166.963L281.51 166.963C280.789 166.963 280.121 167.351 279.759 167.98Z" fill="rgb(154,59,130)" fill-rule="evenodd" />
					<path id="Vector (Stroke)" d="M286.045 153.093C286.548 152.216 287.481 151.674 288.489 151.674L301.328 151.674C303.127 151.674 304.251 153.649 303.302 155.201L302.198 157.011L302.197 157.012C301.18 158.669 299.386 159.671 297.454 159.671L287.128 159.671C284.963 159.671 283.619 157.335 284.684 155.466L284.684 155.465L286.045 153.093ZM286.739 153.492L285.379 155.863C285.379 155.863 285.379 155.863 285.379 155.863C284.618 157.2 285.579 158.87 287.128 158.87L297.454 158.87C299.108 158.87 300.643 158.013 301.515 156.593C301.515 156.593 301.515 156.593 301.515 156.592L302.62 154.782C303.239 153.769 302.507 152.475 301.328 152.475L288.489 152.475C287.769 152.475 287.1 152.863 286.739 153.492Z" fill="rgb(154,59,130)" fill-rule="evenodd" />
					<path id="Vector" d="M319.915 162.796C316.056 162.796 312.342 161.402 309.429 158.853L304.562 154.59L300.08 154.59L298.927 155.824C296.862 158.036 294.317 159.302 291.291 159.302L289.146 159.302C288.026 159.302 287.337 158.052 287.945 157.107L293.34 148.645L319.931 148.645L319.931 162.796L319.915 162.796Z" fill="rgb(229,114,129)" fill-rule="nonzero" />
					<path id="Vector (Stroke)" d="M293.555 148.307C293.742 148.426 293.796 148.674 293.677 148.86L288.283 157.322L288.282 157.324C287.847 158 288.339 158.902 289.146 158.902L291.291 158.902C294.192 158.902 296.635 157.708 298.634 155.552L298.635 155.551L299.906 154.19L304.712 154.19L309.692 158.552C309.692 158.552 309.692 158.552 309.692 158.552M304.412 154.991L309.165 159.155L309.165 159.156C312.136 161.751 315.959 163.197 319.914 163.197C320.135 163.197 320.314 163.018 320.314 162.796C320.314 162.575 320.135 162.396 319.914 162.396C316.154 162.396 312.517 161.021 309.692 158.552M304.412 154.991L300.253 154.991L299.22 156.097C299.22 156.097 299.22 156.098 299.22 156.098C297.089 158.397 294.441 159.703 291.291 159.703L289.146 159.703C287.712 159.703 286.828 158.105 287.608 156.891C287.608 156.89 287.609 156.89 287.609 156.89L293.003 148.429C293.122 148.243 293.369 148.188 293.555 148.307" fill="rgb(154,59,130)" fill-rule="evenodd" />
				</g>
				<g id="RIGHT 1">
					<path id="Vector" d="M428.004 143.79L403.559 171.131C398.42 176.885 391.072 180.17 383.356 180.17C368.116 180.17 357.567 164.945 362.913 150.649L391.953 82.3444L382.14 76.8473C380.747 75.7575 380.075 73.9785 380.379 72.2477L382.044 61.0131C382.556 58.513 385.101 56.5578 387.583 55.9808L399.077 53.3845C400.053 53.1602 400.95 53.9935 400.79 54.9711L399.125 63.6415C398.468 67.8725 401.318 71.5265 405.544 72.2477C409.002 72.8407 411.435 76.3184 411.115 79.8122L403.287 128.693C403.271 128.725 411.291 141.242 428.004 143.79Z" fill="rgb(229,114,129)" fill-rule="nonzero" />
					<path id="Vector (Stroke)" d="M409.319 91.036C409.538 91.0697 409.688 91.2743 409.654 91.493L400.209 152.89C400.175 153.109 399.971 153.259 399.752 153.225C399.534 153.192 399.384 152.987 399.418 152.768L408.863 91.371C408.897 91.1523 409.101 91.0023 409.319 91.036Z" fill="rgb(154,59,130)" fill-rule="evenodd" />
					<path id="Vector (Stroke)" d="M389.692 61.4299C389.913 61.437 390.087 61.6221 390.079 61.8433L389.951 65.8167C389.951 65.8169 389.951 65.8171 389.951 65.8172C389.908 67.2896 390.783 68.5439 391.984 68.8932L406.68 71.8709C406.896 71.9148 407.036 72.1262 406.993 72.3431C406.949 72.5599 406.738 72.7002 406.521 72.6563L391.794 69.6723L391.779 69.6681C390.169 69.2102 389.099 67.5842 389.151 65.7931L389.151 65.792L389.279 61.8174C389.286 61.5963 389.471 61.4228 389.692 61.4299Z" fill="rgb(154,59,130)" fill-rule="evenodd" />
					<path id="Vector (Stroke)" d="M398.904 53.3619C399.984 53.1034 400.978 54.034 400.783 55.1356L399.264 63.8306C398.754 67.5047 401.245 70.9229 404.901 71.5779L416.659 73.1474C416.878 73.1766 417.032 73.3781 417.003 73.5975C416.973 73.8168 416.772 73.9709 416.553 73.9417L404.778 72.3699L404.77 72.3684C400.685 71.6418 397.898 67.8222 398.472 63.7128L398.473 63.7061L399.995 54.9964C400.089 54.4637 399.611 54.0163 399.09 54.1414L399.089 54.1417L387.081 56.9466C386.866 56.9969 386.651 56.863 386.6 56.6475C386.55 56.432 386.684 56.2166 386.899 56.1663L398.903 53.3622C398.904 53.3621 398.904 53.362 398.904 53.3619Z" fill="rgb(154,59,130)" fill-rule="evenodd" />
					<path id="Vector (Stroke)" d="M442.289 128.629L410.464 164.08L409.75 163.437L441.575 127.986L442.289 128.629Z" fill="rgb(254,82,68)" fill-rule="evenodd" />
					<path id="Vector (Stroke)" d="M391.889 82.3596C391.889 82.1384 392.068 81.959 392.289 81.959L397.908 81.959C398.129 81.959 398.308 82.1384 398.308 82.3596C398.308 82.5809 398.129 82.7603 397.908 82.7603L392.289 82.7603C392.068 82.7603 391.889 82.5809 391.889 82.3596Z" fill="rgb(154,59,130)" fill-rule="evenodd" />
					<path id="Vector (Stroke)" d="M394.822 55.1893C395.396 55.5801 395.821 56.2225 395.811 57.028L395.699 65.3917C395.698 66.4301 394.955 67.3441 393.922 67.3441L392.161 67.3441C390.536 67.3441 389.296 65.8688 389.296 64.1708L389.296 62.8887C389.296 62.6674 389.475 62.488 389.696 62.488C389.917 62.488 390.096 62.6674 390.096 62.8887L390.096 64.1708C390.096 65.5179 391.065 66.5427 392.161 66.5427L393.922 66.5427C394.425 66.5427 394.899 66.0801 394.899 65.3888L394.899 65.3862L395.011 57.0181C395.011 57.018 395.011 57.0179 395.011 57.0179C395.017 56.5253 394.762 56.118 394.372 55.8518C393.975 55.5813 393.465 55.4781 393.024 55.5853C392.809 55.6376 392.593 55.5056 392.541 55.2906C392.489 55.0755 392.621 54.8589 392.835 54.8067C393.515 54.6414 394.254 54.8027 394.822 55.1893Z" fill="rgb(154,59,130)" fill-rule="evenodd" />
					<path id="Vector (Stroke)" d="M395.41 62.4863C395.632 62.4863 395.811 62.6657 395.811 62.887L395.811 64.1691C395.811 65.5162 396.779 66.541 397.876 66.541L398.996 66.541C399.217 66.541 399.397 66.7204 399.397 66.9417C399.397 67.163 399.217 67.3424 398.996 67.3424L397.876 67.3424C396.251 67.3424 395.01 65.867 395.01 64.1691L395.01 62.887C395.01 62.6657 395.189 62.4863 395.41 62.4863Z" fill="rgb(154,59,130)" fill-rule="evenodd" />
				</g>
			</g>
		</g>
		<g id="CHAIR 1">
			<path id="Vector (Stroke)" d="M519.832 419.92L501.246 265.072L502.2 264.957L520.786 419.805L519.832 419.92Z" fill="rgb(102,176,240)" fill-rule="evenodd" />
			<path id="Vector (Stroke)" d="M402.105 419.805L420.691 264.957L421.645 265.072L403.059 419.92L402.105 419.805Z" fill="rgb(102,176,240)" fill-rule="evenodd" />
			<path id="Vector (Stroke)" d="M513.921 367.167L408.953 367.167L408.953 366.205L513.921 366.205L513.921 367.167Z" fill="rgb(102,176,240)" fill-rule="evenodd" />
			<path id="Vector" d="M410.458 265.494L511.472 265.494C512.816 265.494 513.905 264.404 513.905 263.058L513.905 259.756C513.905 258.41 512.816 257.32 511.472 257.32L410.458 257.32C409.113 257.32 408.024 258.41 408.024 259.756L408.024 263.058C408.024 264.404 409.113 265.494 410.458 265.494Z" fill="rgb(255,255,255)" fill-rule="nonzero" />
			<path id="Vector (Stroke)" d="M407.545 259.757C407.545 258.145 408.849 256.84 410.458 256.84L511.472 256.84C513.082 256.84 514.386 258.145 514.386 259.757L514.386 263.058C514.386 264.67 513.082 265.975 511.472 265.975L410.458 265.975C408.849 265.975 407.545 264.67 407.545 263.058L407.545 259.757ZM410.458 257.801C409.379 257.801 408.505 258.676 408.505 259.757L408.505 263.058C408.505 264.139 409.379 265.013 410.458 265.013L511.472 265.013C512.552 265.013 513.425 264.139 513.425 263.058L513.425 259.757C513.425 258.676 512.552 257.801 511.472 257.801L410.458 257.801Z" fill="rgb(255,207,45)" fill-rule="evenodd" />
		</g>
	</g>
	<g id="GIRL">
		<g id="PAPER">
			<path id="Vector" d="M242.369 148.309L226.905 180.169L180.176 180.169L198.954 148.309L242.369 148.309Z" fill="rgb(255,255,255)" fill-rule="nonzero" />
			<path id="Vector (Stroke)" d="M198.726 147.908L243.009 147.908L227.156 180.57L179.476 180.57L198.726 147.908ZM199.183 148.71L180.877 179.769L226.655 179.769L241.73 148.71L199.183 148.71Z" fill="rgb(63,177,181)" fill-rule="evenodd" />
			<path id="Vector (Stroke)" d="M213.724 154.541C214.08 154.769 214.434 154.996 214.786 155.211C215.357 155.558 216.034 155.669 216.816 155.608C217.602 155.547 218.468 155.314 219.393 155.001C219.97 154.806 220.55 154.586 221.141 154.362C221.504 154.225 221.871 154.086 222.244 153.95C223.209 153.599 224.189 153.278 225.136 153.107C227.69 152.638 229.524 153.313 230.721 154.123C231.316 154.526 231.748 154.958 232.034 155.292C232.177 155.459 232.283 155.602 232.355 155.705C232.391 155.756 232.418 155.798 232.437 155.828C232.447 155.842 232.454 155.854 232.459 155.863C232.462 155.867 232.464 155.871 232.466 155.874L232.468 155.877L232.469 155.878L232.469 155.879C232.469 155.879 232.469 155.879 232.124 156.082C231.778 156.284 231.778 156.284 231.779 156.285L231.776 156.281C231.775 156.279 231.774 156.277 231.772 156.274C231.769 156.27 231.766 156.265 231.762 156.258C231.749 156.238 231.728 156.205 231.699 156.164C231.64 156.08 231.55 155.958 231.426 155.813C231.177 155.523 230.797 155.142 230.273 154.787C229.233 154.083 227.609 153.468 225.28 153.896L225.279 153.896C224.401 154.054 223.473 154.356 222.518 154.703C222.166 154.832 221.807 154.967 221.447 155.103C220.844 155.332 220.236 155.561 219.649 155.76C218.705 156.08 217.764 156.338 216.878 156.407C215.988 156.476 215.128 156.357 214.37 155.895C213.982 155.659 213.607 155.418 213.239 155.183C212.312 154.589 211.43 154.024 210.487 153.615C209.2 153.055 207.847 152.812 206.233 153.262C204.55 153.733 203.082 154.42 202.033 154.991C201.509 155.277 201.092 155.532 200.806 155.715C200.664 155.807 200.554 155.881 200.481 155.931C200.444 155.956 200.417 155.975 200.399 155.988C200.389 155.994 200.383 155.999 200.379 156.002L200.374 156.005L200.373 156.006C200.373 156.006 200.373 156.006 200.139 155.681C199.904 155.356 199.904 155.356 199.904 155.356L199.905 155.356L199.907 155.354L199.914 155.35C199.919 155.346 199.927 155.34 199.938 155.333C199.959 155.318 199.989 155.297 200.029 155.269C200.108 155.215 200.224 155.137 200.374 155.041C200.673 154.849 201.107 154.583 201.65 154.287C202.735 153.697 204.26 152.982 206.018 152.491C207.847 151.98 209.391 152.265 210.806 152.88C211.811 153.317 212.777 153.935 213.724 154.541Z" fill="rgb(63,177,181)" fill-rule="evenodd" />
			<path id="Vector (Stroke)" d="M212.123 159.508C212.48 159.736 212.833 159.963 213.186 160.177C213.757 160.525 214.434 160.636 215.215 160.575C216.001 160.514 216.868 160.281 217.792 159.968C218.369 159.772 218.95 159.553 219.541 159.329C219.904 159.192 220.271 159.053 220.644 158.917C221.608 158.566 222.589 158.245 223.536 158.074C226.09 157.605 227.924 158.28 229.121 159.09C229.715 159.492 230.148 159.925 230.433 160.259C230.576 160.426 230.683 160.568 230.754 160.671C230.79 160.723 230.818 160.765 230.837 160.794C230.846 160.809 230.854 160.821 230.859 160.83C230.861 160.834 230.864 160.838 230.865 160.841L230.867 160.844L230.868 160.845L230.868 160.846C230.868 160.846 230.869 160.846 230.523 161.049C230.178 161.251 230.178 161.251 230.178 161.251L230.176 161.247C230.175 161.246 230.173 161.243 230.171 161.241C230.169 161.236 230.166 161.231 230.162 161.225C230.148 161.204 230.127 161.172 230.098 161.13C230.04 161.047 229.949 160.925 229.825 160.78C229.577 160.489 229.196 160.109 228.672 159.754C227.632 159.05 226.008 158.434 223.68 158.862L223.678 158.863C222.801 159.021 221.872 159.322 220.917 159.67C220.566 159.798 220.207 159.934 219.846 160.07C219.243 160.298 218.636 160.528 218.049 160.727C217.104 161.047 216.164 161.305 215.278 161.374C214.388 161.443 213.528 161.324 212.77 160.862C212.381 160.625 212.006 160.385 211.638 160.15C210.712 159.556 209.829 158.991 208.886 158.581C207.6 158.022 206.246 157.779 204.633 158.229C202.949 158.7 201.481 159.387 200.432 159.958C199.909 160.243 199.491 160.499 199.206 160.682C199.063 160.774 198.953 160.847 198.88 160.898C198.844 160.923 198.816 160.942 198.798 160.955C198.789 160.961 198.782 160.966 198.778 160.969L198.773 160.972L198.773 160.973C198.773 160.973 198.773 160.973 198.538 160.648C198.304 160.323 198.304 160.323 198.304 160.323L198.305 160.323L198.306 160.321L198.313 160.317C198.319 160.312 198.327 160.307 198.337 160.299C198.358 160.285 198.389 160.263 198.428 160.236C198.508 160.182 198.624 160.104 198.773 160.008C199.073 159.815 199.507 159.55 200.05 159.254C201.134 158.664 202.659 157.949 204.418 157.457C206.246 156.947 207.79 157.232 209.205 157.846C210.211 158.283 211.176 158.901 212.123 159.508Z" fill="rgb(63,177,181)" fill-rule="evenodd" />
		</g>
		<g id="GIRL 1">
			<g id="LEGS">
				<g id="LEFT">
					<path id="Vector" d="M259.947 291.295C259.947 295.575 248.084 299.036 233.228 299.036C218.372 299.036 206.862 295.575 206.862 291.295C206.862 287.016 218.372 283.555 233.228 283.555C248.084 283.555 259.947 287.032 259.947 291.295Z" fill="rgb(254,82,68)" fill-rule="nonzero" />
					<g id="Group">
						<path id="Vector" d="M253.111 286.087L253.111 341.378L251.43 333.397C249.621 324.807 242.049 318.669 233.277 318.669C230.635 318.669 228.042 319.23 225.689 320.287C225.608 320.319 225.528 320.368 225.432 320.4L219.269 297.898L215.843 285.382C220.534 284.244 226.601 283.555 233.229 283.555C241.105 283.555 248.197 284.532 253.111 286.087Z" fill="rgb(160,80,90)" fill-rule="nonzero" />
						<path id="Vector" d="M253.111 286.087L253.111 296.504C248.197 298.058 241.105 299.036 233.229 299.036C228.122 299.036 223.351 298.619 219.269 297.914L215.843 285.398C220.534 284.26 226.601 283.57 233.229 283.57C241.105 283.554 248.197 284.532 253.111 286.087Z" fill="rgb(115,50,90)" fill-rule="nonzero" />
					</g>
					<g id="Group">
						<g id="Group">
							<g id="Group">
								<path id="Vector" d="M251.925 339.761C252.357 339.889 256.424 341.027 260.026 341.027C261.979 341.027 263.788 340.691 264.812 339.665C265.693 338.783 265.901 337.501 265.436 335.883C265.02 334.44 264.22 333.543 263.051 333.222C260.906 332.645 257.928 334.248 255.575 335.931C259.241 331.475 262.859 325.818 261.514 322.116C261.034 320.802 259.946 319.92 258.585 319.76C257.448 319.632 256.392 320.032 255.895 320.786C253.59 324.295 251.701 338.703 251.621 339.312L251.925 339.761ZM256.568 321.234C256.856 320.802 257.464 320.545 258.169 320.545C258.281 320.545 258.393 320.545 258.505 320.561C259.017 320.625 260.25 320.914 260.778 322.388C261.13 323.366 261.258 325.161 259.833 328.174C258.489 331.027 256.055 334.376 252.598 338.174C253.11 334.52 254.743 324.007 256.568 321.234ZM264.252 339.104C263.195 340.162 260.794 340.482 257.288 340.033C255.447 339.793 253.734 339.408 252.822 339.168C253.51 338.559 254.791 337.453 256.28 336.427C259.129 334.456 261.402 333.607 262.859 334.008C263.74 334.248 264.332 334.937 264.684 336.107C265.068 337.453 264.924 338.431 264.252 339.104Z" fill="rgb(255,207,45)" fill-rule="nonzero" />
							</g>
						</g>
						<path id="Vector" d="M219.43 324.888L215.732 329.039C211.538 333.751 210.849 340.61 214.035 346.059L230.316 374.009C233.501 379.474 239.345 382.824 245.652 382.824L252.392 382.824C257.274 382.824 260.908 378.336 259.9 373.56L251.415 333.414C249.606 324.824 242.034 318.686 233.261 318.686C227.995 318.67 222.952 320.929 219.43 324.888Z" fill="rgb(255,255,255)" fill-rule="nonzero" />
						<path id="Vector (Stroke)" d="M219.13 324.621C222.728 320.578 227.879 318.269 233.261 318.285C242.222 318.286 249.957 324.556 251.805 333.331M251.805 333.332L260.29 373.478C261.351 378.503 257.527 383.224 252.39 383.224L245.651 383.224C239.201 383.224 233.227 379.799 229.969 374.211L213.689 346.261C210.415 340.662 211.123 333.614 215.432 328.772L219.13 324.622M233.259 319.087C228.107 319.071 223.174 321.281 219.728 325.155L219.727 325.155L216.03 329.306C216.03 329.306 216.03 329.306 216.029 329.306C211.951 333.888 211.281 340.558 214.379 345.857L214.38 345.857L230.66 373.807C233.774 379.149 239.486 382.423 245.651 382.423L252.39 382.423C257.019 382.423 260.463 378.17 259.507 373.643L251.022 333.497L251.022 333.497C249.252 325.092 241.844 319.087 233.26 319.087L233.259 319.087Z" fill="rgb(63,177,181)" fill-rule="evenodd" />
						<path id="Vector" d="M232.028 336.972L253.047 377.743C254.04 379.586 255.272 380.772 256.681 381.525C255.465 382.343 253.992 382.839 252.391 382.839L245.651 382.839C239.328 382.839 233.485 379.474 230.315 374.025L214.035 346.059C213.378 344.921 212.882 343.735 212.546 342.501C210.24 333.927 219.99 327.196 227.306 332.228C228.97 333.366 230.603 334.904 232.028 336.972Z" fill="rgb(63,177,181)" fill-rule="nonzero" />
						<g id="Group">
							<g id="Group">
								<path id="Vector" d="M232.076 337.069L212.674 337.069C212.77 336.764 212.882 336.476 213.01 336.203L231.452 336.203C231.644 336.46 231.836 336.716 232.028 336.988L232.076 337.069Z" fill="rgb(255,255,255)" fill-rule="nonzero" />
							</g>
							<g id="Group">
								<path id="Vector" d="M234.925 342.58L212.577 342.58C212.577 342.548 212.561 342.516 212.561 342.5C212.497 342.244 212.433 341.971 212.385 341.715L234.493 341.715L234.925 342.58Z" fill="rgb(255,255,255)" fill-rule="nonzero" />
							</g>
							<g id="Group">
								<path id="Vector" d="M237.775 348.11L215.235 348.11L214.723 347.229L237.327 347.229L237.775 348.11Z" fill="rgb(255,255,255)" fill-rule="nonzero" />
							</g>
							<g id="Group">
								<path id="Vector" d="M240.625 353.639L218.453 353.639L217.94 352.758L240.176 352.758L240.625 353.639Z" fill="rgb(255,255,255)" fill-rule="nonzero" />
							</g>
							<g id="Group">
								<path id="Vector" d="M243.474 359.152L221.67 359.152L221.158 358.287L243.025 358.287L243.474 359.152Z" fill="rgb(255,255,255)" fill-rule="nonzero" />
							</g>
							<g id="Group">
								<path id="Vector" d="M246.323 364.682L224.888 364.682L224.375 363.801L245.859 363.801L246.323 364.682Z" fill="rgb(255,255,255)" fill-rule="nonzero" />
							</g>
							<g id="Group">
								<path id="Vector" d="M249.173 370.21L228.106 370.21L227.593 369.328L248.709 369.328L249.173 370.21Z" fill="rgb(255,255,255)" fill-rule="nonzero" />
							</g>
							<g id="Group">
								<path id="Vector" d="M252.006 375.725L231.451 375.725C231.243 375.436 231.035 375.148 230.843 374.859L251.558 374.859L252.006 375.725Z" fill="rgb(255,255,255)" fill-rule="nonzero" />
							</g>
							<g id="Group">
								<path id="Vector" d="M256.216 381.252L238.351 381.252C237.775 380.996 237.214 380.707 236.67 380.387L255.064 380.387C255.432 380.707 255.816 380.996 256.216 381.252Z" fill="rgb(255,255,255)" fill-rule="nonzero" />
							</g>
						</g>
					</g>
				</g>
				<g id="RIGHT">
					<path id="Vector" d="M194.375 290.159C194.231 294.39 182.241 297.82 167.481 297.82C152.721 297.82 140.73 294.406 140.586 290.159L140.586 256.84L194.375 256.84L194.375 290.159Z" fill="rgb(115,50,90)" fill-rule="nonzero" />
					<g id="Group">
						<path id="Vector" d="M190.805 295.688L190.725 299.646L189.956 338.286L189.956 337.164C189.956 327.244 181.92 319.198 172.011 319.198L170.922 319.198C165.864 319.198 161.301 321.17 157.923 324.343L155.57 308.413L154.113 298.556C158.051 299.213 162.614 299.582 167.464 299.582C177.454 299.566 186.146 297.995 190.805 295.688Z" fill="rgb(160,80,90)" fill-rule="nonzero" />
						<path id="Vector" d="M190.803 295.688L190.723 299.646C184.768 303.877 166.374 309.086 155.585 308.396L154.128 298.54C158.066 299.181 162.628 299.566 167.479 299.566C177.452 299.566 186.145 297.995 190.803 295.688Z" fill="rgb(115,50,90)" fill-rule="nonzero" />
					</g>
					<g id="Group">
						<path id="Vector" d="M172.829 383.353L175.806 383.353C183.619 383.353 189.958 377.007 189.958 369.186L189.958 337.165C189.958 327.245 181.922 319.199 172.012 319.199L170.924 319.199C159.398 319.199 150.513 329.376 152.066 340.819L155.828 368.513C156.996 377.007 164.248 383.353 172.829 383.353Z" fill="rgb(255,255,255)" fill-rule="nonzero" />
						<path id="Vector (Stroke)" d="M151.669 340.871C150.083 329.188 159.155 318.797 170.923 318.797L172.012 318.797C182.142 318.797 190.358 327.022 190.358 337.163L190.358 369.184C190.358 377.226 183.839 383.752 175.806 383.752L172.828 383.752C164.047 383.752 156.627 377.258 155.431 368.566L151.669 340.871ZM152.462 340.763L156.224 368.456C157.365 376.752 164.448 382.951 172.828 382.951L175.806 382.951C183.397 382.951 189.557 376.784 189.557 369.184L189.557 337.163C189.557 327.464 181.7 319.598 172.012 319.598L170.923 319.598C159.639 319.598 150.942 329.561 152.462 340.763Z" fill="rgb(63,177,181)" fill-rule="evenodd" />
						<path id="Vector" d="M185.508 379.49C182.979 381.878 179.553 383.353 175.807 383.353L172.83 383.353C164.249 383.353 156.997 377.006 155.845 368.512L152.083 340.819C152.019 340.29 151.954 339.761 151.938 339.248C152.899 333.11 158.198 328.414 164.601 328.414C167.755 328.414 170.668 329.568 172.926 331.491C175.183 333.414 176.768 336.123 177.264 339.248L182.211 373.048C182.579 375.564 183.764 377.808 185.508 379.49Z" fill="rgb(63,177,181)" fill-rule="nonzero" />
						<g id="Group">
							<g id="Group">
								<path id="Vector" d="M175.773 334.969L153.409 334.969C153.569 334.664 153.761 334.376 153.953 334.104L175.245 334.104C175.437 334.376 175.613 334.664 175.773 334.969Z" fill="rgb(255,255,255)" fill-rule="nonzero" />
							</g>
							<g id="Group">
								<path id="Vector" d="M177.439 340.483L152.034 340.483C152.002 340.194 151.97 339.906 151.954 339.617L177.311 339.617L177.439 340.483Z" fill="rgb(255,255,255)" fill-rule="nonzero" />
							</g>
							<g id="Group">
								<path id="Vector" d="M178.255 346.01L152.785 346.01L152.657 345.145L178.127 345.145L178.255 346.01Z" fill="rgb(255,255,255)" fill-rule="nonzero" />
							</g>
							<g id="Group">
								<path id="Vector" d="M179.055 351.54L153.537 351.54L153.409 350.658L178.927 350.658L179.055 351.54Z" fill="rgb(255,255,255)" fill-rule="nonzero" />
							</g>
							<g id="Group">
								<path id="Vector" d="M179.872 357.053L154.29 357.053L154.162 356.188L179.744 356.188L179.872 357.053Z" fill="rgb(255,255,255)" fill-rule="nonzero" />
							</g>
							<g id="Group">
								<path id="Vector" d="M180.672 362.582L155.027 362.582L154.915 361.717L180.544 361.717L180.672 362.582Z" fill="rgb(255,255,255)" fill-rule="nonzero" />
							</g>
							<g id="Group">
								<path id="Vector" d="M181.488 368.112L155.779 368.112L155.667 367.23L181.36 367.23L181.488 368.112Z" fill="rgb(255,255,255)" fill-rule="nonzero" />
							</g>
							<g id="Group">
								<path id="Vector" d="M182.305 373.623L157.364 373.623C157.22 373.335 157.092 373.046 156.979 372.758L182.161 372.758L182.209 373.046C182.241 373.239 182.273 373.431 182.305 373.623Z" fill="rgb(255,255,255)" fill-rule="nonzero" />
							</g>
							<g id="Group">
								<path id="Vector" d="M185.17 379.154L161.59 379.154C161.269 378.882 160.949 378.578 160.661 378.289L184.434 378.289C184.658 378.594 184.914 378.882 185.17 379.154Z" fill="rgb(255,255,255)" fill-rule="nonzero" />
							</g>
						</g>
					</g>
				</g>
			</g>
			<g id="CLOTHES">
				<g id="Group">
					<path id="Vector" d="M206.014 116.976L206.014 143.965C204.846 140.904 195.593 141.337 185.411 145.199C176.687 148.516 170.139 153.068 169.179 156.225L169.179 118.242C169.179 106.944 175.214 96.8471 184.483 91.334C196.521 93.4334 206.014 103.931 206.014 116.976Z" fill="rgb(255,207,45)" fill-rule="nonzero" />
					<path id="Vector" d="M168.474 92.5527C160.277 98.2582 155.059 107.73 155.059 118.243L155.059 149.575L109.482 149.575L115.774 122.458C118.447 110.903 126.804 101.688 137.689 97.7613L168.474 92.5527Z" fill="rgb(255,207,45)" fill-rule="nonzero" />
				</g>
				<g id="Group">
					<path id="Vector" d="M260.651 226.661L260.651 289.565C260.651 285.286 248.084 281.824 233.228 281.824C218.372 281.824 206.334 285.286 206.334 289.565L206.334 259.419C206.334 258.009 205.181 256.855 203.772 256.855L122.065 256.855C97.4915 256.855 79.3219 233.953 84.8768 209.993L104.599 124.925C107.737 111.351 118.719 101.013 132.438 98.6736L137.689 97.7761C126.803 101.703 118.447 110.918 115.773 122.473L109.482 149.59L155.058 149.59L155.058 118.242C155.058 107.729 160.293 98.2409 168.473 92.5515L175.677 91.3335C177.166 91.077 178.623 90.9648 180.08 90.9648C180.272 90.9648 180.448 90.9648 180.64 90.9648C180.816 90.9648 180.992 90.9809 181.152 90.9809C181.184 90.9809 181.216 90.9809 181.248 90.9809C181.376 90.9809 181.52 90.9969 181.648 90.9969C181.664 90.9969 181.696 90.9969 181.712 90.9969C181.792 90.9969 181.873 91.0129 181.937 91.0129C182.081 91.0289 182.209 91.0289 182.353 91.045C182.513 91.061 182.689 91.077 182.849 91.0931C183.009 91.1091 183.153 91.1251 183.313 91.1411C183.345 91.1411 183.377 91.1572 183.425 91.1572C183.585 91.1732 183.762 91.2052 183.922 91.2213C183.938 91.2213 183.954 91.2213 183.954 91.2213C184.13 91.2533 184.306 91.2694 184.482 91.3014C175.213 96.8145 169.178 106.911 169.178 118.21L169.178 195.217L229.274 195.217C246.595 195.249 260.651 209.304 260.651 226.661Z" fill="rgb(254,82,68)" fill-rule="nonzero" />
					<path id="Vector (Stroke)" d="M169.908 91.5716C170.06 91.7896 170.006 92.0892 169.788 92.2408C161.699 97.8713 155.522 107.91 155.522 118.242L155.522 150.054L108.861 150.054L115.289 122.348M169.908 91.5716C169.757 91.3536 169.458 91.2997 169.24 91.4513M169.24 91.4513C160.936 97.2317 154.562 107.547 154.562 118.242M154.562 118.242L154.562 149.093M154.562 149.093L110.071 149.093" fill="rgb(255,255,255)" fill-rule="evenodd" />
					<path id="Vector (Stroke)" d="M215.544 225.012C215.747 225.183 215.773 225.487 215.601 225.689C209.928 232.414 206.814 240.942 206.814 249.756C206.814 250.021 206.599 250.236 206.334 250.236C206.069 250.236 205.854 250.021 205.854 249.756C205.854 240.715 209.047 231.967 214.868 225.069C215.039 224.866 215.342 224.841 215.544 225.012Z" fill="rgb(255,255,255)" fill-rule="evenodd" />
					<g id="Group">
						<path id="Vector" d="M139.754 246.566C139.674 246.566 139.594 246.55 139.53 246.502L137.417 245.348C137.177 245.219 137.097 244.931 137.225 244.691C137.353 244.45 137.641 244.37 137.881 244.498L139.994 245.652C140.235 245.78 140.315 246.069 140.187 246.309C140.09 246.469 139.93 246.566 139.754 246.566ZM141.867 246.021C141.691 246.021 141.531 245.925 141.451 245.764C141.323 245.524 141.403 245.235 141.643 245.107L143.756 243.953C143.997 243.825 144.285 243.921 144.413 244.146C144.541 244.386 144.461 244.675 144.221 244.803L142.108 245.957C142.028 245.989 141.947 246.021 141.867 246.021ZM135.528 244.274C135.448 244.274 135.368 244.258 135.304 244.21L133.191 243.056C132.951 242.928 132.871 242.639 132.999 242.399C133.127 242.158 133.415 242.078 133.655 242.206L135.768 243.36C136.008 243.489 136.088 243.777 135.96 244.017C135.864 244.178 135.704 244.274 135.528 244.274ZM146.078 243.713C145.902 243.713 145.742 243.617 145.661 243.457C145.533 243.216 145.613 242.928 145.854 242.799L147.967 241.646C148.335 241.453 148.671 241.229 149.007 240.988C149.215 240.828 149.52 240.876 149.68 241.085C149.84 241.293 149.792 241.597 149.584 241.758C149.215 242.03 148.831 242.271 148.431 242.495L146.318 243.649C146.238 243.697 146.158 243.713 146.078 243.713ZM131.35 241.902C131.254 241.902 131.158 241.87 131.062 241.806C130.389 241.309 129.765 240.732 129.237 240.075C129.061 239.867 129.093 239.562 129.301 239.402C129.509 239.226 129.813 239.258 129.973 239.466C130.453 240.059 131.014 240.572 131.622 241.02C131.83 241.181 131.878 241.485 131.734 241.694C131.654 241.838 131.51 241.902 131.35 241.902ZM151.024 240.219C150.912 240.219 150.816 240.187 150.72 240.107C150.512 239.947 150.48 239.642 150.656 239.434C151.136 238.841 151.537 238.2 151.857 237.495C151.969 237.254 152.257 237.142 152.497 237.254C152.737 237.366 152.849 237.655 152.737 237.895C152.385 238.665 151.937 239.386 151.409 240.027C151.296 240.155 151.168 240.219 151.024 240.219ZM128.34 238.232C128.164 238.232 127.988 238.136 127.908 237.959C127.556 237.19 127.3 236.389 127.14 235.555C127.092 235.299 127.268 235.043 127.524 234.995C127.78 234.946 128.036 235.123 128.084 235.379C128.228 236.132 128.452 236.854 128.772 237.543C128.885 237.783 128.772 238.072 128.532 238.184C128.468 238.216 128.404 238.232 128.34 238.232ZM153.009 235.892C152.977 235.892 152.945 235.892 152.929 235.892C152.673 235.844 152.497 235.588 152.545 235.331C152.641 234.802 152.689 234.273 152.689 233.744L152.689 233.023C152.689 232.751 152.897 232.542 153.169 232.542C153.442 232.542 153.65 232.751 153.65 233.023L153.65 233.744C153.65 234.337 153.602 234.93 153.49 235.507C153.442 235.732 153.234 235.892 153.009 235.892ZM127.46 233.552C127.188 233.552 126.979 233.344 126.979 233.071L126.979 230.667C126.979 230.395 127.188 230.187 127.46 230.187C127.732 230.187 127.94 230.395 127.94 230.667L127.94 233.071C127.94 233.328 127.716 233.552 127.46 233.552ZM153.153 231.1C152.881 231.1 152.673 230.892 152.673 230.619L152.673 228.215C152.673 227.943 152.881 227.735 153.153 227.735C153.426 227.735 153.634 227.943 153.634 228.215L153.634 230.619C153.634 230.892 153.426 231.1 153.153 231.1ZM127.46 228.744C127.188 228.744 126.979 228.536 126.979 228.263L126.979 225.859C126.979 225.587 127.188 225.379 127.46 225.379C127.732 225.379 127.94 225.587 127.94 225.859L127.94 228.263C127.94 228.52 127.716 228.744 127.46 228.744ZM153.153 226.292C152.881 226.292 152.673 226.084 152.673 225.811L152.673 223.407C152.673 223.135 152.881 222.927 153.153 222.927C153.426 222.927 153.634 223.135 153.634 223.407L153.634 225.811C153.634 226.084 153.426 226.292 153.153 226.292ZM127.46 223.936C127.188 223.936 126.979 223.728 126.979 223.455L126.979 221.051C126.979 220.779 127.188 220.571 127.46 220.571C127.732 220.571 127.94 220.779 127.94 221.051L127.94 223.455C127.94 223.712 127.716 223.936 127.46 223.936ZM153.153 221.484C152.881 221.484 152.673 221.276 152.673 221.003L152.673 218.599C152.673 218.327 152.881 218.119 153.153 218.119C153.426 218.119 153.634 218.327 153.634 218.599L153.634 221.003C153.634 221.276 153.426 221.484 153.153 221.484ZM127.46 219.128C127.188 219.128 126.979 218.92 126.979 218.648L126.979 216.58L128.276 216.58C128.548 216.58 128.756 216.788 128.756 217.061C128.756 217.333 128.548 217.542 128.276 217.542L127.94 217.542L127.94 218.648C127.94 218.904 127.716 219.128 127.46 219.128ZM152.289 217.542L149.888 217.542C149.616 217.542 149.407 217.333 149.407 217.061C149.407 216.788 149.616 216.58 149.888 216.58L152.289 216.58C152.561 216.58 152.769 216.788 152.769 217.061C152.769 217.333 152.561 217.542 152.289 217.542ZM147.486 217.542L145.085 217.542C144.813 217.542 144.605 217.333 144.605 217.061C144.605 216.788 144.813 216.58 145.085 216.58L147.486 216.58C147.759 216.58 147.967 216.788 147.967 217.061C147.967 217.333 147.759 217.542 147.486 217.542ZM142.684 217.542L140.283 217.542C140.01 217.542 139.802 217.333 139.802 217.061C139.802 216.788 140.01 216.58 140.283 216.58L142.684 216.58C142.956 216.58 143.164 216.788 143.164 217.061C143.164 217.333 142.956 217.542 142.684 217.542ZM137.881 217.542L135.48 217.542C135.208 217.542 135 217.333 135 217.061C135 216.788 135.208 216.58 135.48 216.58L137.881 216.58C138.153 216.58 138.362 216.788 138.362 217.061C138.362 217.333 138.153 217.542 137.881 217.542ZM133.079 217.542L130.677 217.542C130.405 217.542 130.197 217.333 130.197 217.061C130.197 216.788 130.405 216.58 130.677 216.58L133.079 216.58C133.351 216.58 133.559 216.788 133.559 217.061C133.559 217.333 133.351 217.542 133.079 217.542Z" fill="rgb(255,255,255)" fill-rule="nonzero" />
					</g>
					<g id="Group">
						<path id="Vector" d="M94.4499 243.905C94.2738 243.905 94.1137 243.809 94.0336 243.649C93.9056 243.408 93.9856 243.12 94.2257 242.992L96.1788 241.918C96.2268 241.886 96.2748 241.87 96.3228 241.838C96.547 241.71 96.8511 241.79 96.9792 242.014C97.1073 242.238 97.0272 242.543 96.8031 242.671C96.7551 242.703 96.7071 242.735 96.643 242.751L94.69 243.825C94.6099 243.889 94.5299 243.905 94.4499 243.905ZM98.5 241.341C98.372 241.341 98.2439 241.293 98.1478 241.181C97.9717 240.988 97.9878 240.684 98.1799 240.508C98.7402 239.995 99.2364 239.402 99.6686 238.777C99.8127 238.552 100.117 238.504 100.341 238.649C100.565 238.793 100.613 239.097 100.469 239.322C100.005 240.011 99.4445 240.652 98.8362 241.229C98.7241 241.309 98.6121 241.341 98.5 241.341ZM101.173 237.398C101.109 237.398 101.061 237.382 100.997 237.366C100.757 237.27 100.629 236.998 100.725 236.741C100.997 236.02 101.189 235.283 101.302 234.53C101.334 234.273 101.574 234.081 101.846 234.113C102.102 234.145 102.294 234.385 102.262 234.658C102.15 235.491 101.942 236.309 101.638 237.094C101.542 237.286 101.366 237.398 101.173 237.398ZM101.862 232.687C101.59 232.687 101.382 232.478 101.382 232.206L101.382 229.802C101.382 229.529 101.59 229.321 101.862 229.321C102.134 229.321 102.342 229.529 102.342 229.802L102.342 232.206C102.342 232.462 102.134 232.687 101.862 232.687ZM101.862 227.879C101.59 227.879 101.382 227.67 101.382 227.398L101.382 224.994C101.382 224.722 101.59 224.513 101.862 224.513C102.134 224.513 102.342 224.722 102.342 224.994L102.342 227.398C102.342 227.654 102.134 227.879 101.862 227.879ZM101.862 223.071C101.59 223.071 101.382 222.862 101.382 222.59L101.382 220.186C101.382 219.914 101.59 219.705 101.862 219.705C102.134 219.705 102.342 219.914 102.342 220.186L102.342 222.59C102.342 222.846 102.134 223.071 101.862 223.071ZM101.862 218.263C101.59 218.263 101.382 218.055 101.382 217.782L101.382 217.542L100.181 217.542C99.9088 217.542 99.7007 217.333 99.7007 217.061C99.7007 216.788 99.9088 216.58 100.181 216.58L102.342 216.58L102.342 217.782C102.342 218.038 102.134 218.263 101.862 218.263ZM97.7796 217.542L95.3784 217.542C95.1062 217.542 94.8981 217.333 94.8981 217.061C94.8981 216.788 95.1062 216.58 95.3784 216.58L97.7796 216.58C98.0518 216.58 98.2599 216.788 98.2599 217.061C98.2599 217.333 98.0358 217.542 97.7796 217.542ZM92.9771 217.542L90.5758 217.542C90.3036 217.542 90.0955 217.333 90.0955 217.061C90.0955 216.788 90.3036 216.58 90.5758 216.58L92.9771 216.58C93.2492 216.58 93.4573 216.788 93.4573 217.061C93.4573 217.333 93.2332 217.542 92.9771 217.542ZM88.1745 217.542L85.7732 217.542C85.5011 217.542 85.293 217.333 85.293 217.061C85.293 216.788 85.5011 216.58 85.7732 216.58L88.1745 216.58C88.4467 216.58 88.6548 216.788 88.6548 217.061C88.6548 217.333 88.4306 217.542 88.1745 217.542Z" fill="rgb(255,255,255)" fill-rule="nonzero" />
					</g>
				</g>
			</g>
			<g id="HAND">
				<path id="Vector" d="M206.013 143.966C207.182 147.027 199.786 152.46 189.62 156.323C179.455 160.185 170.346 160.778 169.177 157.701C168.009 154.624 175.228 149.079 185.41 145.216C195.591 141.354 204.844 140.889 206.013 143.966Z" fill="rgb(254,82,68)" fill-rule="nonzero" />
				<path id="Vector" d="M211.696 243.393L211.696 245.092C211.167 244.964 210.607 244.9 210.047 244.9L207.982 244.9C204.924 244.9 202.315 242.944 201.322 240.22L207.181 239.434C209.567 239.114 211.696 240.973 211.696 243.393Z" fill="rgb(115,50,90)" fill-rule="nonzero" />
				<path id="Vector" d="M217.107 251.969L217.107 265.014C217.107 268.059 214.642 270.527 211.6 270.527L205.469 270.527C203.948 270.527 202.571 269.918 201.579 268.909C200.586 267.915 199.962 266.537 199.962 265.014L203.948 265.014C205.261 265.014 206.317 263.956 206.317 262.642L206.317 259.229C206.317 257.914 205.261 256.857 203.948 256.857L183.569 256.857C175.613 256.857 169.162 250.398 169.162 242.433L169.162 156.242C170.122 153.085 176.67 148.518 185.394 145.216C191.349 142.957 197 141.867 200.891 141.963L200.891 237.833C200.891 241.744 204.06 244.917 207.966 244.917L210.031 244.917C213.938 244.901 217.107 248.058 217.107 251.969Z" fill="rgb(160,80,90)" fill-rule="nonzero" />
				<path id="Vector" d="M200.891 141.945L200.891 150.664C197.993 152.619 194.071 154.622 189.605 156.305C179.423 160.167 170.33 160.76 169.162 157.683L169.162 156.225C170.122 153.068 176.67 148.5 185.394 145.199C191.365 142.939 197.001 141.849 200.891 141.945Z" fill="rgb(115,50,90)" fill-rule="nonzero" />
			</g>
			<g id="HEAD 1">
				<g id="NECK">
					<path id="Vector" d="M174.268 77.0215L168.249 92.5511L137.225 98.1123L145.325 77.0215L174.268 77.0215Z" fill="rgb(160,80,90)" fill-rule="nonzero" />
					<path id="Vector" d="M174.269 77.0215L171.019 85.4194L140.251 90.2273L145.326 77.0215L174.269 77.0215Z" fill="rgb(115,50,90)" fill-rule="nonzero" />
				</g>
				<g id="HAIR">
					<path id="Vector" d="M192.455 45.4189C192.455 47.5183 188.821 49.8422 184.627 51.7974C178.912 54.4738 172.172 56.5092 172.172 56.5092L167.626 65.0834C173.805 68.3688 176.222 74.2665 177.183 78.3853C177.791 81.0137 177.791 82.8888 177.791 82.8888L134.216 82.8888C134.216 82.8888 122.77 45.7715 150.352 36.8928C167.225 31.4598 192.455 40.4346 192.455 45.4189Z" fill="rgb(255,255,255)" fill-rule="nonzero" />
					<path id="Vector (Stroke)" d="M177.61 37.7131C169.237 35.5371 158.814 34.6715 150.499 37.3489C143.716 39.5322 139.353 43.4406 136.607 48.0693C133.853 52.7093 132.71 58.098 132.419 63.2458C132.129 68.3914 132.692 73.2692 133.33 76.8648C133.649 78.6613 133.986 80.1348 134.243 81.1578C134.371 81.6692 134.48 82.0679 134.555 82.3378C134.562 82.3617 134.569 82.3845 134.575 82.4064L177.293 82.4064C177.282 82.212 177.264 81.9629 177.236 81.6668C177.162 80.8869 177.013 79.7825 176.714 78.4926C175.768 74.4348 173.402 68.6978 167.4 65.5064L166.975 65.2809L171.841 56.1051L172.033 56.0473L172.079 56.2029C172.033 56.0473 172.033 56.0473 172.033 56.0473L172.033 56.0472L172.034 56.047L172.051 56.0416C172.064 56.0378 172.083 56.032 172.108 56.0244C172.158 56.009 172.232 55.986 172.329 55.9558C172.523 55.8954 172.807 55.8059 173.166 55.6901C173.884 55.4585 174.901 55.1218 176.096 54.7017C178.488 53.8608 181.585 52.6889 184.422 51.3603L184.423 51.3599C186.508 50.3879 188.43 49.335 189.823 48.2775C190.519 47.7486 191.067 47.2312 191.436 46.7367C191.807 46.2404 191.974 45.8011 191.974 45.4173C191.974 44.9909 191.695 44.4236 191 43.7398C190.32 43.07 189.31 42.3563 188.016 41.6389C185.431 40.2062 181.79 38.7998 177.61 37.7131ZM177.79 82.8872L178.271 82.8872L178.27 83.368L133.861 83.368L133.756 83.029L134.215 82.8872C133.756 83.029 133.756 83.0287 133.756 83.0282L133.754 83.0209L133.747 82.9993C133.741 82.9805 133.733 82.9529 133.722 82.9167C133.701 82.8443 133.67 82.7376 133.631 82.5985C133.553 82.3204 133.442 81.913 133.311 81.3921C133.05 80.3506 132.708 78.8549 132.385 77.033C131.739 73.3916 131.164 68.4351 131.46 63.1916C131.756 57.9502 132.923 52.3948 135.781 47.5782C138.646 42.7503 143.196 38.6895 150.205 36.4335C158.763 33.6779 169.39 34.5832 177.851 36.7824C182.087 37.8833 185.808 39.3157 188.481 40.7977C189.816 41.5378 190.908 42.3005 191.674 43.0543C192.425 43.7941 192.934 44.5975 192.934 45.4173C192.934 46.0831 192.647 46.7216 192.205 47.3127C191.762 47.9054 191.139 48.4848 190.403 49.0437C188.93 50.1618 186.938 51.2484 184.829 52.2317C181.951 53.5793 178.821 54.7632 176.415 55.609C175.21 56.0323 174.185 56.3717 173.461 56.6054C173.099 56.7222 172.812 56.8127 172.615 56.874C172.573 56.8869 172.536 56.8986 172.502 56.9089L168.271 64.8881C174.316 68.3068 176.697 74.1882 177.65 78.2744L177.65 78.2752C177.96 79.6135 178.115 80.7607 178.192 81.5754C178.231 81.9829 178.251 82.3076 178.261 82.532C178.265 82.6443 178.268 82.7314 178.269 82.7913C178.27 82.8213 178.27 82.8444 178.27 82.8605C178.27 82.8685 178.27 82.8748 178.27 82.8793L178.271 82.8862L178.271 82.887C178.271 82.8871 178.271 82.8872 177.79 82.8872Z" fill="rgb(255,207,45)" fill-rule="evenodd" />
					<path id="Vector" d="M146.317 42.1803C152.303 42.1803 157.155 37.3226 157.155 31.3304C157.155 25.3381 152.303 20.4805 146.317 20.4805C140.332 20.4805 135.479 25.3381 135.479 31.3304C135.479 37.3226 140.332 42.1803 146.317 42.1803Z" fill="rgb(255,255,255)" fill-rule="nonzero" />
					<path id="Vector (Stroke)" d="M146.318 20.9616C140.598 20.9616 135.961 25.604 135.961 31.3307C135.961 37.0574 140.598 41.6999 146.318 41.6999C152.038 41.6999 156.676 37.0574 156.676 31.3307C156.676 25.604 152.038 20.9616 146.318 20.9616ZM135 31.3307C135 25.0729 140.067 20 146.318 20C152.569 20 157.636 25.0729 157.636 31.3307C157.636 37.5885 152.569 42.6615 146.318 42.6615C140.067 42.6615 135 37.5885 135 31.3307Z" fill="rgb(255,207,45)" fill-rule="evenodd" />
				</g>
				<g id="HEAD">
					<path id="Vector" d="M177.166 78.3837C176.269 74.4892 174.028 68.9441 168.505 65.5945L167.081 65.5945C165.768 65.5945 164.567 65.0657 163.703 64.2002C162.838 63.3348 162.31 62.1328 162.31 60.8187C162.31 58.1743 164.439 56.0428 167.081 56.0428L173.116 56.171L173.276 56.171C173.388 56.1389 173.5 56.0908 173.628 56.0588C175.261 55.7062 180.432 54.4561 184.722 52.3086L185.218 55.2735L186.819 64.7772C187.908 71.3 183.441 77.3099 177.166 78.3837Z" fill="rgb(160,80,90)" fill-rule="nonzero" />
					<path id="Vector" d="M185.203 55.2579C179.952 57.3894 173.1 56.1553 173.1 56.1553C173.1 56.1553 179.552 54.8732 184.706 52.293L185.203 55.2579Z" fill="rgb(115,50,90)" fill-rule="nonzero" />
					<path id="Vector (Stroke)" d="M167.097 58.4319C167.097 58.2106 167.276 58.0312 167.497 58.0312C169.543 58.0312 171.195 59.6851 171.195 61.7334C171.195 61.9547 171.016 62.134 170.795 62.134C170.574 62.134 170.394 61.9547 170.394 61.7334C170.394 60.1276 169.101 58.8326 167.497 58.8326C167.276 58.8326 167.097 58.6532 167.097 58.4319Z" fill="rgb(115,50,90)" fill-rule="evenodd" />
				</g>
			</g>
		</g>
		<g id="CHAIR">
			<path id="Vector (Stroke)" d="M205.857 419.918L187.271 265.07L188.225 264.955L206.811 419.803L205.857 419.918Z" fill="rgb(102,176,240)" fill-rule="evenodd" />
			<path id="Vector (Stroke)" d="M88.1309 419.803L106.701 264.955L107.654 265.07L89.0845 419.917L88.1309 419.803Z" fill="rgb(102,176,240)" fill-rule="evenodd" />
			<path id="Vector (Stroke)" d="M199.946 367.167L94.9785 367.167L94.9785 366.205L199.946 366.205L199.946 367.167Z" fill="rgb(102,176,240)" fill-rule="evenodd" />
			<path id="Vector" d="M91.0251 265.013L203.901 265.013C205.246 265.013 206.335 263.923 206.335 262.577L206.335 259.276C206.335 257.93 205.246 256.84 203.901 256.84L91.0251 256.84C89.6804 256.84 88.5918 257.93 88.5918 259.276L88.5918 262.577C88.6078 263.923 89.6964 265.013 91.0251 265.013Z" fill="rgb(255,255,255)" fill-rule="nonzero" />
			<path id="Vector (Stroke)" d="M88.1104 259.276C88.1104 257.664 89.4139 256.359 91.0239 256.359L203.9 256.359C205.51 256.359 206.814 257.664 206.814 259.276L206.814 262.578C206.814 264.189 205.51 265.494 203.9 265.494L91.0239 265.494C89.4268 265.494 88.1295 264.187 88.1104 262.583L88.1104 262.58L88.1104 259.276ZM91.0239 257.321C89.9444 257.321 89.0709 258.195 89.0709 259.276L89.0709 262.575C89.0852 263.662 89.9644 264.533 91.0239 264.533L203.9 264.533C204.98 264.533 205.853 263.658 205.853 262.578L205.853 259.276C205.853 258.195 204.98 257.321 203.9 257.321L91.0239 257.321Z" fill="rgb(255,207,45)" fill-rule="evenodd" />
		</g>
	</g>
</svg>
