<svg viewBox="0 0 16 16" xmlns="http://www.w3.org/2000/svg" xmlns:xlink="http://www.w3.org/1999/xlink" width="16.000000" height="16.000000" fill="none">
	<rect id="Layouts" width="16.000000" height="16.000000" x="0.000000" y="0.000000" />
	<path id="Vector" d="M8.29813 0.736398C8.11044 0.642555 7.88953 0.642555 7.70184 0.736398L1.03517 4.06973C0.809318 4.18266 0.66665 4.4135 0.66665 4.66602C0.66665 4.91853 0.809318 5.14937 1.03517 5.2623L7.70184 8.59563C7.88953 8.68948 8.11044 8.68948 8.29813 8.59563L14.9648 5.2623C15.1906 5.14937 15.3333 4.91853 15.3333 4.66602C15.3333 4.4135 15.1906 4.18266 14.9648 4.06973L8.29813 0.736398ZM7.99998 7.25399L2.82403 4.66602L7.99998 2.07804L13.1759 4.66602L7.99998 7.25399ZM0.737032 7.70121C0.901691 7.37189 1.30214 7.2384 1.63146 7.40306L7.99998 10.5873L14.3685 7.40306C14.6978 7.2384 15.0983 7.37189 15.2629 7.70121C15.4276 8.03053 15.2941 8.43097 14.9648 8.59563L8.29813 11.929C8.11044 12.0228 7.88953 12.0228 7.70184 11.929L1.03517 8.59563C0.705855 8.43097 0.572372 8.03053 0.737032 7.70121ZM1.63146 10.7364C1.30214 10.5717 0.901691 10.7052 0.737032 11.0345C0.572372 11.3639 0.705855 11.7643 1.03517 11.929L7.70184 15.2623C7.88953 15.3561 8.11044 15.3561 8.29813 15.2623L14.9648 11.929C15.2941 11.7643 15.4276 11.3639 15.2629 11.0345C15.0983 10.7052 14.6978 10.5717 14.3685 10.7364L7.99998 13.9207L1.63146 10.7364Z" fill="rgb(153.708,156.453,164.688)" fill-rule="evenodd" />
</svg>
