<svg viewBox="0 0 16.6665 17.917" xmlns="http://www.w3.org/2000/svg" xmlns:xlink="http://www.w3.org/1999/xlink" width="16.666504" height="17.916992" fill="none" customFrame="#000000">
	<path id="Vector" d="M3.74987 4.58333C3.74987 2.05203 5.8019 0 8.3332 0C10.8645 0 12.9165 2.05203 12.9165 4.58333C12.9165 7.11464 10.8645 9.16667 8.3332 9.16667C5.8019 9.16667 3.74987 7.11464 3.74987 4.58333ZM8.3332 1.66667C6.72237 1.66667 5.41654 2.9725 5.41654 4.58333C5.41654 6.19416 6.72237 7.5 8.3332 7.5C9.94403 7.5 11.2499 6.19416 11.2499 4.58333C11.2499 2.9725 9.94403 1.66667 8.3332 1.66667ZM3.41992 10C2.32729 10 1.19601 10.5467 0.689393 11.6638C0.398405 12.3054 0.0861565 13.1679 0.00900837 14.0668C-0.0612453 14.8853 0.278955 15.7399 1.04584 16.2163C2.17379 16.917 4.46687 17.9167 8.3332 17.9167C12.1995 17.9167 14.4926 16.917 15.6206 16.2163C16.3874 15.7399 16.7276 14.8853 16.6574 14.0668C16.5802 13.1679 16.268 12.3054 15.977 11.6638C15.4704 10.5467 14.3391 10 13.2465 10L3.41992 10ZM2.20725 12.3522C2.39056 11.948 2.84215 11.6667 3.41992 11.6667L13.2465 11.6667C13.8243 11.6667 14.2758 11.948 14.4592 12.3522C14.7129 12.9116 14.9426 13.5777 14.9968 14.2093C15.0211 14.4917 14.9033 14.6998 14.7411 14.8006C13.8835 15.3333 11.8962 16.25 8.3332 16.25C4.7702 16.25 2.78294 15.3333 1.9253 14.8006C1.76307 14.6998 1.64533 14.4917 1.66957 14.2093C1.72378 13.5777 1.95354 12.9116 2.20725 12.3522Z" fill="rgb(65.6094,68.8538,80.75)" fill-rule="evenodd" />
</svg>
