<svg viewBox="0 0 16 16" xmlns="http://www.w3.org/2000/svg" xmlns:xlink="http://www.w3.org/1999/xlink" width="16.000000" height="16.000000" fill="none" customFrame="#000000">
	<rect id="Star" width="16.000000" height="16.000000" x="0.000000" y="0.000000" />
	<path id="Star (Stroke)" d="M6.7798 1.46709C7.24297 0.398992 8.75768 0.39899 9.22085 1.46709L10.6219 4.69809L14.1277 5.03216C15.2867 5.14259 15.7548 6.58317 14.8821 7.35373L12.2422 9.68466L13.0078 13.1221C13.2609 14.2585 12.0355 15.1488 11.033 14.5569L8.00033 12.7665L4.9677 14.5569C3.96518 15.1488 2.73975 14.2585 2.99285 13.1221L3.75849 9.68466L1.11858 7.35373C0.245887 6.58317 0.713959 5.14259 1.87291 5.03216L5.37873 4.69809L6.7798 1.46709ZM9.4014 5.22735L8.00033 1.99635L6.59925 5.22735C6.40649 5.67189 5.98727 5.97647 5.50492 6.02243L1.9991 6.35649L4.63901 8.68743C5.00222 9.00813 5.16235 9.50095 5.05701 9.97389L4.29137 13.4114L7.32399 11.621C7.74124 11.3746 8.25941 11.3746 8.67666 11.621L11.7093 13.4114L10.9436 9.97389C10.8383 9.50095 10.9984 9.00813 11.3616 8.68743L14.0016 6.35649L10.4957 6.02243C10.0134 5.97647 9.59417 5.67189 9.4014 5.22735Z" fill="rgb(255,63,58)" fill-rule="evenodd" />
</svg>
