<svg viewBox="0 0 354 246" xmlns="http://www.w3.org/2000/svg" xmlns:xlink="http://www.w3.org/1999/xlink" width="354.000000" height="246.000000" fill="none">
	<rect id="illustration" width="354.000000" height="246.000000" x="0.000000" y="0.000000" />
	<g id="x35  HAND  x26  CAP">
		<g id="HAND 8">
			<g id="DRESS 6">
				<path id="Vector" d="M337.003 211.788L337.003 245.999L285.535 245.999L295.563 193.465C295.241 195.539 301.661 199.428 310.444 203.327C313.597 204.727 317.112 206.116 320.866 207.433C326.923 209.569 332.502 211.021 337.003 211.788Z" fill="rgb(154,59,130)" fill-rule="nonzero" />
				<path id="Vector" d="M337.003 201.503L337.003 210.659C332.502 209.892 326.933 208.451 320.856 206.314C306.534 201.285 295.511 195.073 296.133 192.284C296.143 192.242 296.154 192.201 296.164 192.17C297.129 189.443 309.811 191.33 324.33 196.422C328.997 198.06 333.207 199.75 336.743 201.378C336.826 201.42 336.909 201.461 337.003 201.503Z" fill="rgb(255,207,45)" fill-rule="nonzero" />
			</g>
			<g id="DIPLOMA 1">
				<path id="Vector" d="M329.94 122.234C324.921 122.234 320.856 126.299 320.856 131.308L320.856 156.175C320.856 161.184 316.79 165.249 311.782 165.249L275.402 165.249C280.422 165.249 284.476 161.184 284.476 156.175L284.476 131.308C284.476 126.289 288.542 122.234 293.55 122.234L329.94 122.234Z" fill="rgb(255,255,255)" fill-rule="nonzero" />
				<path id="Vector (Stroke)" d="M293.55 122.495C288.685 122.495 284.736 126.434 284.736 131.309L284.736 156.176C284.736 160.251 282.126 163.719 278.48 164.991L311.782 164.991C316.647 164.991 320.596 161.042 320.596 156.176L320.596 131.309C320.596 127.234 323.213 123.766 326.861 122.495L293.55 122.495ZM329.94 121.977L293.55 121.977C288.399 121.977 284.217 126.147 284.217 131.309L284.217 156.176C284.217 161.042 280.278 164.991 275.402 164.991L275.402 165.509L311.782 165.509C316.934 165.509 321.115 161.328 321.115 156.176L321.115 131.309C321.115 126.444 325.064 122.495 329.94 122.495L329.94 121.977Z" fill="rgb(255,207,45)" fill-rule="evenodd" />
				<g id="Group">
					<path id="Vector" d="M314.032 135.105L290.865 135.105L290.865 156.602L314.032 156.602L314.032 135.105Z" fill="rgb(255,255,255)" fill-rule="nonzero" />
					<path id="Vector (Stroke)" d="M290.605 134.846L314.291 134.846L314.291 156.861L290.605 156.861L290.605 134.846ZM291.124 135.364L291.124 156.342L313.773 156.342L313.773 135.364L291.124 135.364Z" fill="rgb(255,207,45)" fill-rule="evenodd" />
					<path id="Vector (Stroke)" d="M290.865 137.914L314.022 137.914L314.022 138.433L290.865 138.433L290.865 137.914Z" fill="rgb(255,207,45)" fill-rule="evenodd" />
					<path id="Vector (Stroke)" d="M290.865 140.984L314.022 140.984L314.022 141.503L290.865 141.503L290.865 140.984Z" fill="rgb(255,207,45)" fill-rule="evenodd" />
					<path id="Vector (Stroke)" d="M290.865 144.064L314.022 144.064L314.022 144.583L290.865 144.583L290.865 144.064Z" fill="rgb(255,207,45)" fill-rule="evenodd" />
					<path id="Vector (Stroke)" d="M290.865 147.133L314.022 147.133L314.022 147.651L290.865 147.651L290.865 147.133Z" fill="rgb(255,207,45)" fill-rule="evenodd" />
					<path id="Vector (Stroke)" d="M290.865 150.215L314.022 150.215L314.022 150.733L290.865 150.733L290.865 150.215Z" fill="rgb(255,207,45)" fill-rule="evenodd" />
					<path id="Vector (Stroke)" d="M290.865 153.283L314.022 153.283L314.022 153.802L290.865 153.802L290.865 153.283Z" fill="rgb(255,207,45)" fill-rule="evenodd" />
				</g>
				<path id="Vector" d="M320.856 131.308C320.856 126.32 324.88 122.276 329.847 122.234C334.825 122.276 338.838 126.32 338.838 131.308L320.856 131.308Z" fill="rgb(102,176,240)" fill-rule="nonzero" />
				<path id="Vector (Stroke)" d="M329.847 121.977L329.849 121.977C334.969 122.019 339.097 126.179 339.097 131.309L339.097 131.569L320.597 131.569L320.597 131.309C320.597 126.179 324.735 122.019 329.845 121.977L329.847 121.977ZM329.847 122.495C325.109 122.536 321.255 126.325 321.119 131.05L338.575 131.05C338.439 126.325 334.595 122.536 329.847 122.495Z" fill="rgb(255,207,45)" fill-rule="evenodd" />
				<path id="Vector" d="M311.823 165.477C311.813 165.477 311.792 165.477 311.782 165.477L275.537 165.477C275.517 165.477 275.496 165.477 275.475 165.477C271.752 165.425 268.568 163.123 267.22 159.867L303.537 159.867C304.896 163.123 308.079 165.425 311.823 165.477Z" fill="rgb(255,207,45)" fill-rule="nonzero" />
				<g id="Group">
					<g id="Group">
						<path id="Vector" d="M292.379 132.637L288.189 132.637L288.189 129.277L290.16 129.277L290.16 131.144C290.16 131.185 290.181 131.216 290.201 131.227L290.212 131.237L292.379 132.637Z" fill="rgb(254,82,68)" fill-rule="nonzero" />
					</g>
					<g id="Group">
						<path id="Vector" d="M294.007 130.438L294.007 130.884C294.007 130.967 293.997 131.05 293.997 131.133C293.997 131.154 293.986 131.185 293.986 131.205C293.976 131.247 293.976 131.288 293.965 131.33C293.851 131.9 293.509 132.367 293.084 132.543C293.053 132.554 293.022 132.564 292.991 132.574C292.939 132.595 292.877 132.605 292.825 132.616C292.804 132.616 292.783 132.626 292.763 132.626L290.388 131.081C290.408 130.718 290.637 130.428 290.906 130.428L294.007 130.428L294.007 130.438Z" fill="rgb(254,82,68)" fill-rule="nonzero" />
					</g>
					<g id="Group">
						<path id="Vector" d="M317.144 129.277L317.144 132.637L312.954 132.637L315.111 131.237L315.122 131.227C315.132 131.216 315.132 131.216 315.142 131.216C315.142 131.206 315.153 131.206 315.153 131.196C315.153 131.196 315.153 131.185 315.163 131.185C315.163 131.175 315.163 131.175 315.173 131.175C315.173 131.175 315.173 131.175 315.173 131.165C315.173 131.154 315.173 131.154 315.173 131.144L315.173 129.277L317.144 129.277Z" fill="rgb(254,82,68)" fill-rule="nonzero" />
					</g>
					<g id="Group">
						<path id="Vector" d="M314.965 131.092L312.59 132.638C312.528 132.627 312.466 132.617 312.404 132.606C312.383 132.596 312.362 132.596 312.341 132.586C312.31 132.575 312.289 132.565 312.258 132.555C312.238 132.544 312.206 132.534 312.186 132.523C311.864 132.347 311.595 132.005 311.46 131.58C311.439 131.518 311.418 131.455 311.408 131.393C311.398 131.372 311.398 131.341 311.387 131.31C311.366 131.175 311.346 131.041 311.346 130.895L311.346 130.449L314.457 130.449C314.716 130.439 314.944 130.729 314.965 131.092Z" fill="rgb(254,82,68)" fill-rule="nonzero" />
					</g>
					<g id="Group">
						<path id="Vector" d="M314.966 127.576L314.966 130.501C314.945 130.48 314.925 130.449 314.904 130.428C314.862 130.387 314.821 130.355 314.779 130.324C314.676 130.262 314.562 130.221 314.447 130.221L290.896 130.221C290.772 130.221 290.658 130.262 290.565 130.324C290.523 130.355 290.482 130.387 290.44 130.428C290.419 130.449 290.399 130.469 290.378 130.501L290.378 127.576C290.378 127.182 290.606 126.871 290.896 126.871L314.447 126.871C314.727 126.871 314.966 127.193 314.966 127.576Z" fill="rgb(254,82,68)" fill-rule="nonzero" />
					</g>
				</g>
			</g>
			<g id="HAND 9">
				<path id="Vector" d="M337.003 170.009L337.003 210.658L336.993 210.658C332.492 209.891 326.923 208.45 320.846 206.313C317.092 204.997 313.576 203.597 310.424 202.207L312.114 192.77L314.987 176.749C305.975 173.928 304.513 165.259 304.513 165.259L311.762 165.259C316.781 165.259 320.836 161.194 320.836 156.186L320.836 153.199L316.179 153.199C312.913 153.199 310.258 149.984 310.258 146.718L310.258 145.66L320.608 145.66C322.526 145.66 324.33 146.562 325.482 148.097L333.052 158.208C335.624 161.609 337.003 165.747 337.003 170.009Z" fill="rgb(160,80,90)" fill-rule="nonzero" />
				<path id="Vector" d="M337.003 201.503L337.003 210.66L336.993 210.66C332.492 209.892 326.923 208.451 320.846 206.315C317.092 204.998 313.576 203.598 310.424 202.208L312.114 192.771C315.848 193.684 319.996 194.918 324.31 196.432C328.976 198.07 333.187 199.761 336.713 201.389C336.827 201.42 336.91 201.461 337.003 201.503Z" fill="rgb(115,50,90)" fill-rule="nonzero" />
				<path id="Vector" d="M321.312 153.199L316.314 153.199C313.047 153.199 310.392 149.984 310.392 146.718L310.392 145.66L321.312 145.66L321.312 153.199Z" fill="rgb(160,80,90)" fill-rule="nonzero" />
				<path id="Vector (Stroke)" d="M318.079 163.544C318.079 163.544 318.079 163.544 318.17 163.301C318.262 163.058 318.262 163.059 318.262 163.059L318.262 163.059L318.264 163.059L318.269 163.061C318.273 163.063 318.279 163.065 318.287 163.068C318.302 163.074 318.323 163.083 318.351 163.095C318.407 163.118 318.488 163.153 318.591 163.201C318.796 163.296 319.087 163.441 319.437 163.645C320.138 164.053 321.077 164.694 322.037 165.632C323.96 167.509 325.958 170.569 326.29 175.291L325.773 175.328C325.451 170.748 323.519 167.804 321.675 166.003C320.751 165.101 319.848 164.484 319.176 164.093C318.841 163.898 318.564 163.76 318.372 163.671C318.276 163.626 318.202 163.594 318.152 163.573C318.127 163.563 318.108 163.555 318.096 163.55C318.09 163.548 318.085 163.546 318.082 163.545L318.08 163.544L318.079 163.544ZM318.079 163.544C318.079 163.544 318.079 163.544 318.079 163.544L318.079 163.544Z" fill="rgb(115,50,90)" fill-rule="evenodd" />
				<path id="Vector (Stroke)" d="M319.913 177.225L315.007 177.225L315.007 176.707L319.913 176.707L319.913 177.225Z" fill="rgb(115,50,90)" fill-rule="evenodd" />
			</g>
		</g>
		<g id="CAP 6">
			<path id="Vector (Stroke)" d="M323.833 63.6284C323.448 58.7522 317.978 56.0818 313.893 58.7821L310.606 60.9596L310.262 60.4409L313.55 58.2631C318.03 55.3014 324.031 58.2307 324.454 63.5793L325.169 72.6321C325.545 77.3697 330.758 80.0698 334.843 77.6467L336.916 76.4129L337.235 76.9476L335.16 78.1816L335.16 78.1818C330.679 80.8399 324.961 77.878 324.549 72.6813L323.833 63.6284Z" fill="rgb(255,207,45)" fill-rule="evenodd" />
			<path id="Vector" d="M262.657 27.0703L304.896 51.5847L326.165 99.338L301.764 82.9017L275.247 51.8336L262.657 27.0703Z" fill="rgb(154,59,130)" fill-rule="nonzero" />
			<path id="Vector (Stroke)" d="M305.659 50.6831L262.616 25.6904L262.928 25.1523L306.145 50.2461L327.912 99.0971L327.344 99.3504L305.659 50.6831Z" fill="rgb(255,207,45)" fill-rule="evenodd" />
			<path id="Vector" d="M4.67695 41.7914C7.25995 41.7914 9.35387 32.436 9.35387 20.8957C9.35387 9.35531 7.25995 0 4.67695 0C2.09395 0 0 9.35531 0 20.8957C0 32.436 2.09395 41.7914 4.67695 41.7914Z" fill="rgb(255,255,255)" fill-rule="nonzero" transform="matrix(0.764115,-0.645083,0.645117,0.764085,270.79,55.043)" />
			<path id="Vector" d="M4.5836 40.9825C7.11506 40.9825 9.1672 31.8083 9.1672 20.4913C9.1672 9.17425 7.11506 0 4.5836 0C2.05215 0 0 9.17425 0 20.4913C0 31.8083 2.05215 40.9825 4.5836 40.9825Z" fill="rgb(255,255,255)" fill-rule="nonzero" transform="matrix(0.764115,-0.645083,0.645117,0.764085,270.183,56.1094)" />
			<path id="Vector (Stroke)" d="M1.85476 6.31759C1.03055 10.0023 0.518508 15.1052 0.518508 20.7505C0.518508 26.3958 1.03055 31.4988 1.85476 35.1834C2.26733 37.0279 2.75507 38.5028 3.28789 39.5103C3.55443 40.0143 3.82574 40.3887 4.09409 40.6342C4.36101 40.8784 4.61037 40.9825 4.84286 40.9825C5.07535 40.9825 5.3247 40.8784 5.59162 40.6342C5.85998 40.3887 6.13129 40.0143 6.39782 39.5103C6.93064 38.5028 7.41838 37.0279 7.83095 35.1834C8.65516 31.4988 9.16721 26.3958 9.16721 20.7505C9.16721 15.1052 8.65516 10.0023 7.83095 6.31759C7.41838 4.47316 6.93064 2.99825 6.39782 1.99076C6.13129 1.48677 5.85998 1.11234 5.59162 0.866846C5.3247 0.622666 5.07535 0.518504 4.84286 0.518504C4.61037 0.518504 4.36101 0.622666 4.09409 0.866846C3.82574 1.11234 3.55443 1.48677 3.28789 1.99076C2.75507 2.99825 2.26733 4.47316 1.85476 6.31759ZM3.74411 0.484276C4.07395 0.182533 4.44248 0 4.84286 0C5.24323 0 5.61176 0.182533 5.94161 0.484276C6.27001 0.784708 6.57434 1.21543 6.85618 1.74836C7.42012 2.81469 7.92006 4.34065 8.33696 6.20441C9.17169 9.93613 9.68571 15.0788 9.68571 20.7505C9.68571 26.4222 9.17169 31.5649 8.33696 35.2966C7.92006 37.1604 7.42012 38.6863 6.85618 39.7527C6.57434 40.2856 6.27001 40.7163 5.94161 41.0168C5.61176 41.3185 5.24323 41.501 4.84286 41.501C4.44248 41.501 4.07395 41.3185 3.74411 41.0168C3.4157 40.7163 3.11137 40.2856 2.82953 39.7527C2.2656 38.6863 1.76565 37.1604 1.34876 35.2966C0.514026 31.5649 0 26.4222 0 20.7505C0 15.0788 0.514026 9.93613 1.34876 6.20441C1.76565 4.34065 2.2656 2.81469 2.82953 1.74836C3.11137 1.21543 3.4157 0.784708 3.74411 0.484276Z" fill="rgb(255,207,45)" fill-rule="evenodd" transform="matrix(0.764115,-0.645082,0.645118,0.764085,269.817,56.0781)" />
			<path id="Vector" d="M305.27 80.6023L301.246 83.9932C301.993 83.3606 301.827 81.7637 300.925 79.5342C299.442 75.8632 295.968 70.502 291.342 65.006C286.707 59.5203 281.999 55.1961 278.628 53.1221C276.585 51.857 275.03 51.4214 274.283 52.054L278.307 48.6631C280.277 46.9935 288.262 52.4481 295.708 61.2728C303.154 70.0976 307.251 78.9431 305.27 80.6023Z" fill="rgb(255,207,45)" fill-rule="nonzero" />
			<path id="Vector" d="M348.254 67.627C349.395 67.0774 350.504 66.59 351.573 66.1855C352.205 66.8492 352.755 67.627 353.18 68.498C353.605 69.3691 353.875 70.2816 353.999 71.1838C353.014 71.7645 351.946 72.3452 350.816 72.8949C345.143 75.6429 339.979 76.6902 339.273 75.2384C338.558 73.7763 342.581 70.375 348.254 67.627Z" fill="rgb(255,207,45)" fill-rule="nonzero" />
			<path id="Vector (Stroke)" d="M338.237 75.0109C337.716 75.0109 337.294 75.4333 337.294 75.9545C337.294 76.4757 337.716 76.8982 338.237 76.8982C338.758 76.8982 339.181 76.4757 339.181 75.9545C339.181 75.4333 338.758 75.0109 338.237 75.0109ZM336.671 75.9545C336.671 75.0897 337.372 74.3887 338.237 74.3887C339.102 74.3887 339.803 75.0897 339.803 75.9545C339.803 76.8193 339.102 77.5203 338.237 77.5203C337.372 77.5203 336.671 76.8193 336.671 75.9545Z" fill="rgb(154,59,130)" fill-rule="evenodd" />
		</g>
	</g>
	<g id="x34  HAND  x26  CAP">
		<g id="DRESS 5">
			<path id="Vector" d="M264.182 202.095L264.182 246.001L214.166 246.001L220.575 198.32C220.575 200.249 230.333 202.655 242.373 203.692C254.413 204.739 264.182 204.024 264.182 202.095Z" fill="rgb(102,176,240)" fill-rule="nonzero" />
			<path id="Vector" d="M263.955 200.963C263.955 202.892 254.279 203.607 242.353 202.56C230.428 201.513 220.752 199.107 220.752 197.189C220.752 195.26 230.428 194.544 242.353 195.592C254.29 196.629 263.955 199.034 263.955 200.963Z" fill="rgb(63,177,181)" fill-rule="nonzero" />
		</g>
		<g id="CAP 5">
			<path id="Vector (Stroke)" d="M273.739 105.846L270.722 103.893L271.06 103.371L274.099 105.338L274.11 105.346C274.992 106.029 275.295 107.259 275.198 108.768C275.1 110.291 274.591 112.184 273.739 114.315C272.033 118.579 268.92 123.862 264.811 129.156C260.702 134.456 256.36 138.785 252.655 141.499C250.804 142.854 249.097 143.818 247.646 144.292C246.208 144.762 244.941 144.775 244.059 144.093L244.047 144.083L242.543 142.662L242.97 142.21L244.452 143.609C245.085 144.091 246.087 144.147 247.453 143.7C248.815 143.255 250.462 142.333 252.287 140.997C255.934 138.326 260.236 134.042 264.32 128.775L264.32 128.775C268.403 123.513 271.482 118.281 273.161 114.084C274.002 111.983 274.485 110.159 274.577 108.729C274.669 107.293 274.365 106.338 273.739 105.846Z" fill="rgb(102,176,240)" fill-rule="evenodd" />
			<path id="Vector" d="M228.84 152.827L263.218 121.365L275.237 84.7695L238.547 118.109L228.84 152.827Z" fill="rgb(102,176,240)" fill-rule="nonzero" />
			<path id="Vector (Stroke)" d="M276.807 84.9297C276.97 84.9833 277.059 85.159 277.005 85.3223L264.774 122.576L227.298 156.872C227.171 156.988 226.974 156.979 226.858 156.853C226.742 156.726 226.751 156.529 226.877 156.413L264.234 122.227L276.414 85.1282C276.468 84.965 276.643 84.8761 276.807 84.9297Z" fill="rgb(254,82,68)" fill-rule="evenodd" />
			<path id="Vector (Stroke)" d="M214.013 152.259L246.659 121.035L247.089 121.485L214.443 152.708L214.443 152.709C212.636 154.433 209.682 152.803 210.19 150.347L211.102 145.919L211.102 145.919C211.459 144.196 209.504 142.937 208.085 143.972L208.085 143.973L197.3 151.823L196.934 151.32L207.719 143.47C207.719 143.47 207.719 143.47 207.719 143.47M211.712 146.045C212.184 143.765 209.598 142.099 207.719 143.47M211.712 146.045L210.799 150.472L210.799 150.473C210.415 152.33 212.646 153.562 214.013 152.259L214.013 152.259" fill="rgb(254,82,68)" fill-rule="evenodd" />
			<path id="Vector" d="M188.333 162.751C187.369 163.56 186.404 164.307 185.471 164.96C184.693 164.473 183.978 163.861 183.345 163.114C182.723 162.368 182.235 161.559 181.893 160.708C182.702 159.9 183.594 159.08 184.558 158.261C189.38 154.206 194.13 151.915 195.177 153.159C196.215 154.403 193.155 158.697 188.333 162.751Z" fill="rgb(255,207,45)" fill-rule="nonzero" />
			<path id="Vector (Stroke)" d="M196.111 151.384C195.59 151.384 195.168 151.806 195.168 152.328C195.168 152.849 195.59 153.271 196.111 153.271C196.633 153.271 197.055 152.849 197.055 152.328C197.055 151.806 196.633 151.384 196.111 151.384ZM194.545 152.328C194.545 151.463 195.247 150.762 196.111 150.762C196.976 150.762 197.677 151.463 197.677 152.328C197.677 153.192 196.976 153.893 196.111 153.893C195.247 153.893 194.545 153.192 194.545 152.328Z" fill="rgb(254,82,68)" fill-rule="evenodd" />
		</g>
		<g id="HAND 7">
			<path id="Vector" d="M248.419 169.048L248.419 202.957C246.501 202.874 244.458 202.75 242.353 202.563C234.585 201.889 227.782 200.624 223.977 199.297L224.547 195.543L226.455 182.943L223.987 182.943C220.471 182.943 217.63 180.102 217.63 176.587L217.63 164.101C217.63 161.633 218.522 159.258 220.15 157.402L228.27 148.121C228.799 147.52 229.794 147.893 229.794 148.692L229.794 161.312C229.794 162.826 229.255 164.288 228.27 165.439L227.544 166.289L236.359 166.289C237.634 166.289 238.381 164.869 237.665 163.811C236.577 162.224 235.145 159.964 233.787 157.35C231.08 152.176 235.778 149.283 235.778 149.283L246.532 163.23C247.756 164.92 248.419 166.963 248.419 169.048Z" fill="rgb(255,207,45)" fill-rule="nonzero" />
			<path id="Vector (Stroke)" d="M229.795 147.758C229.938 147.758 230.054 147.874 230.054 148.017L230.054 161.311C230.054 162.887 229.493 164.409 228.468 165.607L228.467 165.607M228.467 165.607L227.742 166.457C227.649 166.566 227.485 166.579 227.376 166.486C227.267 166.393 227.254 166.229 227.347 166.12L228.073 165.27L228.073 165.27C229.018 164.166 229.536 162.764 229.536 161.311L229.536 148.017C229.536 147.874 229.652 147.758 229.795 147.758" fill="rgb(255,255,255)" fill-rule="evenodd" />
			<g id="Group">
				<path id="Vector (Stroke)" d="M227.716 166.083C227.823 166.178 227.832 166.342 227.737 166.449L221.909 172.993C221.814 173.1 221.65 173.109 221.543 173.014C221.436 172.919 221.426 172.755 221.522 172.648L227.35 166.104C227.445 165.997 227.609 165.988 227.716 166.083Z" fill="rgb(255,255,255)" fill-rule="evenodd" />
				<path id="Vector (Stroke)" d="M229.794 155.275C229.937 155.275 230.053 155.391 230.053 155.535C230.053 157.11 229.492 158.632 228.467 159.83C228.467 159.83 228.467 159.83 228.467 159.83L227.739 160.683L221.92 167.218C221.824 167.325 221.661 167.334 221.554 167.239C221.447 167.144 221.437 166.98 221.532 166.873L227.348 160.342L228.073 159.493C229.018 158.389 229.535 156.987 229.535 155.535C229.535 155.391 229.651 155.275 229.794 155.275Z" fill="rgb(255,255,255)" fill-rule="evenodd" />
				<path id="Vector (Stroke)" d="M229.795 149.508C229.938 149.508 230.054 149.624 230.054 149.767C230.054 151.343 229.493 152.865 228.468 154.063C228.468 154.063 228.468 154.063 228.468 154.063L227.74 154.915L221.921 161.45C221.825 161.557 221.662 161.566 221.555 161.471C221.448 161.376 221.438 161.212 221.533 161.105L227.349 154.574L228.074 153.726C229.019 152.622 229.536 151.219 229.536 149.767C229.536 149.624 229.652 149.508 229.795 149.508Z" fill="rgb(255,255,255)" fill-rule="evenodd" />
				<path id="Vector (Stroke)" d="M226.195 183.283C226.195 183.14 226.311 183.023 226.455 183.023L230.924 183.023C231.067 183.023 231.183 183.14 231.183 183.283C231.183 183.426 231.067 183.542 230.924 183.542L226.455 183.542C226.311 183.542 226.195 183.426 226.195 183.283Z" fill="rgb(255,255,255)" fill-rule="evenodd" />
			</g>
			<path id="Vector" d="M248.42 196.255L248.42 202.954C246.501 202.871 244.458 202.747 242.353 202.56C234.585 201.886 227.782 200.621 223.977 199.294L224.547 195.54C228.446 194.969 234.969 194.938 242.363 195.581C244.458 195.778 246.491 195.996 248.42 196.255Z" fill="rgb(254,82,68)" fill-rule="nonzero" />
		</g>
	</g>
	<g id="x33  HAND  x26  CAP">
		<g id="HAND 4">
			<g id="DRESS 4">
				<path id="Vector" d="M198.227 246L140.392 246L140.392 188.665C140.392 191.112 149.901 193.093 161.64 193.093C173.38 193.093 182.889 191.112 182.889 188.665L182.889 188.654L198.227 246Z" fill="rgb(63,177,181)" fill-rule="nonzero" />
				<path id="Vector" d="M182.734 187.523C182.734 189.981 173.328 191.961 161.713 191.961C150.098 191.961 140.692 189.981 140.692 187.533L140.692 187.523C140.723 185.086 150.119 183.105 161.713 183.105C173.307 183.105 182.713 185.086 182.734 187.523Z" fill="rgb(102,176,240)" fill-rule="nonzero" />
			</g>
			<g id="HAND 6">
				<path id="HAND 5" d="M182.733 187.566C182.661 189.993 173.275 191.963 161.713 191.963C159.483 191.963 157.347 191.89 155.335 191.756L155.335 170.425L144.363 170.425C142.963 170.425 141.833 169.295 141.833 167.895L141.833 166.184C141.833 165.416 142.175 164.732 142.714 164.265C142.175 163.798 141.833 163.114 141.833 162.347L141.833 160.636C141.833 159.962 142.102 159.339 142.538 158.894C142.102 158.437 141.833 157.825 141.833 157.151L141.833 155.44C141.833 154.746 142.113 154.113 142.569 153.646C142.113 153.19 141.833 152.558 141.833 151.863L141.833 148.762C141.833 147.362 142.963 146.232 144.363 146.232L158.373 146.232C158.84 145.962 159.597 145.008 158.311 144.448L155.304 143.743C152.918 142.551 151.404 140.57 151.404 137.895L161.982 137.895C163.755 137.895 165.342 139.014 165.944 140.684L182.474 186.83L182.733 187.566Z" fill="rgb(229,114,129)" fill-rule="nonzero" />
				<path id="Vector" d="M182.785 187.587C182.754 187.555 182.733 187.535 182.733 187.535C182.733 189.982 173.327 191.963 161.712 191.963C159.483 191.963 157.346 191.89 155.334 191.755L155.334 183.325C157.346 183.19 159.493 183.117 161.712 183.117C172.186 183.117 180.877 184.735 182.474 186.84C182.515 186.892 182.629 187.172 182.785 187.587Z" fill="rgb(154,59,130)" fill-rule="nonzero" />
			</g>
			<g id="WINEGLASS">
				<path id="Vector" d="M158.613 117.402L158.613 125.812C158.613 130.385 154.91 134.087 150.337 134.087C145.764 134.087 142.062 130.385 142.062 125.812L142.062 117.402C142.062 119.456 145.764 121.115 150.337 121.115C154.91 121.115 158.613 119.456 158.613 117.402Z" fill="rgb(255,255,255)" fill-rule="nonzero" />
				<path id="Vector" d="M150.337 121.116C154.907 121.116 158.613 119.454 158.613 117.404C158.613 115.354 154.907 113.691 150.337 113.691C145.767 113.691 142.062 115.354 142.062 117.404C142.062 119.454 145.767 121.116 150.337 121.116Z" fill="rgb(255,207,45)" fill-rule="nonzero" />
				<path id="Vector (Stroke)" d="M141.751 102.719L158.924 102.719L158.924 125.802C158.924 128.987 157.191 131.763 154.621 133.247L154.465 132.978C154.465 132.984 154.465 132.99 154.465 132.996L154.609 133.248C153.351 133.969 151.888 134.388 150.338 134.388C148.811 134.388 147.377 133.991 146.131 133.289L146.127 133.289L146.081 133.263C146.076 133.26 146.07 133.257 146.065 133.254C146.062 133.252 146.06 133.251 146.058 133.249L146.055 133.247C143.484 131.763 141.751 128.987 141.751 125.802L141.751 102.719ZM154.381 132.667C156.728 131.279 158.302 128.726 158.302 125.802L158.302 103.341L142.373 103.341L142.373 125.802C142.373 128.734 143.955 131.292 146.312 132.677L146.314 132.677L146.358 132.702C146.364 132.706 146.37 132.709 146.376 132.713C146.379 132.714 146.381 132.716 146.384 132.717L146.386 132.718C147.553 133.387 148.9 133.766 150.338 133.766C151.774 133.766 153.132 133.377 154.3 132.708L154.372 132.667L154.381 132.667Z" fill="rgb(255,207,45)" fill-rule="evenodd" />
				<path id="Vector" d="M150.337 106.743C154.959 106.743 158.706 105.081 158.706 103.031C158.706 100.98 154.959 99.3184 150.337 99.3184C145.715 99.3184 141.968 100.98 141.968 103.031C141.968 105.081 145.715 106.743 150.337 106.743Z" fill="rgb(255,255,255)" fill-rule="nonzero" />
				<path id="Vector (Stroke)" d="M142.814 101.764C142.422 102.175 142.228 102.602 142.228 103.03C142.228 103.458 142.422 103.886 142.814 104.296C143.206 104.708 143.787 105.091 144.525 105.418C145.999 106.072 148.054 106.483 150.337 106.483C152.621 106.483 154.675 106.072 156.15 105.418C156.887 105.091 157.468 104.708 157.861 104.296C158.252 103.886 158.447 103.458 158.447 103.03C158.447 102.602 158.252 102.175 157.861 101.764C157.468 101.352 156.887 100.969 156.15 100.642C154.675 99.9882 152.621 99.5771 150.337 99.5771C148.054 99.5771 145.999 99.9882 144.525 100.642C143.787 100.969 143.206 101.352 142.814 101.764ZM144.314 100.168C145.869 99.4786 147.999 99.0586 150.337 99.0586C152.676 99.0586 154.805 99.4786 156.36 100.168C157.137 100.513 157.782 100.93 158.236 101.406C158.691 101.884 158.965 102.433 158.965 103.03C158.965 103.627 158.691 104.177 158.236 104.654C157.782 105.13 157.137 105.548 156.36 105.892C154.805 106.582 152.676 107.002 150.337 107.002C147.999 107.002 145.869 106.582 144.314 105.892C143.537 105.548 142.892 105.13 142.438 104.654C141.983 104.177 141.709 103.627 141.709 103.03C141.709 102.433 141.983 101.884 142.438 101.406C142.892 100.93 143.537 100.513 144.314 100.168Z" fill="rgb(255,207,45)" fill-rule="evenodd" />
				<path id="Vector" d="M150.337 103.592C151.013 103.592 151.561 103.044 151.561 102.368C151.561 101.692 151.013 101.145 150.337 101.145C149.662 101.145 149.114 101.692 149.114 102.368C149.114 103.044 149.662 103.592 150.337 103.592Z" fill="rgb(255,207,45)" fill-rule="nonzero" />
				<path id="Vector" d="M147.641 128.583C148.236 128.583 148.719 128.1 148.719 127.504C148.719 126.909 148.236 126.426 147.641 126.426C147.045 126.426 146.562 126.909 146.562 127.504C146.562 128.1 147.045 128.583 147.641 128.583Z" fill="rgb(255,255,255)" fill-rule="nonzero" />
				<path id="Vector (Stroke)" d="M147.641 126.685C147.188 126.685 146.821 127.051 146.821 127.504C146.821 127.956 147.188 128.323 147.641 128.323C148.093 128.323 148.46 127.956 148.46 127.504C148.46 127.051 148.093 126.685 147.641 126.685ZM146.303 127.504C146.303 126.765 146.902 126.166 147.641 126.166C148.379 126.166 148.978 126.765 148.978 127.504C148.978 128.242 148.379 128.841 147.641 128.841C146.902 128.841 146.303 128.242 146.303 127.504Z" fill="rgb(255,207,45)" fill-rule="evenodd" />
				<path id="Vector" d="M154.112 118.295C154.605 118.295 155.004 117.896 155.004 117.404C155.004 116.911 154.605 116.512 154.112 116.512C153.62 116.512 153.22 116.911 153.22 117.404C153.22 117.896 153.62 118.295 154.112 118.295Z" fill="rgb(255,255,255)" fill-rule="nonzero" />
				<path id="Vector" d="M145.484 124.985C145.976 124.985 146.376 124.586 146.376 124.093C146.376 123.6 145.976 123.201 145.484 123.201C144.991 123.201 144.592 123.6 144.592 124.093C144.592 124.586 144.991 124.985 145.484 124.985Z" fill="rgb(255,207,45)" fill-rule="nonzero" />
				<path id="Vector" d="M158.291 176.231L142.383 176.231C142.093 176.231 142.01 175.848 142.259 175.713L147.817 173.608C148.688 173.276 149.269 172.436 149.269 171.503L149.269 138.36C149.269 136.162 148.128 134.098 146.231 132.989C147.444 133.684 148.844 134.078 150.337 134.078C151.841 134.078 153.241 133.673 154.454 132.979C152.546 134.078 151.405 136.152 151.405 138.35L151.405 171.492C151.405 172.426 151.986 173.265 152.857 173.597L158.416 175.702C158.665 175.848 158.582 176.231 158.291 176.231Z" fill="rgb(255,255,255)" fill-rule="nonzero" />
				<path id="Vector (Stroke)" d="M152.822 133.967C152.037 134.207 151.204 134.337 150.337 134.337C149.47 134.337 148.632 134.208 147.843 133.967C148.918 135.151 149.528 136.721 149.528 138.361L149.528 171.503C149.528 172.544 148.881 173.48 147.909 173.85L147.909 173.85L142.374 175.947C142.374 175.947 142.374 175.947 142.373 175.947C142.373 175.948 142.372 175.949 142.372 175.95C142.371 175.953 142.37 175.958 142.371 175.965C142.372 175.968 142.373 175.97 142.374 175.972C142.374 175.972 142.374 175.972 142.375 175.972C142.376 175.972 142.379 175.972 142.383 175.972L158.291 175.972C158.295 175.972 158.298 175.972 158.299 175.972C158.299 175.972 158.3 175.972 158.3 175.972C158.301 175.97 158.302 175.968 158.303 175.964C158.304 175.957 158.304 175.949 158.301 175.943C158.3 175.941 158.299 175.939 158.297 175.936C158.297 175.936 158.296 175.935 158.295 175.934L152.765 173.84L152.765 173.84C151.793 173.47 151.146 172.534 151.146 171.493L151.146 138.35C151.146 136.718 151.751 135.149 152.822 133.967ZM150.337 133.819C151.793 133.819 153.149 133.427 154.325 132.754L154.583 133.204C152.76 134.254 151.664 136.24 151.664 138.35L151.664 171.493C151.664 172.318 152.178 173.061 152.949 173.355L152.949 173.355M147.725 173.366C147.725 173.366 147.725 173.366 147.725 173.366L142.15 175.477L142.135 175.485C141.896 175.615 141.817 175.869 141.866 176.081C141.915 176.297 142.103 176.491 142.383 176.491L158.291 176.491C158.572 176.491 158.759 176.296 158.808 176.079C158.857 175.866 158.778 175.614 158.546 175.479L158.528 175.468L152.949 173.355M147.725 173.366C148.496 173.072 149.01 172.328 149.01 171.503L149.01 138.361C149.01 136.251 147.915 134.274 146.099 133.213L146.359 132.764C147.534 133.437 148.89 133.819 150.337 133.819" fill="rgb(255,207,45)" fill-rule="evenodd" />
				<path id="Vector" d="M144.447 90.5764C145.225 90.5764 145.857 89.945 145.857 89.1662C145.857 88.3873 145.225 87.7559 144.447 87.7559C143.668 87.7559 143.036 88.3873 143.036 89.1662C143.036 89.945 143.668 90.5764 144.447 90.5764Z" fill="rgb(255,207,45)" fill-rule="nonzero" />
				<path id="Vector" d="M154.112 92.8477C154.788 92.8477 155.336 92.2998 155.336 91.624C155.336 90.9482 154.788 90.4004 154.112 90.4004C153.436 90.4004 152.888 90.9482 152.888 91.624C152.888 92.2998 153.436 92.8477 154.112 92.8477Z" fill="rgb(255,255,255)" fill-rule="nonzero" />
				<path id="Vector (Stroke)" d="M154.112 90.6591C153.579 90.6591 153.147 91.0909 153.147 91.6235C153.147 92.1561 153.579 92.5879 154.112 92.5879C154.645 92.5879 155.076 92.1561 155.076 91.6235C155.076 91.0909 154.645 90.6591 154.112 90.6591ZM152.629 91.6235C152.629 90.8045 153.293 90.1406 154.112 90.1406C154.931 90.1406 155.595 90.8045 155.595 91.6235C155.595 92.4425 154.931 93.1064 154.112 93.1064C153.293 93.1064 152.629 92.4425 152.629 91.6235Z" fill="rgb(255,207,45)" fill-rule="evenodd" />
				<path id="Vector" d="M148.119 97.6176C148.611 97.6176 149.011 97.2183 149.011 96.7258C149.011 96.2333 148.611 95.834 148.119 95.834C147.626 95.834 147.227 96.2333 147.227 96.7258C147.227 97.2183 147.626 97.6176 148.119 97.6176Z" fill="rgb(255,255,255)" fill-rule="nonzero" />
				<path id="Vector (Stroke)" d="M148.117 96.0927C147.768 96.0927 147.485 96.3759 147.485 96.7253C147.485 97.0746 147.768 97.3578 148.117 97.3578C148.467 97.3578 148.75 97.0746 148.75 96.7253C148.75 96.3759 148.467 96.0927 148.117 96.0927ZM146.966 96.7253C146.966 96.0896 147.482 95.5742 148.117 95.5742C148.753 95.5742 149.269 96.0896 149.269 96.7253C149.269 97.361 148.753 97.8763 148.117 97.8763C147.482 97.8763 146.966 97.361 146.966 96.7253Z" fill="rgb(255,207,45)" fill-rule="evenodd" />
				<path id="Vector" d="M147.652 86.7616C148.059 86.7616 148.389 86.432 148.389 86.0253C148.389 85.6187 148.059 85.2891 147.652 85.2891C147.246 85.2891 146.916 85.6187 146.916 86.0253C146.916 86.432 147.246 86.7616 147.652 86.7616Z" fill="rgb(255,207,45)" fill-rule="nonzero" />
			</g>
			<g id="FINGERS 1">
				<path id="Vector" d="M160.997 149.561L160.997 170.435L144.363 170.435C142.963 170.435 141.833 169.305 141.833 167.905L141.833 166.194C141.833 165.426 142.175 164.742 142.714 164.275C142.175 163.809 141.833 163.124 141.833 162.357L141.833 160.646C141.833 159.972 142.102 159.35 142.538 158.904C142.102 158.448 141.833 157.836 141.833 157.162L141.833 155.451C141.833 154.756 142.113 154.123 142.569 153.657C142.113 153.2 141.833 152.568 141.833 151.873L141.833 149.571L160.997 149.571L160.997 149.561Z" fill="rgb(229,114,129)" fill-rule="nonzero" />
				<g id="Group">
					<path id="Vector (Stroke)" d="M142.123 161.953C142.266 161.953 142.382 162.069 142.382 162.212C142.382 163.656 143.552 164.826 144.995 164.826L158.456 164.826C159.899 164.826 161.069 163.656 161.069 162.212C161.069 162.069 161.185 161.953 161.328 161.953C161.472 161.953 161.588 162.069 161.588 162.212C161.588 163.942 160.186 165.344 158.456 165.344L144.995 165.344C143.265 165.344 141.863 163.942 141.863 162.212C141.863 162.069 141.979 161.953 142.123 161.953Z" fill="rgb(154,59,130)" fill-rule="evenodd" />
					<path id="Vector (Stroke)" d="M142.123 156.777C142.266 156.777 142.382 156.893 142.382 157.037C142.382 158.48 143.552 159.65 144.995 159.65L158.456 159.65C159.899 159.65 161.069 158.48 161.069 157.037C161.069 156.893 161.185 156.777 161.328 156.777C161.472 156.777 161.588 156.893 161.588 157.037C161.588 158.766 160.186 160.168 158.456 160.168L144.995 160.168C143.265 160.168 141.863 158.766 141.863 157.037C141.863 156.893 141.979 156.777 142.123 156.777Z" fill="rgb(154,59,130)" fill-rule="evenodd" />
					<path id="Vector (Stroke)" d="M142.123 151.604C142.266 151.604 142.382 151.72 142.382 151.863C142.382 153.306 143.552 154.476 144.995 154.476L158.456 154.476C159.899 154.476 161.069 153.306 161.069 151.863C161.069 151.72 161.185 151.604 161.328 151.604C161.472 151.604 161.588 151.72 161.588 151.863C161.588 153.593 160.186 154.994 158.456 154.994L144.995 154.994C143.265 154.994 141.863 153.593 141.863 151.863C141.863 151.72 141.979 151.604 142.123 151.604Z" fill="rgb(154,59,130)" fill-rule="evenodd" />
					<path id="Vector (Stroke)" d="M161.328 147.725C161.472 147.725 161.588 147.841 161.588 147.984L161.588 167.386C161.588 169.116 160.186 170.518 158.456 170.518L144.86 170.518C144.717 170.518 144.601 170.402 144.601 170.258C144.601 170.115 144.717 169.999 144.86 169.999L158.456 169.999C159.899 169.999 161.069 168.829 161.069 167.386L161.069 147.984C161.069 147.841 161.185 147.725 161.328 147.725Z" fill="rgb(154,59,130)" fill-rule="evenodd" />
					<path id="Vector (Stroke)" d="M158.268 146.501C157.416 146.501 156.723 147.194 156.723 148.046C156.723 149.03 155.922 149.819 154.95 149.819L147.234 149.819C146.635 149.819 146.146 149.33 146.146 148.73C146.146 148.131 146.635 147.642 147.234 147.642L148.614 147.642C148.757 147.642 148.873 147.758 148.873 147.901C148.873 148.044 148.757 148.16 148.614 148.16L147.234 148.16C146.921 148.16 146.664 148.417 146.664 148.73C146.664 149.044 146.921 149.301 147.234 149.301L154.95 149.301C155.638 149.301 156.205 148.742 156.205 148.046C156.205 146.907 157.13 145.982 158.268 145.982L159.523 145.982C160.662 145.982 161.587 146.907 161.587 148.046L161.587 151.406C161.587 151.549 161.471 151.665 161.328 151.665C161.185 151.665 161.068 151.549 161.068 151.406L161.068 148.046C161.068 147.194 160.376 146.501 159.523 146.501L158.268 146.501Z" fill="rgb(154,59,130)" fill-rule="evenodd" />
				</g>
			</g>
		</g>
		<g id="CAP 4">
			<path id="Vector" d="M242.778 41.0289L208.255 76.4316L168.454 32.5567L211.895 1.98633L242.778 41.0289Z" fill="rgb(63,177,181)" fill-rule="nonzero" />
			<path id="Vector (Stroke)" d="M165.614 32.4115L211.12 0.50946L210.763 0L164.678 32.3082L206.678 78.3421L207.137 77.9228L165.614 32.4115Z" fill="rgb(255,207,45)" fill-rule="evenodd" />
			<path id="Vector (Stroke)" d="M218.764 45.4712C218.157 41.3679 214.342 38.5204 210.23 39.1277L207.627 39.5114L207.536 38.8959L210.139 38.5122C214.593 37.8545 218.722 40.9385 219.38 45.38L219.38 45.3804L221.651 60.8521C222.388 65.8611 227.765 68.7287 232.336 66.5381L232.336 66.538L243.194 61.3427L243.462 61.9039L232.605 67.0992" fill="rgb(255,207,45)" fill-rule="evenodd" />
			<path id="Vector" d="M257.172 64.588C258.282 65.1895 259.329 65.8117 260.283 66.4339C260.117 67.3361 259.806 68.2279 259.35 69.0886C258.894 69.9389 258.313 70.6959 257.649 71.3285C256.602 70.8722 255.503 70.3433 254.393 69.7419C248.845 66.745 244.977 63.1674 245.744 61.7467C246.511 60.326 251.624 61.5911 257.172 64.588Z" fill="rgb(255,207,45)" fill-rule="nonzero" />
			<path id="Vector (Stroke)" d="M244.563 60.3898C244.041 60.3898 243.619 60.8123 243.619 61.3334C243.619 61.8546 244.041 62.2771 244.563 62.2771C245.084 62.2771 245.506 61.8546 245.506 61.3334C245.506 60.8123 245.084 60.3898 244.563 60.3898ZM242.997 61.3334C242.997 60.4686 243.698 59.7676 244.563 59.7676C245.427 59.7676 246.128 60.4686 246.128 61.3334C246.128 62.1982 245.427 62.8993 244.563 62.8993C243.698 62.8993 242.997 62.1982 242.997 61.3334Z" fill="rgb(102,176,240)" fill-rule="evenodd" />
		</g>
	</g>
	<g id="x32  HAND  x26  CAP">
		<g id="HAND 2">
			<g id="DRESS 3">
				<path id="Vector" d="M121.175 207.154L121.175 246L76.2812 246L76.2812 223.113C77.2561 225.664 88.6842 224.036 100.88 219.37C111.852 215.17 120.324 210.006 121.175 207.154Z" fill="rgb(254,82,68)" fill-rule="nonzero" />
				<path id="Vector" d="M121.175 206.024C120.315 208.876 111.852 214.04 100.87 218.24C88.6849 222.906 77.2568 224.534 76.2716 221.983C75.2864 219.432 85.1383 213.656 97.3338 208.99C109.519 204.323 120.2 202.612 121.175 205.163C121.279 205.423 121.279 205.713 121.175 206.024Z" fill="rgb(102,176,240)" fill-rule="nonzero" />
			</g>
			<g id="HAND 3">
				<path id="Vector" d="M111.666 180.267L111.666 213.181L109.187 214.435C106.678 215.659 103.867 216.872 100.881 218.013C95.3948 220.118 90.054 221.601 85.7607 222.368L88.2288 212.673L92.2525 196.848C90.3444 196.848 88.54 195.998 87.3266 194.525L70.8066 175.735C73.6377 173.153 77.8689 176.668 77.8689 176.668L76.2822 168.569C75.9089 166.651 76.4689 164.66 77.7859 163.219L82.8051 157.712C83.8007 156.623 85.5948 157.049 86.0096 158.459L89.577 170.768C89.577 170.768 98.4333 177.529 100.093 177.529C101.97 177.529 102.623 176.005 99.1177 170.996C96.4836 167.232 99.1177 164.484 99.1177 164.484L107.694 171.701C110.214 173.837 111.666 176.969 111.666 180.267Z" fill="rgb(255,255,255)" fill-rule="nonzero" />
				<path id="Vector (Stroke)" d="M82.9962 157.887C82.9961 157.887 82.9961 157.887 82.996 157.887L77.9768 163.393C76.7152 164.774 76.1786 166.682 76.5361 168.519C76.5362 168.52 76.5362 168.52 76.5362 168.52L78.2628 177.333L77.7028 176.868L77.7007 176.866C77.699 176.864 77.6963 176.862 77.6927 176.859C77.6854 176.853 77.6741 176.844 77.6591 176.832C77.629 176.809 77.584 176.773 77.5253 176.729C77.4078 176.641 77.236 176.517 77.0208 176.376C76.5895 176.093 75.9882 175.744 75.3039 175.474C73.9929 174.958 72.4459 174.756 71.1748 175.761L87.5236 194.357L87.5262 194.36C88.6903 195.773 90.4213 196.589 92.2521 196.589L92.5855 196.589L88.4796 212.736L86.1111 222.041C90.3167 221.257 95.4825 219.806 100.787 217.771L100.788 217.771C103.767 216.633 106.57 215.423 109.072 214.203C109.072 214.203 109.073 214.202 109.073 214.202L111.406 213.021L111.406 180.266C111.406 177.045 109.988 173.986 107.526 171.899C107.526 171.899 107.526 171.899 107.526 171.899L99.1497 164.85C99.0964 164.919 99.0328 165.007 98.9642 165.113C98.7691 165.413 98.5348 165.851 98.3788 166.399C98.0697 167.486 98.0597 169.032 99.3297 170.847C100.211 172.106 100.836 173.154 101.246 174.018C101.655 174.88 101.86 175.576 101.882 176.13C101.904 176.693 101.738 177.128 101.389 177.413C101.052 177.688 100.589 177.788 100.092 177.788C99.8216 177.788 99.4548 177.658 99.0553 177.474C98.6425 177.283 98.1517 177.014 97.6163 176.695C96.5447 176.056 95.2762 175.207 94.0637 174.361C92.8503 173.514 91.6893 172.667 90.832 172.032C90.4032 171.715 90.0502 171.45 89.8043 171.265C89.6813 171.173 89.5852 171.1 89.5197 171.05C89.4869 171.025 89.4618 171.006 89.4449 170.993L89.4193 170.974C89.4192 170.974 89.4192 170.974 89.5765 170.768L89.4192 170.974L89.3513 170.922L85.7604 158.532C85.7603 158.531 85.7602 158.531 85.7602 158.531C85.4014 157.313 83.854 156.949 82.9962 157.887ZM89.8017 170.613L86.2581 158.386L86.2578 158.385C85.7866 156.783 83.7465 156.298 82.6133 157.537L82.613 157.537L77.594 163.043C76.2216 164.546 75.6382 166.62 76.0272 168.619L77.4857 176.063C77.4293 176.025 77.369 175.984 77.3052 175.942C76.8548 175.647 76.2213 175.278 75.4939 174.992C74.049 174.423 72.1573 174.152 70.6314 175.543L70.4434 175.715L87.1287 194.693C88.3208 196.138 90.0602 197.006 91.9207 197.099L87.9771 212.608L85.4097 222.694L85.8058 222.623C90.1173 221.853 95.4738 220.365 100.973 218.255L100.88 218.013L100.973 218.255C100.973 218.255 100.973 218.255 100.973 218.255C103.966 217.112 106.783 215.895 109.3 214.668L109.302 214.667L109.304 214.666L111.925 213.34L111.925 180.266C111.925 176.892 110.439 173.689 107.861 171.503L99.0982 164.129L98.9301 164.304L99.1172 164.483C98.9301 164.304 98.93 164.304 98.9298 164.304L98.9288 164.305L98.9265 164.308C98.9247 164.31 98.9222 164.312 98.9192 164.316C98.9132 164.322 98.9048 164.331 98.8943 164.343C98.8732 164.367 98.8438 164.401 98.8078 164.446C98.7359 164.534 98.6379 164.664 98.5295 164.83C98.313 165.163 98.0533 165.648 97.8801 166.257C97.5307 167.486 97.5407 169.195 98.9048 171.144C99.7761 172.389 100.384 173.411 100.778 174.241C101.174 175.074 101.346 175.697 101.364 176.151C101.382 176.595 101.252 176.855 101.06 177.012C100.856 177.179 100.534 177.27 100.092 177.27C99.9477 177.27 99.6747 177.188 99.2724 177.003C98.8832 176.823 98.4099 176.564 97.8817 176.25C96.8261 175.621 95.5694 174.779 94.3605 173.936C93.1523 173.092 91.9955 172.249 91.1405 171.616C90.7131 171.299 90.3612 171.036 90.1163 170.851C89.9938 170.759 89.8981 170.686 89.8331 170.637C89.8217 170.628 89.8112 170.62 89.8017 170.613Z" fill="rgb(255,207,45)" fill-rule="evenodd" />
				<g id="Group">
					<path id="Vector (Stroke)" d="M79.8433 160.596C80.9368 159.395 82.8524 159.865 83.3017 161.413L86.7114 173.177L92.9213 178.145L92.5974 178.549L86.2591 173.479L82.8037 161.558C82.4648 160.39 81.0412 160.05 80.2266 160.945L79.8433 160.596Z" fill="rgb(255,207,45)" fill-rule="evenodd" />
					<path id="Vector (Stroke)" d="M76.8462 164.059C77.8853 162.913 79.7717 163.355 80.2013 164.835L83.4248 175.967L88.8167 180.354L88.4894 180.757L82.9718 176.267L79.7034 164.98C79.3863 163.888 77.9957 163.563 77.2304 164.407L76.8462 164.059Z" fill="rgb(255,207,45)" fill-rule="evenodd" />
					<path id="Vector (Stroke)" d="M78.0241 176.48L83.9974 181.489L83.6642 181.886L77.6909 176.878L78.0241 176.48Z" fill="rgb(255,207,45)" fill-rule="evenodd" />
					<path id="Vector (Stroke)" d="M99.2307 197.108L92.2515 197.108L92.2515 196.59L99.2307 196.59L99.2307 197.108Z" fill="rgb(255,207,45)" fill-rule="evenodd" />
				</g>
				<path id="Vector" d="M111.665 204.697L111.665 213.398C108.575 215.036 104.893 216.695 100.88 218.24C95.3837 220.345 90.043 221.828 85.7393 222.596L88.2281 212.889C90.9867 211.562 94.077 210.235 97.3437 208.99C102.622 206.979 107.621 205.506 111.665 204.697Z" fill="rgb(255,207,45)" fill-rule="nonzero" />
			</g>
		</g>
		<g id="CAP 3">
			<path id="Vector (Stroke)" d="M107.483 102.13L104.351 95.258L104.917 95L108.09 101.961L108.095 102.009C108.416 104.742 106.469 107.208 103.738 107.539L103.737 107.54C101.347 107.82 99.6428 109.988 99.9235 112.379C99.9235 112.379 99.9235 112.379 99.9235 112.379L100.38 116.216L99.7619 116.289L99.3056 112.452C98.9849 109.721 100.931 107.243 103.663 106.922C106.039 106.633 107.735 104.501 107.483 102.13Z" fill="rgb(255,207,45)" fill-rule="evenodd" />
			<path id="Vector" d="M141.117 72.9063L157.731 46.9817L100.59 46.5254L81.8716 96.363L112.775 94.9112L141.117 72.9063Z" fill="rgb(254,82,68)" fill-rule="nonzero" />
			<path id="Vector (Stroke)" d="M98.4576 44.0449L158.419 44.7214L158.411 45.3436L98.8852 44.672L79.1238 96.7744L78.542 96.5538L98.4576 44.0449Z" fill="rgb(255,207,45)" fill-rule="evenodd" />
			<path id="Vector" d="M140.091 69.017C143.409 74.7101 137.768 84.1881 127.481 90.1819C117.193 96.1757 106.169 96.4142 102.851 90.7212C102.395 89.9434 102.115 89.1035 101.98 88.2013C101.15 82.5082 106.574 74.7308 115.461 69.5562C124.349 64.3817 133.786 63.4899 138.328 67.0156C139.044 67.5756 139.635 68.2393 140.091 69.017Z" fill="rgb(102,176,240)" fill-rule="nonzero" />
			<path id="Vector (Stroke)" d="M128.557 65.3331C124.568 65.757 120.029 67.2573 115.618 69.8256C111.207 72.3937 107.664 75.6033 105.329 78.8658C102.99 82.135 101.889 85.4213 102.287 88.1563C102.417 89.023 102.685 89.8242 103.119 90.5642L103.119 90.565C104.696 93.2692 108.138 94.6197 112.545 94.5236C116.94 94.4277 122.217 92.8891 127.324 89.9136C132.431 86.9381 136.371 83.105 138.62 79.328C140.876 75.5406 141.398 71.8788 139.822 69.1746C139.387 68.4326 138.822 67.7983 138.136 67.2613C135.954 65.568 132.553 64.9085 128.557 65.3331ZM128.491 64.7144C132.57 64.2811 136.158 64.9384 138.518 66.7704L138.519 66.7711C139.264 67.3539 139.882 68.0468 140.359 68.8601L140.359 68.8608C142.102 71.8497 141.462 75.7732 139.155 79.6464C136.842 83.5301 132.817 87.4329 127.637 90.4512C122.456 93.4695 117.078 95.047 112.559 95.1456C108.053 95.2439 104.324 93.8673 102.582 90.8787C102.104 90.0634 101.812 89.1851 101.672 88.2477L101.672 88.2466C101.241 85.2886 102.436 81.84 104.823 78.5038C107.215 75.1607 110.828 71.8943 115.304 69.2879C119.781 66.6816 124.404 65.1487 128.491 64.7144Z" fill="rgb(255,255,255)" fill-rule="evenodd" />
			<path id="Vector (Stroke)" d="M127.757 60.6465C123.351 60.7438 118.065 62.2857 112.957 65.2596C107.844 68.2386 103.897 72.0775 101.642 75.8634C99.3821 79.6582 98.8505 83.342 100.441 86.0699L100.441 86.07L101.729 88.2813C101.727 88.2666 101.725 88.252 101.723 88.2373L101.98 88.2018L101.723 88.2388C101.3 85.2997 102.488 81.8647 104.869 78.5341C107.255 75.1977 110.86 71.936 115.331 69.3328C119.802 66.7296 124.417 65.1995 128.496 64.7661C132.568 64.3334 136.141 64.9909 138.487 66.8114L138.488 66.812C138.499 66.8208 138.51 66.8296 138.521 66.8385L137.233 64.6269C135.643 61.8991 132.174 60.5488 127.757 60.6465ZM140.314 68.8864L137.681 64.3658L137.681 64.3658C135.952 61.4005 132.245 60.0287 127.746 60.1281C123.236 60.2277 117.866 61.802 112.697 64.8115L112.696 64.8116C107.522 67.8263 103.505 71.7233 101.197 75.5981C98.8942 79.4641 98.2643 83.3658 99.9926 86.331C99.9927 86.331 99.9927 86.331 99.9927 86.331L102.605 90.815C102.612 90.8277 102.62 90.8403 102.627 90.8529L103.075 90.5912L103.074 90.5905C103.067 90.5786 103.06 90.5667 103.054 90.5548C102.627 89.8168 102.354 89.0213 102.236 88.1664L102.236 88.1656L102.236 88.1649C101.84 85.4109 102.949 82.1106 105.291 78.8357C107.629 75.5665 111.175 72.3522 115.592 69.7809C120.008 67.2094 124.554 65.7064 128.551 65.2817C132.555 64.8563 135.972 65.5157 138.168 67.2208C138.859 67.7616 139.428 68.4008 139.867 69.1488L140.315 68.8871L140.314 68.8864Z" fill="rgb(255,255,255)" fill-rule="evenodd" />
			<path id="Vector" d="M99.1792 130.23C98.7747 131.423 98.3392 132.564 97.8829 133.611C96.9599 133.6 96.0266 133.445 95.114 133.134C94.191 132.823 93.3614 132.387 92.6147 131.838C92.8844 130.728 93.2162 129.556 93.6207 128.364C95.6325 122.391 98.4947 117.973 100.03 118.481C101.564 119 101.181 124.257 99.1792 130.23Z" fill="rgb(255,207,45)" fill-rule="nonzero" />
			<path id="Vector (Stroke)" d="M100.237 116.304C99.7156 116.304 99.2931 116.726 99.2931 117.248C99.2931 117.769 99.7156 118.191 100.237 118.191C100.758 118.191 101.181 117.769 101.181 117.248C101.181 116.726 100.758 116.304 100.237 116.304ZM98.6709 117.248C98.6709 116.383 99.372 115.682 100.237 115.682C101.102 115.682 101.803 116.383 101.803 117.248C101.803 118.112 101.102 118.813 100.237 118.813C99.372 118.813 98.6709 118.112 98.6709 117.248Z" fill="rgb(102,176,240)" fill-rule="evenodd" />
		</g>
	</g>
	<g id="x31  HAND  x26  CAP">
		<g id="HAND">
			<g id="DRESS 2">
				<path id="Vector" d="M46.695 203.555L46.695 245.999L0.0698242 245.999L0.0698242 183.531C0.982416 186.59 10.7409 192.968 22.8535 198.298C35.7439 203.991 46.4253 206.335 46.695 203.555Z" fill="rgb(102,176,240)" fill-rule="nonzero" />
				<path id="Vector" d="M46.6951 202.424C46.4151 205.204 35.744 202.85 22.8537 197.167C10.7411 191.827 0.982595 185.449 0.0700031 182.4C0.00778097 182.203 -0.0129635 182.017 0.00777718 181.851C0.277407 179.072 10.9589 181.426 23.8492 187.108C36.7396 192.791 46.9751 199.645 46.6951 202.424Z" fill="rgb(154,59,130)" fill-rule="nonzero" />
			</g>
			<g id="HAND 1">
				<path id="Vector" d="M19.1014 141.546C20.211 139.264 22.5236 137.812 25.0644 137.812L32.3962 137.812L32.7799 167.284L37.8925 194.37L39.5206 202.977C35.2066 202.023 29.3162 200.021 22.8658 197.18C19.2155 195.573 14.6421 193.188 11.5933 191.508L11.5933 155.649C11.5933 155.161 11.6866 154.674 11.8525 154.218L19.1014 141.546Z" fill="rgb(160,80,90)" fill-rule="nonzero" />
				<path id="Vector" d="M39.5079 202.977C35.1939 202.023 29.3035 200.021 22.8531 197.18C19.2028 195.573 14.6295 193.187 11.5806 191.508L11.5806 182.496C14.9095 183.564 19.8354 185.348 23.8487 187.111C29.262 189.496 33.9909 191.953 37.8902 194.37L39.5079 202.977Z" fill="rgb(115,50,90)" fill-rule="nonzero" />
			</g>
			<g id="DIPLOMA">
				<g id="Group">
					<path id="Vector" d="M66.8134 104.68L27.8105 176.439C26.369 179.094 22.3972 179.726 18.9439 177.849C15.4905 175.972 13.8624 172.302 15.3039 169.636L54.3068 97.877L66.8134 104.68Z" fill="rgb(255,255,255)" fill-rule="nonzero" />
					<path id="Vector (Stroke)" d="M54.2028 97.5234L67.1649 104.574L28.0383 176.561C27.2712 177.974 25.8386 178.833 24.1723 179.098C22.5064 179.363 20.5926 179.039 18.82 178.075C15.2997 176.162 13.5384 172.354 15.0757 169.511L15.076 169.511L54.2028 97.5234ZM54.4107 98.2267L15.5318 169.758C14.1863 172.246 15.6813 175.779 19.0676 177.62C20.7483 178.533 22.5471 178.831 24.0908 178.586C25.6342 178.34 26.9083 177.555 27.5826 176.314L66.4618 104.782L54.4107 98.2267Z" fill="rgb(255,207,45)" fill-rule="evenodd" />
					<path id="Vector" d="M5.47535 14.228C8.49931 14.228 10.9507 11.043 10.9507 7.114C10.9507 3.18504 8.49931 0 5.47535 0C2.45139 0 0 3.18504 0 7.114C0 11.043 2.45139 14.228 5.47535 14.228Z" fill="rgb(102,176,240)" fill-rule="nonzero" transform="matrix(0.477517,-0.878591,0.878609,0.477483,51.6909,102.715)" />
					<path id="Vector (Stroke)" d="M5.73458 0.518512C2.91282 0.518512 0.518498 3.5203 0.518498 7.37324C0.518498 11.2262 2.91282 14.228 5.73458 14.228C8.55635 14.228 10.9507 11.2262 10.9507 7.37324C10.9507 3.5203 8.55635 0.518512 5.73458 0.518512ZM0 7.37324C0 3.36829 2.50845 0 5.73458 0C8.96071 0 11.4692 3.36829 11.4692 7.37324C11.4692 11.3782 8.96071 14.7465 5.73458 14.7465C2.50845 14.7465 0 11.3782 0 7.37324Z" fill="rgb(255,207,45)" fill-rule="evenodd" transform="matrix(0.477518,-0.87859,0.87861,0.477482,51.3389,102.818)" />
				</g>
				<path id="Vector" d="M41.333 132.148L59.7611 117.102L59.4708 122.452L65.3715 123.925L51.9315 132.221C55.5404 131.599 59.8856 131.091 63.4633 131.371C67.7256 131.702 66.2944 136.69 64.6974 140.952C68.4307 140.589 80.9478 133.009 85.6663 134.44C88.5492 135.311 87.5122 141.191 86.6826 144.437C87.8855 144.499 93.9729 144.426 93.9729 144.426L90.7581 147.361L92.5211 150.296C85.6767 150.596 85.5937 149.518 86.4544 144.665C86.5996 139.386 80.7507 144.457 68.2959 147.433C62.1256 148.906 62.9241 144.893 64.4485 140.714C63.8367 138.795 59.2634 136.711 44.5686 140.548L41.333 132.148Z" fill="rgb(254,82,68)" fill-rule="nonzero" />
				<path id="Vector" d="M41.6031 141.316C44.61 141.316 47.0476 138.879 47.0476 135.872C47.0476 132.865 44.61 130.428 41.6031 130.428C38.5963 130.428 36.1587 132.865 36.1587 135.872C36.1587 138.879 38.5963 141.316 41.6031 141.316Z" fill="rgb(255,255,255)" fill-rule="nonzero" />
				<path id="Vector (Stroke)" d="M41.6031 130.686C38.7394 130.686 36.4179 133.008 36.4179 135.871C36.4179 138.735 38.7394 141.056 41.6031 141.056C44.4668 141.056 46.7883 138.735 46.7883 135.871C46.7883 133.008 44.4668 130.686 41.6031 130.686ZM35.8994 135.871C35.8994 132.721 38.453 130.168 41.6031 130.168C44.7532 130.168 47.3068 132.721 47.3068 135.871C47.3068 139.021 44.7532 141.575 41.6031 141.575C38.453 141.575 35.8994 139.021 35.8994 135.871Z" fill="rgb(254,82,68)" fill-rule="evenodd" />
			</g>
			<g id="FINGERS">
				<path id="Vector" d="M39.7264 137.812L39.7264 138.155C39.7264 141.639 36.9056 144.47 33.4108 144.47L26.7842 144.47L26.7842 137.812L39.7264 137.812Z" fill="rgb(160,80,90)" fill-rule="nonzero" />
				<g id="Group">
					<path id="Vector" d="M47.7943 150.598L46.0418 154.704L43.9988 159.506L42.8892 162.108L41.1988 166.08C41.1573 166.184 41.0951 166.298 41.0433 166.391C41.0433 166.402 41.0329 166.402 41.0329 166.412C40.4936 167.345 39.4462 167.926 38.2951 167.926L24.8655 167.926C23.2373 167.926 22.1277 166.381 22.7292 164.96L23.704 162.668L25.8507 157.629L27.6966 153.284L29.3247 149.468C29.8018 148.348 30.9529 147.611 32.2388 147.611L45.6684 147.611C47.2862 147.632 48.3958 149.177 47.7943 150.598Z" fill="rgb(160,80,90)" fill-rule="nonzero" />
					<g id="Group">
						<path id="Vector (Stroke)" d="M30.4978 152.567C29.7013 152.567 28.9621 152.909 28.4505 153.477C28.3547 153.583 28.1908 153.592 28.0844 153.496C27.9779 153.4 27.9693 153.237 28.0651 153.13C28.6735 152.454 29.5521 152.049 30.4978 152.049L43.3259 152.049C44.8306 152.049 45.9231 153.346 45.7718 154.732C45.7563 154.874 45.6283 154.977 45.4859 154.961C45.3436 154.946 45.2408 154.818 45.2564 154.675C45.3746 153.593 44.5176 152.567 43.3259 152.567L30.4978 152.567Z" fill="rgb(115,50,90)" fill-rule="evenodd" />
						<path id="Vector (Stroke)" d="M28.641 157.038C27.8904 157.038 27.1993 157.332 26.6984 157.833C26.5972 157.934 26.433 157.934 26.3318 157.833C26.2305 157.732 26.2305 157.568 26.3318 157.467C26.9302 156.868 27.7532 156.52 28.641 156.52L41.4692 156.52C43.111 156.52 44.2542 158.05 43.8346 159.565C43.7964 159.703 43.6535 159.784 43.5155 159.746C43.3776 159.707 43.2967 159.564 43.3349 159.427C43.6619 158.246 42.7725 157.038 41.4692 157.038L28.641 157.038Z" fill="rgb(115,50,90)" fill-rule="evenodd" />
						<path id="Vector (Stroke)" d="M26.5775 162.118C25.8559 162.118 25.1831 162.393 24.6813 162.867C24.5772 162.965 24.4131 162.96 24.3148 162.856C24.2166 162.752 24.2213 162.588 24.3255 162.49C24.9229 161.926 25.7228 161.6 26.5775 161.6L39.4056 161.6C41.0939 161.6 42.2723 163.244 41.7243 164.807C41.6769 164.942 41.529 165.013 41.3939 164.966C41.2588 164.918 41.1876 164.77 41.235 164.635C41.6618 163.418 40.7454 162.118 39.4056 162.118L26.5775 162.118Z" fill="rgb(115,50,90)" fill-rule="evenodd" />
					</g>
				</g>
			</g>
		</g>
		<g id="CAP 2">
			<path id="Vector" d="M70.8891 29.9846C71.7499 29.0617 72.6106 28.201 73.461 27.4336C74.2906 27.8173 75.0787 28.3461 75.7943 29.0098C76.4995 29.6735 77.0906 30.4201 77.5365 31.2186C76.8313 32.1208 76.0432 33.0437 75.1824 33.9666C70.8891 38.5812 66.461 41.4329 65.2684 40.3337C64.0862 39.2345 66.5958 34.5992 70.8891 29.9846Z" fill="rgb(255,207,45)" fill-rule="nonzero" />
			<path id="Vector" d="M40.7535 66.529L39.3846 67.3793C34.4172 70.4592 24.7416 63.8328 17.7831 52.5815C10.8143 41.3302 9.19648 29.7263 14.1535 26.6465L15.5639 25.7754L23.9535 50.4557L40.7535 66.529Z" fill="rgb(102,176,240)" fill-rule="nonzero" />
			<path id="Vector" d="M54.6492 79.8336L40.7529 66.5291L23.9426 50.4454L15.5529 25.7755L8.05518 3.71875L42.9722 31.8522L54.6492 79.8336Z" fill="rgb(102,176,240)" fill-rule="nonzero" />
			<path id="Vector (Stroke)" d="M7.41553 2.80273L43.2494 31.675L55.2032 80.7936L40.5377 66.7527L23.6724 50.6164L15.2583 25.8745L7.41553 2.80273ZM8.69468 4.63242L15.8474 25.6741L24.2125 50.272L40.9679 66.3031L54.095 78.8712L42.6947 32.0271L8.69468 4.63242Z" fill="rgb(255,255,255)" fill-rule="evenodd" />
			<path id="Vector (Stroke)" d="M8.98461 2.53125L44.4217 30.441L56.0411 78.444L55.4363 78.5904L43.8676 30.7965L8.59961 3.02004L8.98461 2.53125Z" fill="rgb(154,59,130)" fill-rule="evenodd" />
			<path id="Vector (Stroke)" d="M49.1367 42.2746C48.0866 39.0086 44.6913 37.0985 41.3452 37.9102L41.3449 37.9103C37.8203 38.7617 35.6516 42.3163 36.5032 45.8411L35.8984 45.9872C34.9662 42.1288 37.3397 38.2378 41.1987 37.3055C44.8624 36.4168 48.5805 38.5088 49.7296 42.0859L49.7301 42.0874L52.6446 51.4944L52.6447 51.4947C54.1562 56.3899 61.2091 56.0121 62.1947 50.9771L63.8746 42.3394L64.4854 42.4582L62.8054 51.0963L62.8053 51.0967C61.6961 56.7633 53.7537 57.1944 52.0502 51.6786M52.0502 51.6783L49.1371 42.2762C49.137 42.2757 49.1368 42.2751 49.1367 42.2746" fill="rgb(255,207,45)" fill-rule="evenodd" />
			<path id="Vector (Stroke)" d="M64.5737 40.4386C64.0525 40.4386 63.63 40.8611 63.63 41.3823C63.63 41.9034 64.0525 42.3259 64.5737 42.3259C65.0949 42.3259 65.5174 41.9034 65.5174 41.3823C65.5174 40.8611 65.0949 40.4386 64.5737 40.4386ZM63.0078 41.3823C63.0078 40.5175 63.7089 39.8164 64.5737 39.8164C65.4386 39.8164 66.1396 40.5175 66.1396 41.3823C66.1396 42.247 65.4386 42.9481 64.5737 42.9481C63.7089 42.9481 63.0078 42.247 63.0078 41.3823Z" fill="rgb(102,176,240)" fill-rule="evenodd" />
		</g>
	</g>
</svg>
